%TF.GenerationSoftware,KiCad,Pcbnew,(6.0.6)*%
%TF.CreationDate,2022-09-07T15:36:20-05:00*%
%TF.ProjectId,etl_lgad_mockup_v1p2,65746c5f-6c67-4616-945f-6d6f636b7570,rev?*%
%TF.SameCoordinates,Original*%
%TF.FileFunction,Copper,L1,Top*%
%TF.FilePolarity,Positive*%
%FSLAX46Y46*%
G04 Gerber Fmt 4.6, Leading zero omitted, Abs format (unit mm)*
G04 Created by KiCad (PCBNEW (6.0.6)) date 2022-09-07 15:36:20*
%MOMM*%
%LPD*%
G01*
G04 APERTURE LIST*
%TA.AperFunction,EtchedComponent*%
%ADD10C,0.070000*%
%TD*%
%TA.AperFunction,Conductor*%
%ADD11C,0.250000*%
%TD*%
G04 APERTURE END LIST*
D10*
%TO.C,REF\u002A\u002A*%
X1000000Y-10450000D02*
X1000000Y-10950000D01*
X1250000Y-10700000D02*
X750000Y-10700000D01*
X1200000Y-10700000D02*
G75*
G03*
X1200000Y-10700000I-200000J0D01*
G01*
X11050000Y-1000000D02*
X10550000Y-1000000D01*
X10800000Y-750000D02*
X10800000Y-1250000D01*
X11000000Y-1000000D02*
G75*
G03*
X11000000Y-1000000I-200000J0D01*
G01*
X20850000Y-10700000D02*
X20350000Y-10700000D01*
X20600000Y-10450000D02*
X20600000Y-10950000D01*
X20800000Y-10700000D02*
G75*
G03*
X20800000Y-10700000I-200000J0D01*
G01*
X10800000Y-20150000D02*
X10800000Y-20650000D01*
X11050000Y-20400000D02*
X10550000Y-20400000D01*
X11000000Y-20400000D02*
G75*
G03*
X11000000Y-20400000I-200000J0D01*
G01*
%TD*%
D11*
%TO.N,*%
X10850000Y-10710000D02*
X12250000Y-9310000D01*
X10850000Y-10720000D02*
X10850000Y-10710000D01*
X14160000Y-10720000D02*
X10840000Y-10720000D01*
X10840000Y-10720000D02*
X10850000Y-10720000D01*
X10850000Y-10720000D02*
X12250000Y-12120000D01*
%TD*%
%TA.AperFunction,NonConductor*%
G36*
X942121Y-6670002D02*
G01*
X988614Y-6723658D01*
X1000000Y-6776000D01*
X1000000Y-8126184D01*
X979998Y-8194305D01*
X926342Y-8240798D01*
X873685Y-8252184D01*
X226185Y-8250565D01*
X158114Y-8230392D01*
X111756Y-8176621D01*
X100500Y-8124565D01*
X100500Y-6776000D01*
X120502Y-6707879D01*
X174158Y-6661386D01*
X226500Y-6650000D01*
X874000Y-6650000D01*
X942121Y-6670002D01*
G37*
%TD.AperFunction*%
%TA.AperFunction,NonConductor*%
G36*
X16574303Y-120502D02*
G01*
X16595277Y-137405D01*
X21462595Y-5004723D01*
X21496621Y-5067035D01*
X21499500Y-5093818D01*
X21499500Y-16306182D01*
X21479498Y-16374303D01*
X21462595Y-16395277D01*
X16595277Y-21262595D01*
X16532965Y-21296621D01*
X16506182Y-21299500D01*
X5093818Y-21299500D01*
X5025697Y-21279498D01*
X5004723Y-21262595D01*
X4167294Y-20425166D01*
X10310558Y-20425166D01*
X10341495Y-20520380D01*
X10350356Y-20530221D01*
X10397660Y-20582758D01*
X10419352Y-20616323D01*
X10426471Y-20632501D01*
X10506740Y-20727993D01*
X10601849Y-20791303D01*
X10620982Y-20809668D01*
X10621273Y-20809345D01*
X10631117Y-20818208D01*
X10638899Y-20828920D01*
X10650364Y-20835539D01*
X10650366Y-20835541D01*
X10714131Y-20872355D01*
X10725601Y-20878977D01*
X10769267Y-20883567D01*
X10811995Y-20888058D01*
X10811997Y-20888058D01*
X10825166Y-20889442D01*
X10877754Y-20872355D01*
X10907784Y-20862598D01*
X10907785Y-20862597D01*
X10920380Y-20858505D01*
X10930220Y-20849645D01*
X10930222Y-20849644D01*
X10986329Y-20799125D01*
X11004703Y-20785392D01*
X11081044Y-20738519D01*
X11096796Y-20721117D01*
X11158730Y-20652693D01*
X11158731Y-20652692D01*
X11164758Y-20646033D01*
X11179632Y-20615333D01*
X11209869Y-20579201D01*
X11209344Y-20578728D01*
X11218208Y-20568883D01*
X11228920Y-20561101D01*
X11235539Y-20549636D01*
X11235541Y-20549634D01*
X11272355Y-20485869D01*
X11272355Y-20485868D01*
X11278977Y-20474399D01*
X11289442Y-20374834D01*
X11258505Y-20279620D01*
X11249645Y-20269780D01*
X11249644Y-20269778D01*
X11201222Y-20216000D01*
X11180158Y-20183840D01*
X11174379Y-20171129D01*
X11174377Y-20171126D01*
X11170661Y-20162953D01*
X11089231Y-20068449D01*
X11000410Y-20010878D01*
X10978891Y-19990475D01*
X10978728Y-19990656D01*
X10968883Y-19981792D01*
X10961101Y-19971080D01*
X10949636Y-19964461D01*
X10949634Y-19964459D01*
X10885869Y-19927645D01*
X10885868Y-19927645D01*
X10874399Y-19921023D01*
X10830733Y-19916433D01*
X10788005Y-19911942D01*
X10788003Y-19911942D01*
X10774834Y-19910558D01*
X10727227Y-19926026D01*
X10692216Y-19937402D01*
X10692215Y-19937403D01*
X10679620Y-19941495D01*
X10615309Y-19999400D01*
X10598247Y-20012315D01*
X10514842Y-20064940D01*
X10432263Y-20158442D01*
X10428448Y-20166567D01*
X10428447Y-20166569D01*
X10420381Y-20183749D01*
X10389916Y-20220608D01*
X10390655Y-20221273D01*
X10381792Y-20231116D01*
X10371080Y-20238899D01*
X10364461Y-20250364D01*
X10364459Y-20250366D01*
X10327645Y-20314131D01*
X10321023Y-20325601D01*
X10310558Y-20425166D01*
X4167294Y-20425166D01*
X137405Y-16395277D01*
X103379Y-16332965D01*
X100500Y-16306182D01*
X100500Y-10725166D01*
X510558Y-10725166D01*
X541495Y-10820380D01*
X590585Y-10874900D01*
X597660Y-10882758D01*
X619352Y-10916323D01*
X626471Y-10932501D01*
X706740Y-11027993D01*
X801849Y-11091303D01*
X820982Y-11109668D01*
X821273Y-11109345D01*
X831117Y-11118208D01*
X838899Y-11128920D01*
X850364Y-11135539D01*
X850366Y-11135541D01*
X914131Y-11172355D01*
X925601Y-11178977D01*
X969267Y-11183567D01*
X1011995Y-11188058D01*
X1011997Y-11188058D01*
X1025166Y-11189442D01*
X1077754Y-11172355D01*
X1107784Y-11162598D01*
X1107785Y-11162597D01*
X1120380Y-11158505D01*
X1130220Y-11149645D01*
X1130222Y-11149644D01*
X1186329Y-11099125D01*
X1204703Y-11085392D01*
X1281044Y-11038519D01*
X1296796Y-11021117D01*
X1358730Y-10952693D01*
X1358731Y-10952692D01*
X1364758Y-10946033D01*
X1379632Y-10915333D01*
X1409869Y-10879201D01*
X1409344Y-10878728D01*
X1418208Y-10868883D01*
X1428920Y-10861101D01*
X1435539Y-10849636D01*
X1435541Y-10849634D01*
X1472355Y-10785869D01*
X1472355Y-10785868D01*
X1477248Y-10777394D01*
X10514500Y-10777394D01*
X10518271Y-10787754D01*
X10518271Y-10787755D01*
X10530146Y-10820380D01*
X10553760Y-10885260D01*
X10627545Y-10973194D01*
X10637092Y-10978706D01*
X10649435Y-10985832D01*
X10675531Y-11005857D01*
X12039972Y-12370298D01*
X12044481Y-12373455D01*
X12044483Y-12373457D01*
X12075831Y-12395407D01*
X12110316Y-12419554D01*
X12221193Y-12449264D01*
X12232178Y-12448303D01*
X12232180Y-12448303D01*
X12324563Y-12440220D01*
X12324564Y-12440220D01*
X12335545Y-12439259D01*
X12377803Y-12419554D01*
X12429587Y-12395407D01*
X12429588Y-12395406D01*
X12439580Y-12390747D01*
X12520747Y-12309580D01*
X12569259Y-12205546D01*
X12579264Y-12091193D01*
X12549554Y-11980316D01*
X12500298Y-11909972D01*
X11850921Y-11260595D01*
X11816895Y-11198283D01*
X11821960Y-11127468D01*
X11864507Y-11070632D01*
X11931027Y-11045821D01*
X11940016Y-11045500D01*
X14188475Y-11045500D01*
X14273045Y-11030588D01*
X14372455Y-10973194D01*
X14379542Y-10964749D01*
X14439153Y-10893707D01*
X14446240Y-10885261D01*
X14485500Y-10777394D01*
X14485500Y-10725166D01*
X20110558Y-10725166D01*
X20141495Y-10820380D01*
X20190585Y-10874900D01*
X20197660Y-10882758D01*
X20219352Y-10916323D01*
X20226471Y-10932501D01*
X20306740Y-11027993D01*
X20401849Y-11091303D01*
X20420982Y-11109668D01*
X20421273Y-11109345D01*
X20431117Y-11118208D01*
X20438899Y-11128920D01*
X20450364Y-11135539D01*
X20450366Y-11135541D01*
X20514131Y-11172355D01*
X20525601Y-11178977D01*
X20569267Y-11183567D01*
X20611995Y-11188058D01*
X20611997Y-11188058D01*
X20625166Y-11189442D01*
X20677754Y-11172355D01*
X20707784Y-11162598D01*
X20707785Y-11162597D01*
X20720380Y-11158505D01*
X20730220Y-11149645D01*
X20730222Y-11149644D01*
X20786329Y-11099125D01*
X20804703Y-11085392D01*
X20881044Y-11038519D01*
X20896796Y-11021117D01*
X20958730Y-10952693D01*
X20958731Y-10952692D01*
X20964758Y-10946033D01*
X20979632Y-10915333D01*
X21009869Y-10879201D01*
X21009344Y-10878728D01*
X21018208Y-10868883D01*
X21028920Y-10861101D01*
X21035539Y-10849636D01*
X21035541Y-10849634D01*
X21072355Y-10785869D01*
X21072355Y-10785868D01*
X21078977Y-10774399D01*
X21089442Y-10674834D01*
X21058505Y-10579620D01*
X21049645Y-10569780D01*
X21049644Y-10569778D01*
X21001222Y-10516000D01*
X20980158Y-10483840D01*
X20974379Y-10471129D01*
X20974377Y-10471126D01*
X20970661Y-10462953D01*
X20889231Y-10368449D01*
X20800410Y-10310878D01*
X20778891Y-10290475D01*
X20778728Y-10290656D01*
X20768883Y-10281792D01*
X20761101Y-10271080D01*
X20749636Y-10264461D01*
X20749634Y-10264459D01*
X20685869Y-10227645D01*
X20685868Y-10227645D01*
X20674399Y-10221023D01*
X20630733Y-10216433D01*
X20588005Y-10211942D01*
X20588003Y-10211942D01*
X20574834Y-10210558D01*
X20527227Y-10226027D01*
X20492216Y-10237402D01*
X20492215Y-10237403D01*
X20479620Y-10241495D01*
X20415309Y-10299400D01*
X20398247Y-10312315D01*
X20314842Y-10364940D01*
X20308899Y-10371669D01*
X20305737Y-10375249D01*
X20232263Y-10458442D01*
X20228448Y-10466567D01*
X20228447Y-10466569D01*
X20220381Y-10483749D01*
X20189916Y-10520608D01*
X20190655Y-10521273D01*
X20181792Y-10531116D01*
X20171080Y-10538899D01*
X20164461Y-10550364D01*
X20164459Y-10550366D01*
X20127645Y-10614131D01*
X20121023Y-10625601D01*
X20110558Y-10725166D01*
X14485500Y-10725166D01*
X14485500Y-10662606D01*
X14455296Y-10579620D01*
X14450011Y-10565100D01*
X14450010Y-10565099D01*
X14446240Y-10554740D01*
X14372455Y-10466806D01*
X14273045Y-10409412D01*
X14188475Y-10394500D01*
X11930016Y-10394500D01*
X11861895Y-10374498D01*
X11815402Y-10320842D01*
X11805298Y-10250568D01*
X11834792Y-10185988D01*
X11840921Y-10179405D01*
X12500298Y-9520028D01*
X12549554Y-9449684D01*
X12579264Y-9338807D01*
X12569259Y-9224455D01*
X12520747Y-9120420D01*
X12439580Y-9039253D01*
X12335546Y-8990741D01*
X12324565Y-8989780D01*
X12324564Y-8989780D01*
X12232181Y-8981697D01*
X12232179Y-8981697D01*
X12221193Y-8980736D01*
X12110316Y-9010446D01*
X12101288Y-9016767D01*
X12101287Y-9016768D01*
X12069176Y-9039253D01*
X12039972Y-9059702D01*
X10648991Y-10450683D01*
X10640889Y-10458108D01*
X10637092Y-10461294D01*
X10627545Y-10466806D01*
X10620458Y-10475252D01*
X10620282Y-10475400D01*
X10605396Y-10490286D01*
X10605250Y-10490460D01*
X10596806Y-10497545D01*
X10591295Y-10507090D01*
X10591149Y-10507264D01*
X10578816Y-10524878D01*
X10553760Y-10554739D01*
X10514500Y-10662606D01*
X10514500Y-10777394D01*
X1477248Y-10777394D01*
X1478977Y-10774399D01*
X1489442Y-10674834D01*
X1458505Y-10579620D01*
X1449645Y-10569780D01*
X1449644Y-10569778D01*
X1401222Y-10516000D01*
X1380158Y-10483840D01*
X1374379Y-10471129D01*
X1374377Y-10471126D01*
X1370661Y-10462953D01*
X1289231Y-10368449D01*
X1200410Y-10310878D01*
X1178891Y-10290475D01*
X1178728Y-10290656D01*
X1168883Y-10281792D01*
X1161101Y-10271080D01*
X1149636Y-10264461D01*
X1149634Y-10264459D01*
X1085869Y-10227645D01*
X1085868Y-10227645D01*
X1074399Y-10221023D01*
X1030733Y-10216433D01*
X988005Y-10211942D01*
X988003Y-10211942D01*
X974834Y-10210558D01*
X927227Y-10226026D01*
X892216Y-10237402D01*
X892215Y-10237403D01*
X879620Y-10241495D01*
X815309Y-10299400D01*
X798247Y-10312315D01*
X714842Y-10364940D01*
X708899Y-10371669D01*
X705737Y-10375249D01*
X632263Y-10458442D01*
X628448Y-10466567D01*
X628447Y-10466569D01*
X620381Y-10483749D01*
X589916Y-10520608D01*
X590655Y-10521273D01*
X581792Y-10531116D01*
X571080Y-10538899D01*
X564461Y-10550364D01*
X564459Y-10550366D01*
X527645Y-10614131D01*
X521023Y-10625601D01*
X510558Y-10725166D01*
X100500Y-10725166D01*
X100500Y-8575435D01*
X120502Y-8507314D01*
X174158Y-8460821D01*
X226185Y-8449435D01*
X580912Y-8448548D01*
X975945Y-8447561D01*
X1000000Y-8450039D01*
X1000000Y-8452919D01*
X1013957Y-8452739D01*
X1013958Y-8452739D01*
X1181883Y-8450570D01*
X1200000Y-8450336D01*
X1200000Y-6449665D01*
X1084661Y-6450457D01*
X1005482Y-6451001D01*
X1000000Y-6450431D01*
X1000000Y-6450000D01*
X226500Y-6450000D01*
X158379Y-6429998D01*
X111886Y-6376342D01*
X100500Y-6324000D01*
X100500Y-5093818D01*
X120502Y-5025697D01*
X137405Y-5004723D01*
X4116962Y-1025166D01*
X10310558Y-1025166D01*
X10341495Y-1120380D01*
X10350356Y-1130221D01*
X10397660Y-1182758D01*
X10419352Y-1216323D01*
X10426471Y-1232501D01*
X10506740Y-1327993D01*
X10601849Y-1391303D01*
X10620982Y-1409668D01*
X10621273Y-1409345D01*
X10631117Y-1418208D01*
X10638899Y-1428920D01*
X10650364Y-1435539D01*
X10650366Y-1435541D01*
X10714131Y-1472355D01*
X10725601Y-1478977D01*
X10769267Y-1483567D01*
X10811995Y-1488058D01*
X10811997Y-1488058D01*
X10825166Y-1489442D01*
X10877754Y-1472355D01*
X10907784Y-1462598D01*
X10907785Y-1462597D01*
X10920380Y-1458505D01*
X10930220Y-1449645D01*
X10930222Y-1449644D01*
X10986329Y-1399125D01*
X11004703Y-1385392D01*
X11081044Y-1338519D01*
X11096796Y-1321117D01*
X11158730Y-1252693D01*
X11158731Y-1252692D01*
X11164758Y-1246033D01*
X11179632Y-1215333D01*
X11209869Y-1179201D01*
X11209344Y-1178728D01*
X11218208Y-1168883D01*
X11228920Y-1161101D01*
X11235539Y-1149636D01*
X11235541Y-1149634D01*
X11272355Y-1085869D01*
X11272355Y-1085868D01*
X11278977Y-1074399D01*
X11289442Y-974834D01*
X11258505Y-879620D01*
X11249645Y-869780D01*
X11249644Y-869778D01*
X11201222Y-816000D01*
X11180158Y-783840D01*
X11174379Y-771129D01*
X11174377Y-771126D01*
X11170661Y-762953D01*
X11089231Y-668449D01*
X11000410Y-610878D01*
X10978891Y-590475D01*
X10978728Y-590656D01*
X10968883Y-581792D01*
X10961101Y-571080D01*
X10949636Y-564461D01*
X10949634Y-564459D01*
X10885869Y-527645D01*
X10885868Y-527645D01*
X10874399Y-521023D01*
X10830733Y-516433D01*
X10788005Y-511942D01*
X10788003Y-511942D01*
X10774834Y-510558D01*
X10727227Y-526026D01*
X10692216Y-537402D01*
X10692215Y-537403D01*
X10679620Y-541495D01*
X10615309Y-599400D01*
X10598247Y-612315D01*
X10514842Y-664940D01*
X10432263Y-758442D01*
X10428448Y-766567D01*
X10428447Y-766569D01*
X10420381Y-783749D01*
X10389916Y-820608D01*
X10390655Y-821273D01*
X10381792Y-831116D01*
X10371080Y-838899D01*
X10364461Y-850364D01*
X10364459Y-850366D01*
X10327645Y-914131D01*
X10321023Y-925601D01*
X10310558Y-1025166D01*
X4116962Y-1025166D01*
X5004723Y-137405D01*
X5067035Y-103379D01*
X5093818Y-100500D01*
X16506182Y-100500D01*
X16574303Y-120502D01*
G37*
%TD.AperFunction*%
M02*
