%TF.GenerationSoftware,KiCad,Pcbnew,7.0.6*%
%TF.CreationDate,2023-08-28T17:18:35-05:00*%
%TF.ProjectId,TFPX_croc_stencil_1x2,54465058-5f63-4726-9f63-5f7374656e63,rev?*%
%TF.SameCoordinates,Original*%
%TF.FileFunction,Copper,L1,Top*%
%TF.FilePolarity,Positive*%
%FSLAX46Y46*%
G04 Gerber Fmt 4.6, Leading zero omitted, Abs format (unit mm)*
G04 Created by KiCad (PCBNEW 7.0.6) date 2023-08-28 17:18:35*
%MOMM*%
%LPD*%
G01*
G04 APERTURE LIST*
G04 Aperture macros list*
%AMRoundRect*
0 Rectangle with rounded corners*
0 $1 Rounding radius*
0 $2 $3 $4 $5 $6 $7 $8 $9 X,Y pos of 4 corners*
0 Add a 4 corners polygon primitive as box body*
4,1,4,$2,$3,$4,$5,$6,$7,$8,$9,$2,$3,0*
0 Add four circle primitives for the rounded corners*
1,1,$1+$1,$2,$3*
1,1,$1+$1,$4,$5*
1,1,$1+$1,$6,$7*
1,1,$1+$1,$8,$9*
0 Add four rect primitives between the rounded corners*
20,1,$1+$1,$2,$3,$4,$5,0*
20,1,$1+$1,$4,$5,$6,$7,0*
20,1,$1+$1,$6,$7,$8,$9,0*
20,1,$1+$1,$8,$9,$2,$3,0*%
G04 Aperture macros list end*
%TA.AperFunction,SMDPad,CuDef*%
%ADD10C,6.360000*%
%TD*%
%TA.AperFunction,SMDPad,CuDef*%
%ADD11R,1.000000X0.500000*%
%TD*%
%TA.AperFunction,SMDPad,CuDef*%
%ADD12R,4.200000X0.500000*%
%TD*%
%TA.AperFunction,SMDPad,CuDef*%
%ADD13R,4.000000X0.500000*%
%TD*%
%TA.AperFunction,SMDPad,CuDef*%
%ADD14R,2.000000X0.500000*%
%TD*%
%TA.AperFunction,SMDPad,CuDef*%
%ADD15R,2.200000X0.500000*%
%TD*%
%TA.AperFunction,SMDPad,CuDef*%
%ADD16R,1.600000X0.500000*%
%TD*%
%TA.AperFunction,SMDPad,CuDef*%
%ADD17R,2.800000X0.500000*%
%TD*%
%TA.AperFunction,SMDPad,CuDef*%
%ADD18RoundRect,2.862000X-0.818000X-0.318000X0.818000X-0.318000X0.818000X0.318000X-0.818000X0.318000X0*%
%TD*%
G04 APERTURE END LIST*
D10*
%TO.P,,1*%
%TO.N,N/C*%
X109964500Y-100890600D03*
D11*
%TO.P,,2*%
X121260000Y-107740000D03*
%TO.P,,3*%
X121260000Y-104940000D03*
%TO.P,,4*%
X121260000Y-106340000D03*
%TO.P,,5*%
X121260000Y-102140000D03*
%TO.P,,6*%
X121260000Y-103540000D03*
%TO.P,,7*%
X121260000Y-100740000D03*
%TO.P,,8*%
X121260000Y-97940000D03*
%TO.P,,9*%
X121260000Y-99340000D03*
%TO.P,,10*%
X121260000Y-95140000D03*
%TO.P,,11*%
X121260000Y-96540000D03*
%TO.P,,12*%
X121260000Y-93740000D03*
D12*
%TO.P,,13*%
X122460000Y-109440000D03*
D11*
%TO.P,,14*%
X123260000Y-107740000D03*
%TO.P,,15*%
X123260000Y-104940000D03*
%TO.P,,16*%
X123260000Y-106340000D03*
%TO.P,,17*%
X123260000Y-102140000D03*
%TO.P,,18*%
X123260000Y-103540000D03*
%TO.P,,19*%
X123260000Y-100740000D03*
%TO.P,,20*%
X123260000Y-97940000D03*
%TO.P,,21*%
X123260000Y-99340000D03*
%TO.P,,22*%
X123260000Y-95140000D03*
%TO.P,,23*%
X123260000Y-96540000D03*
%TO.P,,24*%
X123260000Y-93740000D03*
%TO.P,,25*%
X125260000Y-107740000D03*
%TO.P,,26*%
X125260000Y-104940000D03*
%TO.P,,27*%
X125260000Y-106340000D03*
%TO.P,,28*%
X125260000Y-102140000D03*
%TO.P,,29*%
X125260000Y-103540000D03*
%TO.P,,30*%
X125260000Y-100740000D03*
%TO.P,,31*%
X125260000Y-97940000D03*
%TO.P,,32*%
X125260000Y-99340000D03*
%TO.P,,33*%
X125260000Y-95140000D03*
%TO.P,,34*%
X125260000Y-96540000D03*
%TO.P,,35*%
X125260000Y-93740000D03*
D13*
%TO.P,,36*%
X126860000Y-109440000D03*
D11*
%TO.P,,37*%
X127260000Y-107740000D03*
%TO.P,,38*%
X127260000Y-104940000D03*
%TO.P,,39*%
X127260000Y-106340000D03*
%TO.P,,40*%
X127260000Y-102140000D03*
%TO.P,,41*%
X127260000Y-103540000D03*
%TO.P,,42*%
X127260000Y-100740000D03*
%TO.P,,43*%
X127260000Y-97940000D03*
%TO.P,,44*%
X127260000Y-99340000D03*
%TO.P,,45*%
X127260000Y-95140000D03*
%TO.P,,46*%
X127260000Y-96540000D03*
%TO.P,,47*%
X127260000Y-93740000D03*
%TO.P,,48*%
X129260000Y-107740000D03*
%TO.P,,49*%
X129260000Y-104940000D03*
%TO.P,,50*%
X129260000Y-106340000D03*
%TO.P,,51*%
X129260000Y-102140000D03*
%TO.P,,52*%
X129260000Y-103540000D03*
%TO.P,,53*%
X129260000Y-100740000D03*
%TO.P,,54*%
X129260000Y-97940000D03*
%TO.P,,55*%
X129260000Y-99340000D03*
%TO.P,,56*%
X129260000Y-95140000D03*
%TO.P,,57*%
X129260000Y-96540000D03*
%TO.P,,58*%
X129260000Y-93740000D03*
D13*
%TO.P,,59*%
X131160000Y-109440000D03*
D11*
%TO.P,,60*%
X131260000Y-107740000D03*
%TO.P,,61*%
X131260000Y-104940000D03*
%TO.P,,62*%
X131260000Y-106340000D03*
%TO.P,,63*%
X131260000Y-102140000D03*
%TO.P,,64*%
X131260000Y-103540000D03*
%TO.P,,65*%
X131260000Y-100740000D03*
%TO.P,,66*%
X131260000Y-97940000D03*
%TO.P,,67*%
X131260000Y-99340000D03*
%TO.P,,68*%
X131260000Y-95140000D03*
%TO.P,,69*%
X131260000Y-96540000D03*
%TO.P,,70*%
X131260000Y-93740000D03*
%TO.P,,71*%
X133260000Y-107740000D03*
%TO.P,,72*%
X133260000Y-104940000D03*
%TO.P,,73*%
X133260000Y-106340000D03*
%TO.P,,74*%
X133260000Y-102140000D03*
%TO.P,,75*%
X133260000Y-103540000D03*
%TO.P,,76*%
X133260000Y-100740000D03*
%TO.P,,77*%
X133260000Y-97940000D03*
%TO.P,,78*%
X133260000Y-99340000D03*
%TO.P,,79*%
X133260000Y-95140000D03*
%TO.P,,80*%
X133260000Y-96540000D03*
%TO.P,,81*%
X133260000Y-93740000D03*
%TO.P,,82*%
X135260000Y-107740000D03*
%TO.P,,83*%
X135260000Y-104940000D03*
%TO.P,,84*%
X135260000Y-106340000D03*
%TO.P,,85*%
X135260000Y-102140000D03*
%TO.P,,86*%
X135260000Y-103540000D03*
%TO.P,,87*%
X135260000Y-100740000D03*
%TO.P,,88*%
X135260000Y-97940000D03*
%TO.P,,89*%
X135260000Y-99340000D03*
%TO.P,,90*%
X135260000Y-96540000D03*
D14*
%TO.P,,91*%
X135760000Y-93740000D03*
D13*
%TO.P,,92*%
X135460000Y-109440000D03*
D11*
%TO.P,,93*%
X137260000Y-107740000D03*
%TO.P,,94*%
X137260000Y-104940000D03*
%TO.P,,95*%
X137260000Y-106340000D03*
%TO.P,,96*%
X137260000Y-102140000D03*
%TO.P,,97*%
X137260000Y-103540000D03*
%TO.P,,98*%
X137260000Y-100740000D03*
%TO.P,,99*%
X137260000Y-97940000D03*
%TO.P,,100*%
X137260000Y-99340000D03*
%TO.P,,101*%
X139260000Y-107740000D03*
%TO.P,,102*%
X139260000Y-104940000D03*
%TO.P,,103*%
X139260000Y-106340000D03*
%TO.P,,104*%
X139260000Y-102140000D03*
%TO.P,,105*%
X139260000Y-103540000D03*
%TO.P,,106*%
X139260000Y-100740000D03*
%TO.P,,107*%
X139260000Y-97940000D03*
%TO.P,,108*%
X139260000Y-99340000D03*
D14*
%TO.P,,109*%
X135760000Y-95140000D03*
D11*
%TO.P,,110*%
X139260000Y-96540000D03*
%TO.P,,111*%
X137260000Y-96540000D03*
D13*
%TO.P,,112*%
X139760000Y-109440000D03*
D11*
%TO.P,,113*%
X141260000Y-107740000D03*
%TO.P,,114*%
X141260000Y-104940000D03*
%TO.P,,115*%
X141260000Y-106340000D03*
%TO.P,,116*%
X141260000Y-102140000D03*
%TO.P,,117*%
X141260000Y-103540000D03*
%TO.P,,118*%
X141260000Y-100740000D03*
%TO.P,,119*%
X141260000Y-97940000D03*
%TO.P,,120*%
X141260000Y-99340000D03*
D15*
%TO.P,,121*%
X140660000Y-95140000D03*
D11*
%TO.P,,122*%
X141260000Y-96540000D03*
D15*
%TO.P,,123*%
X140660000Y-93740000D03*
D11*
%TO.P,,124*%
X143260000Y-107740000D03*
%TO.P,,125*%
X143260000Y-104940000D03*
%TO.P,,126*%
X143260000Y-106340000D03*
%TO.P,,127*%
X143260000Y-102140000D03*
%TO.P,,128*%
X143260000Y-103540000D03*
%TO.P,,129*%
X143260000Y-100740000D03*
%TO.P,,130*%
X143260000Y-97940000D03*
%TO.P,,131*%
X143260000Y-99340000D03*
D16*
%TO.P,,132*%
X143560000Y-95140000D03*
D11*
%TO.P,,133*%
X143260000Y-96540000D03*
D16*
%TO.P,,134*%
X143560000Y-93740000D03*
D13*
%TO.P,,135*%
X144560000Y-109440000D03*
D11*
%TO.P,,136*%
X145260000Y-107740000D03*
%TO.P,,137*%
X145260000Y-104940000D03*
%TO.P,,138*%
X145260000Y-106340000D03*
%TO.P,,139*%
X145260000Y-102140000D03*
%TO.P,,140*%
X145260000Y-103540000D03*
%TO.P,,141*%
X145260000Y-100740000D03*
%TO.P,,142*%
X145260000Y-97940000D03*
%TO.P,,143*%
X145260000Y-99340000D03*
D17*
%TO.P,,144*%
X148360000Y-95140000D03*
D11*
%TO.P,,145*%
X145260000Y-96540000D03*
%TO.P,,146*%
X147260000Y-96540000D03*
%TO.P,,147*%
X147260000Y-107740000D03*
%TO.P,,148*%
X147260000Y-104940000D03*
%TO.P,,149*%
X147260000Y-106340000D03*
%TO.P,,150*%
X147260000Y-102140000D03*
%TO.P,,151*%
X147260000Y-103540000D03*
%TO.P,,152*%
X147260000Y-100740000D03*
%TO.P,,153*%
X147260000Y-97940000D03*
%TO.P,,154*%
X147260000Y-99340000D03*
D13*
%TO.P,,155*%
X148860000Y-109440000D03*
D11*
%TO.P,,156*%
X149260000Y-107740000D03*
%TO.P,,157*%
X149260000Y-104940000D03*
%TO.P,,158*%
X149260000Y-106340000D03*
%TO.P,,159*%
X149260000Y-102140000D03*
%TO.P,,160*%
X149260000Y-103540000D03*
%TO.P,,161*%
X149260000Y-100740000D03*
%TO.P,,162*%
X149260000Y-97940000D03*
%TO.P,,163*%
X149260000Y-99340000D03*
%TO.P,,164*%
X149260000Y-96540000D03*
D17*
%TO.P,,165*%
X148360000Y-93740000D03*
D11*
%TO.P,,166*%
X151260000Y-107740000D03*
%TO.P,,167*%
X151260000Y-106340000D03*
%TO.P,,168*%
X151260000Y-104940000D03*
%TO.P,,169*%
X151260000Y-103540000D03*
%TO.P,,170*%
X151260000Y-102140000D03*
%TO.P,,171*%
X151260000Y-100740000D03*
%TO.P,,172*%
X151260000Y-99340000D03*
%TO.P,,173*%
X151260000Y-97940000D03*
%TO.P,,174*%
X151260000Y-96540000D03*
%TO.P,,175*%
X151260000Y-95140000D03*
%TO.P,,176*%
X151260000Y-93740000D03*
D13*
%TO.P,,177*%
X153160000Y-109440000D03*
D11*
%TO.P,,178*%
X153260000Y-107740000D03*
%TO.P,,179*%
X155260000Y-107740000D03*
%TO.P,,180*%
X157260000Y-107740000D03*
D13*
%TO.P,,181*%
X157460000Y-109440000D03*
D11*
%TO.P,,182*%
X159260000Y-107740000D03*
%TO.P,,183*%
X161260000Y-107740000D03*
D12*
%TO.P,,184*%
X161860000Y-109440000D03*
D11*
%TO.P,,185*%
X163260000Y-107740000D03*
D18*
%TO.P,,186*%
X174964500Y-100890600D03*
%TD*%
M02*
