%TF.GenerationSoftware,KiCad,Pcbnew,(6.0.6)*%
%TF.CreationDate,2022-09-06T16:14:22-05:00*%
%TF.ProjectId,etl_assembly_plate_pcb_v3,65746c5f-6173-4736-956d-626c795f706c,rev?*%
%TF.SameCoordinates,Original*%
%TF.FileFunction,Profile,NP*%
%FSLAX46Y46*%
G04 Gerber Fmt 4.6, Leading zero omitted, Abs format (unit mm)*
G04 Created by KiCad (PCBNEW (6.0.6)) date 2022-09-06 16:14:22*
%MOMM*%
%LPD*%
G01*
G04 APERTURE LIST*
%TA.AperFunction,Profile*%
%ADD10C,0.050000*%
%TD*%
G04 APERTURE END LIST*
D10*
X0Y0D02*
X0Y-114300000D01*
X6900000Y-50150000D02*
X43900000Y-50150000D01*
X43900000Y-64150000D02*
G75*
G03*
X46900000Y-61150000I0J3000000D01*
G01*
X46900000Y-61150000D02*
X46900000Y-53150000D01*
X6900000Y-50150000D02*
G75*
G03*
X3900000Y-53150000I0J-3000000D01*
G01*
X46900000Y-53150000D02*
G75*
G03*
X43900000Y-50150000I-3000000J0D01*
G01*
X156300000Y-61150000D02*
X156300000Y-53150000D01*
X148500000Y-61150000D02*
X148500000Y-53150000D01*
X199300000Y-61150000D02*
X199300000Y-53150000D01*
X108500000Y-64150000D02*
X145500000Y-64150000D01*
X6900000Y-64150000D02*
X43900000Y-64150000D01*
X159300000Y-50150000D02*
X196300000Y-50150000D01*
X159300000Y-64150000D02*
X196300000Y-64150000D01*
X105500000Y-61150000D02*
G75*
G03*
X108500000Y-64150000I3000000J0D01*
G01*
X3900000Y-61150000D02*
G75*
G03*
X6900000Y-64150000I3000000J0D01*
G01*
X97700000Y-61150000D02*
X97700000Y-53150000D01*
X54700000Y-61150000D02*
X54700000Y-53150000D01*
X0Y-114300000D02*
X203200000Y-114300000D01*
X108500000Y-50150000D02*
X145500000Y-50150000D01*
X148500000Y-53150000D02*
G75*
G03*
X145500000Y-50150000I-3000000J0D01*
G01*
X57700000Y-50150000D02*
G75*
G03*
X54700000Y-53150000I0J-3000000D01*
G01*
X108500000Y-50150000D02*
G75*
G03*
X105500000Y-53150000I0J-3000000D01*
G01*
X159300000Y-50150000D02*
G75*
G03*
X156300000Y-53150000I0J-3000000D01*
G01*
X156300000Y-61150000D02*
G75*
G03*
X159300000Y-64150000I3000000J0D01*
G01*
X57700000Y-50150000D02*
X94700000Y-50150000D01*
X203200000Y0D02*
X203200000Y-114300000D01*
X3900000Y-61150000D02*
X3900000Y-53150000D01*
X199300000Y-53150000D02*
G75*
G03*
X196300000Y-50150000I-3000000J0D01*
G01*
X97700000Y-53150000D02*
G75*
G03*
X94700000Y-50150000I-3000000J0D01*
G01*
X57700000Y-64150000D02*
X94700000Y-64150000D01*
X54700000Y-61150000D02*
G75*
G03*
X57700000Y-64150000I3000000J0D01*
G01*
X0Y0D02*
X203200000Y0D01*
X94700000Y-64150000D02*
G75*
G03*
X97700000Y-61150000I0J3000000D01*
G01*
X145500000Y-64150000D02*
G75*
G03*
X148500000Y-61150000I0J3000000D01*
G01*
X105500000Y-61150000D02*
X105500000Y-53150000D01*
X196300000Y-64150000D02*
G75*
G03*
X199300000Y-61150000I0J3000000D01*
G01*
M02*
