M48
; DRILL file {KiCad (6.0.6)} date Tue Sep  6 16:14:30 2022
; FORMAT={-:-/ absolute / inch / decimal}
; #@! TF.CreationDate,2022-09-06T16:14:30-05:00
; #@! TF.GenerationSoftware,Kicad,Pcbnew,(6.0.6)
; #@! TF.FileFunction,NonPlated,1,2,NPTH
FMAT,2
INCH
; #@! TA.AperFunction,NonPlated,NPTH,ComponentDrill
T1C0.0630
; #@! TA.AperFunction,NonPlated,NPTH,ComponentDrill
T2C0.1063
%
G90
G05
T1
X0.1575Y-4.3425
X0.5394Y-0.1575
X0.685Y-1.7868
X0.685Y-2.7132
X1.315Y-1.7868
X1.315Y-2.7132
X2.685Y-1.7868
X2.685Y-2.7132
X3.315Y-1.7868
X3.315Y-2.7132
X4.685Y-1.7868
X4.685Y-2.7132
X5.315Y-1.7868
X5.315Y-2.7132
X6.685Y-1.7868
X6.685Y-2.7132
X7.315Y-1.7868
X7.315Y-2.7132
X7.8425Y-0.1575
X7.8425Y-4.3425
T2
X0.2894Y-1.2362
X0.2894Y-3.2638
X1.7106Y-1.2362
X1.7106Y-3.2638
X2.2894Y-1.2362
X2.2894Y-3.2638
X3.7106Y-1.2362
X3.7106Y-3.2638
X4.2894Y-1.2362
X4.2894Y-3.2638
X5.7106Y-1.2362
X5.7106Y-3.2638
X6.2894Y-1.2362
X6.2894Y-3.2638
X7.7106Y-1.2362
X7.7106Y-3.2638
T0
M30
