%TF.GenerationSoftware,KiCad,Pcbnew,7.0.6*%
%TF.CreationDate,2023-08-28T17:19:07-05:00*%
%TF.ProjectId,TFPX_croc_stencil_1x2,54465058-5f63-4726-9f63-5f7374656e63,rev?*%
%TF.SameCoordinates,Original*%
%TF.FileFunction,Paste,Top*%
%TF.FilePolarity,Positive*%
%FSLAX46Y46*%
G04 Gerber Fmt 4.6, Leading zero omitted, Abs format (unit mm)*
G04 Created by KiCad (PCBNEW 7.0.6) date 2023-08-28 17:19:07*
%MOMM*%
%LPD*%
G01*
G04 APERTURE LIST*
G04 Aperture macros list*
%AMRoundRect*
0 Rectangle with rounded corners*
0 $1 Rounding radius*
0 $2 $3 $4 $5 $6 $7 $8 $9 X,Y pos of 4 corners*
0 Add a 4 corners polygon primitive as box body*
4,1,4,$2,$3,$4,$5,$6,$7,$8,$9,$2,$3,0*
0 Add four circle primitives for the rounded corners*
1,1,$1+$1,$2,$3*
1,1,$1+$1,$4,$5*
1,1,$1+$1,$6,$7*
1,1,$1+$1,$8,$9*
0 Add four rect primitives between the rounded corners*
20,1,$1+$1,$2,$3,$4,$5,0*
20,1,$1+$1,$4,$5,$6,$7,0*
20,1,$1+$1,$6,$7,$8,$9,0*
20,1,$1+$1,$8,$9,$2,$3,0*%
G04 Aperture macros list end*
%ADD10C,6.360000*%
%ADD11R,1.000000X0.500000*%
%ADD12R,5.000000X0.500000*%
%ADD13R,4.000000X0.500000*%
%ADD14R,2.000000X0.500000*%
%ADD15R,2.200000X0.500000*%
%ADD16R,1.600000X0.500000*%
%ADD17R,2.800000X0.500000*%
%ADD18RoundRect,2.862000X-0.818000X-0.318000X0.818000X-0.318000X0.818000X0.318000X-0.818000X0.318000X0*%
G04 APERTURE END LIST*
D10*
%TO.C,*%
X109964500Y-100890600D03*
D11*
X121260000Y-107740000D03*
X121260000Y-104940000D03*
X121260000Y-106340000D03*
X121260000Y-102140000D03*
X121260000Y-103540000D03*
X121260000Y-100740000D03*
X121260000Y-97940000D03*
X121260000Y-99340000D03*
X121260000Y-95140000D03*
X121260000Y-96540000D03*
X121260000Y-93740000D03*
D12*
X122060000Y-109440000D03*
D11*
X123260000Y-107740000D03*
X123260000Y-104940000D03*
X123260000Y-106340000D03*
X123260000Y-102140000D03*
X123260000Y-103540000D03*
X123260000Y-100740000D03*
X123260000Y-97940000D03*
X123260000Y-99340000D03*
X123260000Y-95140000D03*
X123260000Y-96540000D03*
X123260000Y-93740000D03*
X125260000Y-107740000D03*
X125260000Y-104940000D03*
X125260000Y-106340000D03*
X125260000Y-102140000D03*
X125260000Y-103540000D03*
X125260000Y-100740000D03*
X125260000Y-97940000D03*
X125260000Y-99340000D03*
X125260000Y-95140000D03*
X125260000Y-96540000D03*
X125260000Y-93740000D03*
D13*
X126860000Y-109440000D03*
D11*
X127260000Y-107740000D03*
X127260000Y-104940000D03*
X127260000Y-106340000D03*
X127260000Y-102140000D03*
X127260000Y-103540000D03*
X127260000Y-100740000D03*
X127260000Y-97940000D03*
X127260000Y-99340000D03*
X127260000Y-95140000D03*
X127260000Y-96540000D03*
X127260000Y-93740000D03*
X129260000Y-107740000D03*
X129260000Y-104940000D03*
X129260000Y-106340000D03*
X129260000Y-102140000D03*
X129260000Y-103540000D03*
X129260000Y-100740000D03*
X129260000Y-97940000D03*
X129260000Y-99340000D03*
X129260000Y-95140000D03*
X129260000Y-96540000D03*
X129260000Y-93740000D03*
D13*
X131160000Y-109440000D03*
D11*
X131260000Y-107740000D03*
X131260000Y-104940000D03*
X131260000Y-106340000D03*
X131260000Y-102140000D03*
X131260000Y-103540000D03*
X131260000Y-100740000D03*
X131260000Y-97940000D03*
X131260000Y-99340000D03*
X131260000Y-95140000D03*
X131260000Y-96540000D03*
X131260000Y-93740000D03*
X133260000Y-107740000D03*
X133260000Y-104940000D03*
X133260000Y-106340000D03*
X133260000Y-102140000D03*
X133260000Y-103540000D03*
X133260000Y-100740000D03*
X133260000Y-97940000D03*
X133260000Y-99340000D03*
X133260000Y-95140000D03*
X133260000Y-96540000D03*
X133260000Y-93740000D03*
X135260000Y-107740000D03*
X135260000Y-104940000D03*
X135260000Y-106340000D03*
X135260000Y-102140000D03*
X135260000Y-103540000D03*
X135260000Y-100740000D03*
X135260000Y-97940000D03*
X135260000Y-99340000D03*
X135260000Y-96540000D03*
D14*
X135760000Y-93740000D03*
D13*
X135460000Y-109440000D03*
D11*
X137260000Y-107740000D03*
X137260000Y-104940000D03*
X137260000Y-106340000D03*
X137260000Y-102140000D03*
X137260000Y-103540000D03*
X137260000Y-100740000D03*
X137260000Y-97940000D03*
X137260000Y-99340000D03*
X139260000Y-107740000D03*
X139260000Y-104940000D03*
X139260000Y-106340000D03*
X139260000Y-102140000D03*
X139260000Y-103540000D03*
X139260000Y-100740000D03*
X139260000Y-97940000D03*
X139260000Y-99340000D03*
D14*
X135760000Y-95140000D03*
D11*
X139260000Y-96540000D03*
X137260000Y-96540000D03*
D13*
X139760000Y-109440000D03*
D11*
X141260000Y-107740000D03*
X141260000Y-104940000D03*
X141260000Y-106340000D03*
X141260000Y-102140000D03*
X141260000Y-103540000D03*
X141260000Y-100740000D03*
X141260000Y-97940000D03*
X141260000Y-99340000D03*
D15*
X140660000Y-95140000D03*
D11*
X141260000Y-96540000D03*
D15*
X140660000Y-93740000D03*
D11*
X143260000Y-107740000D03*
X143260000Y-104940000D03*
X143260000Y-106340000D03*
X143260000Y-102140000D03*
X143260000Y-103540000D03*
X143260000Y-100740000D03*
X143260000Y-97940000D03*
X143260000Y-99340000D03*
D16*
X143560000Y-95140000D03*
D11*
X143260000Y-96540000D03*
D16*
X143560000Y-93740000D03*
D13*
X144560000Y-109440000D03*
D11*
X145260000Y-107740000D03*
X145260000Y-104940000D03*
X145260000Y-106340000D03*
X145260000Y-102140000D03*
X145260000Y-103540000D03*
X145260000Y-100740000D03*
X145260000Y-97940000D03*
X145260000Y-99340000D03*
D17*
X148360000Y-95140000D03*
D11*
X145260000Y-96540000D03*
X147260000Y-96540000D03*
X147260000Y-107740000D03*
X147260000Y-104940000D03*
X147260000Y-106340000D03*
X147260000Y-102140000D03*
X147260000Y-103540000D03*
X147260000Y-100740000D03*
X147260000Y-97940000D03*
X147260000Y-99340000D03*
D13*
X148860000Y-109440000D03*
D11*
X149260000Y-107740000D03*
X149260000Y-104940000D03*
X149260000Y-106340000D03*
X149260000Y-102140000D03*
X149260000Y-103540000D03*
X149260000Y-100740000D03*
X149260000Y-97940000D03*
X149260000Y-99340000D03*
X149260000Y-96540000D03*
D17*
X148360000Y-93740000D03*
D11*
X151260000Y-107740000D03*
X151260000Y-106340000D03*
X151260000Y-104940000D03*
X151260000Y-103540000D03*
X151260000Y-102140000D03*
X151260000Y-100740000D03*
X151260000Y-99340000D03*
X151260000Y-97940000D03*
X151260000Y-96540000D03*
X151260000Y-95140000D03*
X151260000Y-93740000D03*
D13*
X153160000Y-109440000D03*
D11*
X153260000Y-107740000D03*
X155260000Y-107740000D03*
X157260000Y-107740000D03*
D13*
X157460000Y-109440000D03*
D11*
X159260000Y-107740000D03*
X161260000Y-107740000D03*
D12*
X162260000Y-109440000D03*
D11*
X163260000Y-107740000D03*
D18*
X174964500Y-100890600D03*
%TD*%
M02*
