%TF.GenerationSoftware,KiCad,Pcbnew,(5.1.10)-1*%
%TF.CreationDate,2021-05-10T16:51:06-05:00*%
%TF.ProjectId,TFPX_stencil_UNL,54465058-5f73-4746-956e-63696c5f554e,rev?*%
%TF.SameCoordinates,Original*%
%TF.FileFunction,Paste,Top*%
%TF.FilePolarity,Positive*%
%FSLAX46Y46*%
G04 Gerber Fmt 4.6, Leading zero omitted, Abs format (unit mm)*
G04 Created by KiCad (PCBNEW (5.1.10)-1) date 2021-05-10 16:51:06*
%MOMM*%
%LPD*%
G01*
G04 APERTURE LIST*
%ADD10C,6.320000*%
%ADD11R,42.200000X0.500000*%
%ADD12R,1.000000X0.500000*%
G04 APERTURE END LIST*
%TO.C,REF\u002A\u002A*%
G36*
G01*
X161810000Y-87282000D02*
X161810000Y-86018000D01*
G75*
G02*
X164338000Y-83490000I2528000J0D01*
G01*
X166602000Y-83490000D01*
G75*
G02*
X169130000Y-86018000I0J-2528000D01*
G01*
X169130000Y-87282000D01*
G75*
G02*
X166602000Y-89810000I-2528000J0D01*
G01*
X164338000Y-89810000D01*
G75*
G02*
X161810000Y-87282000I0J2528000D01*
G01*
G37*
D10*
X100470000Y-86650000D03*
D11*
X132560000Y-94560000D03*
D12*
X153760000Y-92240000D03*
X151760000Y-92240000D03*
X149760000Y-92240000D03*
X147760000Y-92240000D03*
X145760000Y-92240000D03*
X143760000Y-92240000D03*
X141760000Y-92240000D03*
X139760000Y-92240000D03*
X137760000Y-92240000D03*
X135760000Y-92240000D03*
X133760000Y-92240000D03*
X131760000Y-92240000D03*
X129760000Y-92240000D03*
X127760000Y-92240000D03*
X125760000Y-92240000D03*
X123760000Y-92240000D03*
X121760000Y-92240000D03*
X119760000Y-92240000D03*
X117760000Y-92240000D03*
X115760000Y-92240000D03*
X113760000Y-92240000D03*
X111760000Y-92240000D03*
X153760000Y-90740000D03*
X151760000Y-90740000D03*
X149760000Y-90740000D03*
X147760000Y-90740000D03*
X145760000Y-90740000D03*
X143760000Y-90740000D03*
X141760000Y-90740000D03*
X139760000Y-90740000D03*
X137760000Y-90740000D03*
X135760000Y-90740000D03*
X133760000Y-90740000D03*
X131760000Y-90740000D03*
X129760000Y-90740000D03*
X127760000Y-90740000D03*
X125760000Y-90740000D03*
X123760000Y-90740000D03*
X121760000Y-90740000D03*
X119760000Y-90740000D03*
X117760000Y-90740000D03*
X115760000Y-90740000D03*
X113760000Y-90740000D03*
X111760000Y-90740000D03*
X153760000Y-89240000D03*
X151760000Y-89240000D03*
X149760000Y-89240000D03*
X147760000Y-89240000D03*
X145760000Y-89240000D03*
X143760000Y-89240000D03*
X141760000Y-89240000D03*
X139760000Y-89240000D03*
X137760000Y-89240000D03*
X135760000Y-89240000D03*
X133760000Y-89240000D03*
X131760000Y-89240000D03*
X129760000Y-89240000D03*
X127760000Y-89240000D03*
X125760000Y-89240000D03*
X123760000Y-89240000D03*
X121760000Y-89240000D03*
X119760000Y-89240000D03*
X117760000Y-89240000D03*
X115760000Y-89240000D03*
X113760000Y-89240000D03*
X111760000Y-89240000D03*
X153760000Y-87740000D03*
X151760000Y-87740000D03*
X149760000Y-87740000D03*
X147760000Y-87740000D03*
X145760000Y-87740000D03*
X143760000Y-87740000D03*
X141760000Y-87740000D03*
X139760000Y-87740000D03*
X137760000Y-87740000D03*
X135760000Y-87740000D03*
X133760000Y-87740000D03*
X131760000Y-87740000D03*
X129760000Y-87740000D03*
X127760000Y-87740000D03*
X125760000Y-87740000D03*
X123760000Y-87740000D03*
X121760000Y-87740000D03*
X119760000Y-87740000D03*
X117760000Y-87740000D03*
X115760000Y-87740000D03*
X113760000Y-87740000D03*
X111760000Y-87740000D03*
X153760000Y-86240000D03*
X151760000Y-86240000D03*
X149760000Y-86240000D03*
X147760000Y-86240000D03*
X145760000Y-86240000D03*
X143760000Y-86240000D03*
X141760000Y-86240000D03*
X139760000Y-86240000D03*
X137760000Y-86240000D03*
X135760000Y-86240000D03*
X133760000Y-86240000D03*
X131760000Y-86240000D03*
X129760000Y-86240000D03*
X127760000Y-86240000D03*
X125760000Y-86240000D03*
X123760000Y-86240000D03*
X121760000Y-86240000D03*
X119760000Y-86240000D03*
X117760000Y-86240000D03*
X115760000Y-86240000D03*
X113760000Y-86240000D03*
X111760000Y-86240000D03*
X153760000Y-84740000D03*
X151760000Y-84740000D03*
X149760000Y-84740000D03*
X147760000Y-84740000D03*
X145760000Y-84740000D03*
X143760000Y-84740000D03*
X141760000Y-84740000D03*
X139760000Y-84740000D03*
X137760000Y-84740000D03*
X135760000Y-84740000D03*
X133760000Y-84740000D03*
X131760000Y-84740000D03*
X129760000Y-84740000D03*
X127760000Y-84740000D03*
X125760000Y-84740000D03*
X123760000Y-84740000D03*
X121760000Y-84740000D03*
X119760000Y-84740000D03*
X117760000Y-84740000D03*
X115760000Y-84740000D03*
X113760000Y-84740000D03*
X111760000Y-84740000D03*
X153760000Y-83240000D03*
X151760000Y-83240000D03*
X149760000Y-83240000D03*
X147760000Y-83240000D03*
X145760000Y-83240000D03*
X143760000Y-83240000D03*
X141760000Y-83240000D03*
X139760000Y-83240000D03*
X137760000Y-83240000D03*
X135760000Y-83240000D03*
X133760000Y-83240000D03*
X131760000Y-83240000D03*
X129760000Y-83240000D03*
X127760000Y-83240000D03*
X125760000Y-83240000D03*
X123760000Y-83240000D03*
X121760000Y-83240000D03*
X119760000Y-83240000D03*
X117760000Y-83240000D03*
X115760000Y-83240000D03*
X113760000Y-83240000D03*
X111760000Y-83240000D03*
X153760000Y-81740000D03*
X151760000Y-81740000D03*
X149760000Y-81740000D03*
X147760000Y-81740000D03*
X145760000Y-81740000D03*
X143760000Y-81740000D03*
X141760000Y-81740000D03*
X139760000Y-81740000D03*
X137760000Y-81740000D03*
X135760000Y-81740000D03*
X133760000Y-81740000D03*
X131760000Y-81740000D03*
X129760000Y-81740000D03*
X127760000Y-81740000D03*
X125760000Y-81740000D03*
X123760000Y-81740000D03*
X121760000Y-81740000D03*
X119760000Y-81740000D03*
X117760000Y-81740000D03*
X115760000Y-81740000D03*
X113760000Y-81740000D03*
X111760000Y-81740000D03*
X153760000Y-80240000D03*
X151760000Y-80240000D03*
X149760000Y-80240000D03*
X147760000Y-80240000D03*
X145760000Y-80240000D03*
X143760000Y-80240000D03*
X141760000Y-80240000D03*
X139760000Y-80240000D03*
X137760000Y-80240000D03*
X135760000Y-80240000D03*
X133760000Y-80240000D03*
X131760000Y-80240000D03*
X129760000Y-80240000D03*
X127760000Y-80240000D03*
X125760000Y-80240000D03*
X123760000Y-80240000D03*
X121760000Y-80240000D03*
X119760000Y-80240000D03*
X117760000Y-80240000D03*
X115760000Y-80240000D03*
X113760000Y-80240000D03*
X111760000Y-80240000D03*
X153760000Y-78740000D03*
X151760000Y-78740000D03*
X149760000Y-78740000D03*
X147760000Y-78740000D03*
X145760000Y-78740000D03*
X143760000Y-78740000D03*
X141760000Y-78740000D03*
X139760000Y-78740000D03*
X137760000Y-78740000D03*
X135760000Y-78740000D03*
X133760000Y-78740000D03*
X131760000Y-78740000D03*
X129760000Y-78740000D03*
X127760000Y-78740000D03*
X125760000Y-78740000D03*
X123760000Y-78740000D03*
X121760000Y-78740000D03*
X119760000Y-78740000D03*
X117760000Y-78740000D03*
X115760000Y-78740000D03*
X113760000Y-78740000D03*
X111760000Y-78740000D03*
%TD*%
M02*
