G04 CAM350/DFMSTREAM V12.2 (Build 1155) Date:  Thu Aug 08 15:54:00 2019 *
G04 Database: C:\Users\ptome\Documents\Data - Open Quotes\PURDUE UNIVERSITY\CPC_MOCKUP_HDI_1X2_V2 REV 2.00\CPC_MOCKUP_HDI_1X2_V2 REV 2.00.cam *
G04 Layer 7: L3 *
%FSLAX44Y44*%
%MOIN*%
%SFA1.000B1.000*%

%MIA0B0*%
%IPPOS*%
%ADD10C,0.03937*%
%ADD21C,0.01800*%
%ADD23C,0.00500*%
%LNL3*%
%LPD*%
G36*
X7992Y98D02*
G01Y728D01*
X8228Y965*
Y6043*
X7992Y6280*
Y6890*
X25256*
Y6299*
X25000Y6043*
Y945*
X25256Y689*
Y98*
X7992*
G37*
%LPC*%
G36*
X9198Y706D02*
G75*
G03X9373Y717I82J101D01*
X9409Y807I-93J90*
X9377Y892I-129J0*
G02X9372Y906I15J13*
X9377Y919I20J0*
G03X9387Y932I-97J85*
X9409Y1004I-107J72*
X9361Y1105I-129J0*
X9186Y1094I-82J-101*
X9150Y1004I93J-90*
X9182Y919I129J0*
G02X9187Y906I-15J-13*
X9182Y892I-20J-1*
G03X9172Y879I97J-85*
X9150Y807I107J-72*
X9198Y706I129J0*
G37*
G36*
X9592D02*
G03X9767Y717I82J101D01*
X9803Y807I-93J90*
X9771Y892I-129J0*
G02X9766Y906I15J13*
X9771Y919I20J0*
G03X9781Y932I-97J85*
X9803Y1004I-107J72*
X9754Y1105I-129J0*
X9580Y1094I-81J-101*
X9544Y1004I93J-90*
X9576Y919I129J0*
G02X9581Y906I-15J-13*
X9576Y892I-20J-1*
G03X9566Y879I97J-85*
X9544Y807I107J-72*
X9592Y706I129J0*
G37*
G36*
X11009D02*
G03X11184Y717I82J101D01*
X11220Y807I-93J90*
X11188Y892I-129J0*
G02X11183Y906I15J13*
X11188Y919I20J0*
G03X11198Y932I-97J85*
X11220Y1004I-107J72*
X11172Y1105I-129J0*
X10997Y1094I-82J-101*
X10961Y1004I93J-90*
X10993Y919I129J0*
G02X10998Y906I-15J-13*
X10993Y892I-20J-1*
G03X10983Y879I97J-85*
X10961Y807I107J-72*
X11009Y706I129J0*
G37*
G36*
X11403D02*
G03X11578Y717I82J101D01*
X11614Y807I-93J90*
X11582Y892I-129J0*
G02X11577Y906I15J13*
X11582Y919I20J0*
G03X11592Y932I-97J85*
X11614Y1004I-107J72*
X11565Y1105I-129J0*
X11391Y1094I-81J-101*
X11355Y1004I93J-90*
X11387Y919I129J0*
G02X11392Y906I-15J-13*
X11387Y892I-20J-1*
G03X11377Y879I97J-85*
X11355Y807I107J-72*
X11403Y706I129J0*
G37*
G36*
X13057D02*
G03X13231Y717I81J101D01*
X13267Y807I-93J90*
X13235Y892I-129J0*
G02X13230Y906I15J13*
X13235Y919I20J0*
G03X13245Y932I-97J85*
X13267Y1004I-107J72*
X13219Y1105I-129J0*
X13044Y1094I-82J-101*
X13008Y1004I93J-90*
X13040Y919I129J0*
G02X13045Y906I-15J-13*
X13040Y892I-20J-1*
G03X13030Y879I97J-85*
X13008Y807I107J-72*
X13057Y706I129J0*
G37*
G36*
X13450D02*
G03X13625Y717I82J101D01*
X13661Y807I-93J90*
X13629Y892I-129J0*
G02X13624Y906I15J13*
X13629Y919I20J0*
G03X13639Y932I-97J85*
X13661Y1004I-107J72*
X13613Y1105I-129J0*
X13438Y1094I-82J-101*
X13402Y1004I93J-90*
X13434Y919I129J0*
G02X13439Y906I-15J-13*
X13434Y892I-20J-1*
G03X13424Y879I97J-85*
X13402Y807I107J-72*
X13450Y706I129J0*
G37*
G36*
X14789D02*
G03X14963Y717I81J101D01*
X15000Y807I-92J91*
X14967Y892I-129J-1*
G02X14963Y906I16J12*
X14967Y919I20J1*
G03X14978Y932I-93J90*
X15000Y1004I-107J72*
X14951Y1105I-129J0*
X14777Y1094I-81J-101*
X14741Y1004I93J-90*
X14773Y919I129J0*
G02X14778Y906I-15J-13*
X14773Y892I-20J-1*
G03X14763Y879I97J-85*
X14741Y807I107J-72*
X14789Y706I129J0*
G37*
G36*
X15183D02*
G03X15357Y717I81J101D01*
X15393Y807I-93J90*
X15361Y892I-129J0*
G02X15356Y906I15J13*
X15361Y919I20J0*
G03X15371Y932I-97J85*
X15393Y1004I-107J72*
X15345Y1105I-129J0*
X15170Y1094I-82J-101*
X15134Y1004I93J-90*
X15166Y919I129J0*
G02X15171Y906I-15J-13*
X15166Y892I-20J-1*
G03X15156Y879I97J-85*
X15134Y807I107J-72*
X15183Y706I129J0*
G37*
G36*
X17801D02*
G03X17975Y717I81J101D01*
X18011Y807I-93J90*
X17979Y892I-129J0*
G02X17974Y906I15J13*
X17979Y919I20J0*
G03X17989Y932I-97J85*
X18011Y1004I-107J72*
X17963Y1105I-129J0*
X17788Y1094I-82J-101*
X17752Y1004I93J-90*
X17784Y919I129J0*
G02X17789Y906I-15J-13*
X17784Y892I-20J-1*
G03X17774Y879I97J-85*
X17752Y807I107J-72*
X17801Y706I129J0*
G37*
G36*
X18194D02*
G03X18369Y717I82J101D01*
X18405Y807I-93J90*
X18373Y892I-129J0*
G02X18368Y906I15J13*
X18373Y919I20J0*
G03X18383Y932I-97J85*
X18405Y1004I-107J72*
X18357Y1105I-129J0*
X18182Y1094I-82J-101*
X18146Y1004I93J-90*
X18178Y919I129J0*
G02X18183Y906I-15J-13*
X18178Y892I-20J-1*
G03X18168Y879I97J-85*
X18146Y807I107J-72*
X18194Y706I129J0*
G37*
G36*
X19612D02*
G03X19786Y717I81J101D01*
X19822Y807I-93J90*
X19790Y892I-129J0*
G02X19785Y906I15J13*
X19790Y919I20J0*
G03X19800Y932I-97J85*
X19822Y1004I-107J72*
X19774Y1105I-129J0*
X19600Y1094I-81J-101*
X19563Y1004I92J-91*
X19596Y919I129J1*
G02X19600Y906I-16J-12*
X19596Y892I-20J-2*
G03X19585Y879I93J-90*
X19563Y807I107J-72*
X19612Y706I129J0*
G37*
G36*
X20005D02*
G03X20180Y717I82J101D01*
X20216Y807I-93J90*
X20184Y892I-129J0*
G02X20179Y906I15J13*
X20184Y919I20J0*
G03X20194Y932I-97J85*
X20216Y1004I-107J72*
X20168Y1105I-129J0*
X19993Y1094I-82J-101*
X19957Y1004I93J-90*
X19989Y919I129J0*
G02X19994Y906I-15J-13*
X19989Y892I-20J-1*
G03X19979Y879I97J-85*
X19957Y807I107J-72*
X20005Y706I129J0*
G37*
G36*
X21659D02*
G03X21834Y717I82J101D01*
X21870Y807I-93J90*
X21838Y892I-129J0*
G02X21833Y906I15J13*
X21838Y919I20J0*
G03X21848Y932I-97J85*
X21870Y1004I-107J72*
X21821Y1105I-129J0*
X21647Y1094I-81J-101*
X21611Y1004I93J-90*
X21643Y919I129J0*
G02X21648Y906I-15J-13*
X21643Y892I-20J-1*
G03X21633Y879I97J-85*
X21611Y807I107J-72*
X21659Y706I129J0*
G37*
G36*
X22053D02*
G03X22227Y717I81J101D01*
X22263Y807I-93J90*
X22231Y892I-129J0*
G02X22226Y906I15J13*
X22231Y919I20J0*
G03X22241Y932I-97J85*
X22263Y1004I-107J72*
X22215Y1105I-129J0*
X22040Y1094I-82J-101*
X22004Y1004I93J-90*
X22036Y919I129J0*
G02X22041Y906I-15J-13*
X22036Y892I-20J-1*
G03X22026Y879I97J-85*
X22004Y807I107J-72*
X22053Y706I129J0*
G37*
G36*
X23391D02*
G03X23566Y717I82J101D01*
X23602Y807I-93J90*
X23570Y892I-129J0*
G02X23565Y906I15J13*
X23570Y919I20J0*
G03X23580Y932I-97J85*
X23602Y1004I-107J72*
X23554Y1105I-129J0*
X23379Y1094I-82J-101*
X23343Y1004I93J-90*
X23375Y919I129J0*
G02X23380Y906I-15J-13*
X23375Y892I-20J-1*
G03X23365Y879I97J-85*
X23343Y807I107J-72*
X23391Y706I129J0*
G37*
G36*
X23785D02*
G03X23960Y717I82J101D01*
X23996Y807I-93J90*
X23964Y892I-129J0*
G02X23959Y906I15J13*
X23964Y919I20J0*
G03X23974Y932I-97J85*
X23996Y1004I-107J72*
X23947Y1105I-129J0*
X23773Y1094I-81J-101*
X23737Y1004I93J-90*
X23769Y919I129J0*
G02X23774Y906I-15J-13*
X23769Y892I-20J-1*
G03X23759Y879I97J-85*
X23737Y807I107J-72*
X23785Y706I129J0*
G37*
G36*
X8807Y5183D02*
G03X9010Y5212I90J93D01*
G02X9080I35J-19*
G03X9306I113J63*
G02X9375I35J-20*
G03X9581Y5185I113J63*
X9618Y5276I-92J91*
X9552Y5388I-129J-1*
G02X9531Y5423I19J35*
X9552Y5458I40J0*
G03X9618Y5571I-63J113*
X9552Y5684I-129J0*
G02X9531Y5719I19J35*
X9552Y5753I40J-1*
G03X9618Y5866I-63J113*
X9552Y5979I-129J0*
G02X9531Y6014I19J35*
X9552Y6049I40J0*
G03X9618Y6161I-63J113*
X9579Y6254I-129J0*
X9375Y6225I-91J-92*
G02X9306I-34J20*
G03X9080I-113J-63*
G02X9010I-35J19*
G03X8805Y6252I-113J-64*
X8768Y6161I92J-91*
X8834Y6049I129J1*
G02X8854Y6014I-20J-35*
X8834Y5979I-40J0*
G03X8768Y5866I63J-113*
X8834Y5753I129J0*
G02X8854Y5719I-20J-35*
X8834Y5684I-40J0*
G03X8768Y5571I63J-113*
X8834Y5458I129J0*
G02X8854Y5423I-20J-35*
X8834Y5388I-40J0*
G03X8768Y5276I63J-113*
X8807Y5183I129J0*
G37*
%LPD*%
G36*
X8941Y5719D02*
G02X8961Y5753I40J-1D01*
G03X9010Y5803I-65J112*
G02X9080I35J-19*
G03X9129Y5753I114J62*
G02X9150Y5719I-19J-35*
X9129Y5684I-40J0*
G03X9080Y5634I65J-112*
G02X9010I-35J19*
G03X8961Y5684I-114J-62*
G02X8941Y5719I20J35*
G37*
G36*
Y6014D02*
G02X8961Y6049I40J0D01*
G03X9010Y6098I-64J113*
G02X9080I35J-19*
G03X9129Y6049I113J64*
G02X9150Y6014I-19J-35*
X9129Y5979I-40J0*
G03X9080Y5930I64J-113*
G02X9010I-35J19*
G03X8961Y5979I-113J-64*
G02X8941Y6014I20J35*
G37*
G36*
X9236Y5423D02*
G02X9256Y5458I40J0D01*
G03X9306Y5507I-62J114*
G02X9375I35J-20*
G03X9425Y5458I112J65*
G02X9445Y5423I-20J-35*
X9425Y5388I-40J0*
G03X9375Y5339I62J-114*
G02X9306I-34J20*
G03X9256Y5388I-112J-65*
G02X9236Y5423I20J35*
G37*
G36*
Y5719D02*
G02X9256Y5753I40J-1D01*
G03X9306Y5803I-63J113*
G02X9375I35J-20*
G03X9425Y5753I113J63*
G02X9445Y5719I-20J-35*
X9425Y5684I-40J0*
G03X9375Y5634I63J-113*
G02X9306I-34J20*
G03X9256Y5684I-113J-63*
G02X9236Y5719I20J35*
G37*
G36*
Y6014D02*
G02X9256Y6049I40J0D01*
G03X9306Y6098I-62J114*
G02X9375I35J-20*
G03X9425Y6049I112J65*
G02X9445Y6014I-20J-35*
X9425Y5979I-40J0*
G03X9375Y5930I62J-114*
G02X9306I-34J20*
G03X9256Y5979I-112J-65*
G02X9236Y6014I20J35*
G37*
G36*
X8941Y5423D02*
G02X8961Y5458I40J0D01*
G03X9010Y5507I-64J113*
G02X9080I35J-19*
G03X9129Y5458I113J64*
G02X9150Y5423I-19J-35*
X9129Y5388I-40J0*
G03X9080Y5339I64J-113*
G02X9010I-35J19*
G03X8961Y5388I-113J-64*
G02X8941Y5423I20J35*
G37*
G54D10*
X1841Y1575D03*
X31368D03*
G54D21*
X9016Y807D03*
Y1398D03*
X9280Y1004D03*
Y807D03*
X9449Y3760D03*
X9488Y5571D03*
X9193D03*
X8898D03*
X9488Y5276D03*
X9193D03*
X8898D03*
X9193Y5866D03*
Y6161D03*
X9488D03*
X8898D03*
Y5866D03*
X9488D03*
X10827Y807D03*
Y1398D03*
X9961D03*
Y807D03*
X9673Y1004D03*
Y807D03*
X11772Y1398D03*
Y807D03*
X11091Y1004D03*
X11484D03*
Y807D03*
X11091D03*
X12874D03*
Y1398D03*
X13138Y1004D03*
X13531D03*
Y807D03*
X13138D03*
X14606D03*
Y1398D03*
X13819Y807D03*
Y1398D03*
X14870Y1004D03*
Y807D03*
X15551D03*
Y1398D03*
X15264Y1004D03*
Y807D03*
X16142Y3760D03*
X15531Y5276D03*
Y5571D03*
X15236D03*
X14941D03*
X15236Y5276D03*
X14941D03*
X15531Y5866D03*
Y6161D03*
X15236D03*
X14941D03*
Y5866D03*
X15236D03*
X17618Y807D03*
Y1398D03*
X18563D03*
Y807D03*
X17882D03*
X18276D03*
Y1004D03*
X17882D03*
X18110Y3760D03*
X19429Y807D03*
Y1398D03*
X19693Y807D03*
X20087D03*
Y1004D03*
X19693D03*
X20374Y1398D03*
Y807D03*
X21476D03*
Y1398D03*
X22421D03*
Y807D03*
X21740D03*
X22134D03*
Y1004D03*
X21740D03*
X23209Y807D03*
X24154D03*
Y1398D03*
X23209D03*
X23472Y1004D03*
Y807D03*
X23866D03*
Y1004D03*
X24803Y3760D03*
G54D23*
X0Y0D02*
G01X7480D01*
Y984*
X7283*
Y1378D02*
G03X7283Y984J-197D01*
Y1378D02*
G01X7894D01*
Y984D02*
G03X7894Y1378I-20J197D01*
Y984D02*
G01X7874D01*
Y0*
X25335*
Y984*
X25315*
Y1378D02*
G03X25315Y984J-197D01*
Y1378D02*
G01X25925D01*
Y984D02*
G03X25925Y1378J197D01*
Y984D02*
G01X25728D01*
Y0*
X33189*
Y6969*
X25728*
Y5984*
X25925*
Y5591D02*
G03X25925Y5984J197D01*
Y5591D02*
G01X25315D01*
Y5984D02*
G03X25315Y5591J-197D01*
Y5984D02*
G01X25335D01*
Y6969*
X7874*
Y5984*
X7894*
Y5591D02*
G03X7894Y5984J197D01*
Y5591D02*
G01X7283D01*
Y5984D02*
G03X7283Y5591J-197D01*
Y5984D02*
G01X7480D01*
Y6969*
X0*
Y0*
X5061Y3484D02*
G03X5061Y3484I-1252D01*
X30652D02*
G03X30652Y3484I-1252D01*
M02*
