%TF.GenerationSoftware,KiCad,Pcbnew,(6.0.6)*%
%TF.CreationDate,2022-09-06T16:34:49-05:00*%
%TF.ProjectId,etl_module_pcb_mockup_v3p3,65746c5f-6d6f-4647-956c-655f7063625f,rev?*%
%TF.SameCoordinates,Original*%
%TF.FileFunction,Soldermask,Top*%
%TF.FilePolarity,Negative*%
%FSLAX46Y46*%
G04 Gerber Fmt 4.6, Leading zero omitted, Abs format (unit mm)*
G04 Created by KiCad (PCBNEW (6.0.6)) date 2022-09-06 16:34:49*
%MOMM*%
%LPD*%
G01*
G04 APERTURE LIST*
G04 Aperture macros list*
%AMRoundRect*
0 Rectangle with rounded corners*
0 $1 Rounding radius*
0 $2 $3 $4 $5 $6 $7 $8 $9 X,Y pos of 4 corners*
0 Add a 4 corners polygon primitive as box body*
4,1,4,$2,$3,$4,$5,$6,$7,$8,$9,$2,$3,0*
0 Add four circle primitives for the rounded corners*
1,1,$1+$1,$2,$3*
1,1,$1+$1,$4,$5*
1,1,$1+$1,$6,$7*
1,1,$1+$1,$8,$9*
0 Add four rect primitives between the rounded corners*
20,1,$1+$1,$2,$3,$4,$5,0*
20,1,$1+$1,$4,$5,$6,$7,0*
20,1,$1+$1,$6,$7,$8,$9,0*
20,1,$1+$1,$8,$9,$2,$3,0*%
G04 Aperture macros list end*
%ADD10C,0.600000*%
%ADD11C,2.200000*%
%ADD12RoundRect,0.125000X-0.482600X-0.127000X0.482600X-0.127000X0.482600X0.127000X-0.482600X0.127000X0*%
%ADD13RoundRect,0.125000X-0.063500X-0.127000X0.063500X-0.127000X0.063500X0.127000X-0.063500X0.127000X0*%
%ADD14RoundRect,0.125000X-0.419100X-0.127000X0.419100X-0.127000X0.419100X0.127000X-0.419100X0.127000X0*%
%ADD15RoundRect,0.125000X-0.152400X-0.127000X0.152400X-0.127000X0.152400X0.127000X-0.152400X0.127000X0*%
%ADD16RoundRect,0.125000X-0.355600X-0.127000X0.355600X-0.127000X0.355600X0.127000X-0.355600X0.127000X0*%
%ADD17RoundRect,0.125000X-0.558800X-0.127000X0.558800X-0.127000X0.558800X0.127000X-0.558800X0.127000X0*%
%ADD18RoundRect,0.125000X-0.203200X-0.127000X0.203200X-0.127000X0.203200X0.127000X-0.203200X0.127000X0*%
%ADD19RoundRect,0.125000X-0.279400X-0.127000X0.279400X-0.127000X0.279400X0.127000X-0.279400X0.127000X0*%
%ADD20RoundRect,0.125000X-0.508000X-0.127000X0.508000X-0.127000X0.508000X0.127000X-0.508000X0.127000X0*%
%ADD21RoundRect,0.125000X-0.495300X-0.127000X0.495300X-0.127000X0.495300X0.127000X-0.495300X0.127000X0*%
%ADD22RoundRect,0.125000X-0.635000X-0.127000X0.635000X-0.127000X0.635000X0.127000X-0.635000X0.127000X0*%
%ADD23RoundRect,0.125000X-0.431800X-0.127000X0.431800X-0.127000X0.431800X0.127000X-0.431800X0.127000X0*%
%ADD24RoundRect,0.125000X-0.190500X-0.127000X0.190500X-0.127000X0.190500X0.127000X-0.190500X0.127000X0*%
%ADD25RoundRect,0.125000X0.482600X0.127000X-0.482600X0.127000X-0.482600X-0.127000X0.482600X-0.127000X0*%
%ADD26RoundRect,0.125000X0.063500X0.127000X-0.063500X0.127000X-0.063500X-0.127000X0.063500X-0.127000X0*%
%ADD27RoundRect,0.125000X0.419100X0.127000X-0.419100X0.127000X-0.419100X-0.127000X0.419100X-0.127000X0*%
%ADD28RoundRect,0.125000X0.152400X0.127000X-0.152400X0.127000X-0.152400X-0.127000X0.152400X-0.127000X0*%
%ADD29RoundRect,0.125000X0.355600X0.127000X-0.355600X0.127000X-0.355600X-0.127000X0.355600X-0.127000X0*%
%ADD30RoundRect,0.125000X0.558800X0.127000X-0.558800X0.127000X-0.558800X-0.127000X0.558800X-0.127000X0*%
%ADD31RoundRect,0.125000X0.203200X0.127000X-0.203200X0.127000X-0.203200X-0.127000X0.203200X-0.127000X0*%
%ADD32RoundRect,0.125000X0.279400X0.127000X-0.279400X0.127000X-0.279400X-0.127000X0.279400X-0.127000X0*%
%ADD33RoundRect,0.125000X0.508000X0.127000X-0.508000X0.127000X-0.508000X-0.127000X0.508000X-0.127000X0*%
%ADD34RoundRect,0.125000X0.495300X0.127000X-0.495300X0.127000X-0.495300X-0.127000X0.495300X-0.127000X0*%
%ADD35RoundRect,0.125000X0.635000X0.127000X-0.635000X0.127000X-0.635000X-0.127000X0.635000X-0.127000X0*%
%ADD36RoundRect,0.125000X0.431800X0.127000X-0.431800X0.127000X-0.431800X-0.127000X0.431800X-0.127000X0*%
%ADD37RoundRect,0.125000X0.190500X0.127000X-0.190500X0.127000X-0.190500X-0.127000X0.190500X-0.127000X0*%
%ADD38RoundRect,0.125000X-0.600000X-0.250000X0.600000X-0.250000X0.600000X0.250000X-0.600000X0.250000X0*%
%ADD39RoundRect,0.125000X0.600000X0.250000X-0.600000X0.250000X-0.600000X-0.250000X0.600000X-0.250000X0*%
%ADD40R,1.740000X0.840000*%
G04 APERTURE END LIST*
D10*
%TO.C,REF\u002A\u002A*%
X41610000Y-2000000D02*
G75*
G03*
X41610000Y-2000000I-10000J0D01*
G01*
X2510000Y-55500000D02*
G75*
G03*
X2510000Y-55500000I-10000J0D01*
G01*
X41610000Y-55500000D02*
G75*
G03*
X41610000Y-55500000I-10000J0D01*
G01*
X2510000Y-2000000D02*
G75*
G03*
X2510000Y-2000000I-10000J0D01*
G01*
%TD*%
D11*
%TO.C,REF\u002A\u002A*%
X22050000Y-55900000D03*
%TD*%
D12*
%TO.C,*%
X42636135Y-53331873D03*
D13*
X42350131Y-54347873D03*
D14*
X41696081Y-53720747D03*
D15*
X41129915Y-53331873D03*
D16*
X40634107Y-53720747D03*
D17*
X39713865Y-53331873D03*
D13*
X39061085Y-54347873D03*
D18*
X38775081Y-53331873D03*
D13*
X38489077Y-53966873D03*
X38346075Y-54347873D03*
X38203073Y-53966873D03*
X38060071Y-54347873D03*
X37917069Y-53720747D03*
X37774067Y-53331873D03*
X37631065Y-53966873D03*
X37488063Y-54347873D03*
X37345061Y-53966873D03*
X37202059Y-54347873D03*
D19*
X36851539Y-53331873D03*
D20*
X36046613Y-53720747D03*
D13*
X35486035Y-54347873D03*
X35200031Y-54347873D03*
D18*
X35200031Y-53331873D03*
D13*
X34914027Y-54347873D03*
X34628023Y-54347873D03*
D16*
X34485021Y-53720747D03*
D13*
X34342019Y-54347873D03*
X34056015Y-54347873D03*
X33770011Y-54347873D03*
D21*
X33492643Y-53331873D03*
D13*
X33484007Y-54347873D03*
X33198003Y-54347873D03*
X32911999Y-54347873D03*
D18*
X32625995Y-53720747D03*
D13*
X32196989Y-54347873D03*
D22*
X31777381Y-53331873D03*
D17*
X30553609Y-53720747D03*
D23*
X29564279Y-53331873D03*
D16*
X28765195Y-53720747D03*
D17*
X27829967Y-53331873D03*
D14*
X26850797Y-53720747D03*
D13*
X26334161Y-54094381D03*
D14*
X25828955Y-53331873D03*
D24*
X25043079Y-53720747D03*
D18*
X24919127Y-53331873D03*
D13*
X24655983Y-54220873D03*
X24526189Y-53847747D03*
X24396141Y-54220873D03*
D24*
X24129187Y-53720747D03*
X24005997Y-53331873D03*
D13*
X23746155Y-53720747D03*
X23616107Y-53331873D03*
X23486059Y-53847747D03*
X23356011Y-54220873D03*
X23225963Y-53847747D03*
X23096169Y-54220873D03*
X22966121Y-53847747D03*
X22836073Y-54220873D03*
X22706025Y-53720747D03*
X22575977Y-53331873D03*
%TD*%
D25*
%TO.C,*%
X23099471Y-4168127D03*
D26*
X23385475Y-3152127D03*
D27*
X24039525Y-3779253D03*
D28*
X24605691Y-4168127D03*
D29*
X25101499Y-3779253D03*
D30*
X26021741Y-4168127D03*
D26*
X26674521Y-3152127D03*
D31*
X26960525Y-4168127D03*
D26*
X27246529Y-3533127D03*
X27389531Y-3152127D03*
X27532533Y-3533127D03*
X27675535Y-3152127D03*
X27818537Y-3779253D03*
X27961539Y-4168127D03*
X28104541Y-3533127D03*
X28247543Y-3152127D03*
X28390545Y-3533127D03*
X28533547Y-3152127D03*
D32*
X28884067Y-4168127D03*
D33*
X29688993Y-3779253D03*
D26*
X30249571Y-3152127D03*
X30535575Y-3152127D03*
D31*
X30535575Y-4168127D03*
D26*
X30821579Y-3152127D03*
X31107583Y-3152127D03*
D29*
X31250585Y-3779253D03*
D26*
X31393587Y-3152127D03*
X31679591Y-3152127D03*
X31965595Y-3152127D03*
D34*
X32242963Y-4168127D03*
D26*
X32251599Y-3152127D03*
X32537603Y-3152127D03*
X32823607Y-3152127D03*
D31*
X33109611Y-3779253D03*
D26*
X33538617Y-3152127D03*
D35*
X33958225Y-4168127D03*
D30*
X35181997Y-3779253D03*
D36*
X36171327Y-4168127D03*
D29*
X36970411Y-3779253D03*
D30*
X37905639Y-4168127D03*
D27*
X38884809Y-3779253D03*
D26*
X39401445Y-3405619D03*
D27*
X39906651Y-4168127D03*
D37*
X40692527Y-3779253D03*
D31*
X40816479Y-4168127D03*
D26*
X41079623Y-3279127D03*
X41209417Y-3652253D03*
X41339465Y-3279127D03*
D37*
X41606419Y-3779253D03*
X41729609Y-4168127D03*
D26*
X41989451Y-3779253D03*
X42119499Y-4168127D03*
X42249547Y-3652253D03*
X42379595Y-3279127D03*
X42509643Y-3652253D03*
X42639437Y-3279127D03*
X42769485Y-3652253D03*
X42899533Y-3279127D03*
X43029581Y-3779253D03*
X43159629Y-4168127D03*
%TD*%
D13*
%TO.C,*%
X925977Y-53331873D03*
X1056025Y-53720747D03*
X1186073Y-54220873D03*
X1316121Y-53847747D03*
X1446169Y-54220873D03*
X1575963Y-53847747D03*
X1706011Y-54220873D03*
X1836059Y-53847747D03*
X1966107Y-53331873D03*
X2096155Y-53720747D03*
D24*
X2355997Y-53331873D03*
X2479187Y-53720747D03*
D13*
X2746141Y-54220873D03*
X2876189Y-53847747D03*
X3005983Y-54220873D03*
D18*
X3269127Y-53331873D03*
D24*
X3393079Y-53720747D03*
D14*
X4178955Y-53331873D03*
D13*
X4684161Y-54094381D03*
D14*
X5200797Y-53720747D03*
D17*
X6179967Y-53331873D03*
D16*
X7115195Y-53720747D03*
D23*
X7914279Y-53331873D03*
D17*
X8903609Y-53720747D03*
D22*
X10127381Y-53331873D03*
D13*
X10546989Y-54347873D03*
D18*
X10975995Y-53720747D03*
D13*
X11261999Y-54347873D03*
X11548003Y-54347873D03*
X11834007Y-54347873D03*
D21*
X11842643Y-53331873D03*
D13*
X12120011Y-54347873D03*
X12406015Y-54347873D03*
X12692019Y-54347873D03*
D16*
X12835021Y-53720747D03*
D13*
X12978023Y-54347873D03*
X13264027Y-54347873D03*
D18*
X13550031Y-53331873D03*
D13*
X13550031Y-54347873D03*
X13836035Y-54347873D03*
D20*
X14396613Y-53720747D03*
D19*
X15201539Y-53331873D03*
D13*
X15552059Y-54347873D03*
X15695061Y-53966873D03*
X15838063Y-54347873D03*
X15981065Y-53966873D03*
X16124067Y-53331873D03*
X16267069Y-53720747D03*
X16410071Y-54347873D03*
X16553073Y-53966873D03*
X16696075Y-54347873D03*
X16839077Y-53966873D03*
D18*
X17125081Y-53331873D03*
D13*
X17411085Y-54347873D03*
D17*
X18063865Y-53331873D03*
D16*
X18984107Y-53720747D03*
D15*
X19479915Y-53331873D03*
D14*
X20046081Y-53720747D03*
D13*
X20700131Y-54347873D03*
D12*
X20986135Y-53331873D03*
%TD*%
D26*
%TO.C,*%
X21509629Y-4168127D03*
X21379581Y-3779253D03*
X21249533Y-3279127D03*
X21119485Y-3652253D03*
X20989437Y-3279127D03*
X20859643Y-3652253D03*
X20729595Y-3279127D03*
X20599547Y-3652253D03*
X20469499Y-4168127D03*
X20339451Y-3779253D03*
D37*
X20079609Y-4168127D03*
X19956419Y-3779253D03*
D26*
X19689465Y-3279127D03*
X19559417Y-3652253D03*
X19429623Y-3279127D03*
D31*
X19166479Y-4168127D03*
D37*
X19042527Y-3779253D03*
D27*
X18256651Y-4168127D03*
D26*
X17751445Y-3405619D03*
D27*
X17234809Y-3779253D03*
D30*
X16255639Y-4168127D03*
D29*
X15320411Y-3779253D03*
D36*
X14521327Y-4168127D03*
D30*
X13531997Y-3779253D03*
D35*
X12308225Y-4168127D03*
D26*
X11888617Y-3152127D03*
D31*
X11459611Y-3779253D03*
D26*
X11173607Y-3152127D03*
X10887603Y-3152127D03*
X10601599Y-3152127D03*
D34*
X10592963Y-4168127D03*
D26*
X10315595Y-3152127D03*
X10029591Y-3152127D03*
X9743587Y-3152127D03*
D29*
X9600585Y-3779253D03*
D26*
X9457583Y-3152127D03*
X9171579Y-3152127D03*
D31*
X8885575Y-4168127D03*
D26*
X8885575Y-3152127D03*
X8599571Y-3152127D03*
D33*
X8038993Y-3779253D03*
D32*
X7234067Y-4168127D03*
D26*
X6883547Y-3152127D03*
X6740545Y-3533127D03*
X6597543Y-3152127D03*
X6454541Y-3533127D03*
X6311539Y-4168127D03*
X6168537Y-3779253D03*
X6025535Y-3152127D03*
X5882533Y-3533127D03*
X5739531Y-3152127D03*
X5596529Y-3533127D03*
D31*
X5310525Y-4168127D03*
D26*
X5024521Y-3152127D03*
D30*
X4371741Y-4168127D03*
D29*
X3451499Y-3779253D03*
D28*
X2955691Y-4168127D03*
D27*
X2389525Y-3779253D03*
D26*
X1735475Y-3152127D03*
D25*
X1449471Y-4168127D03*
%TD*%
D11*
%TO.C,REF\u002A\u002A*%
X22050000Y-1600000D03*
%TD*%
D38*
%TO.C,REF\u002A\u002A*%
X8000000Y-55500000D03*
%TD*%
%TO.C,REF\u002A\u002A*%
X29610000Y-55500000D03*
%TD*%
D39*
%TO.C,REF\u002A\u002A*%
X36100000Y-2000000D03*
%TD*%
%TO.C,REF\u002A\u002A*%
X14450000Y-2000000D03*
%TD*%
D40*
%TO.C,REF\u002A\u002A*%
X17600000Y-56780000D03*
%TD*%
%TO.C,REF\u002A\u002A*%
X26500000Y-56780000D03*
%TD*%
%TO.C,REF\u002A\u002A*%
X26500000Y-800000D03*
%TD*%
%TO.C,REF\u002A\u002A*%
X17600000Y-800000D03*
%TD*%
G36*
X43373764Y-2915597D02*
G01*
X43441880Y-2935615D01*
X43488361Y-2989281D01*
X43499735Y-3041597D01*
X43499735Y-4299626D01*
X43479733Y-4367747D01*
X43426077Y-4414240D01*
X43373735Y-4425626D01*
X515735Y-4425626D01*
X447614Y-4405624D01*
X401121Y-4351968D01*
X389735Y-4299626D01*
X389735Y-3031655D01*
X409737Y-2963534D01*
X463393Y-2917041D01*
X515764Y-2905655D01*
X43373764Y-2915597D01*
G37*
G36*
X43374029Y-53089971D02*
G01*
X43442145Y-53109989D01*
X43488626Y-53163655D01*
X43500000Y-53215971D01*
X43500000Y-54474000D01*
X43479998Y-54542121D01*
X43426342Y-54588614D01*
X43374000Y-54600000D01*
X516000Y-54600000D01*
X447879Y-54579998D01*
X401386Y-54526342D01*
X390000Y-54474000D01*
X390000Y-53206029D01*
X410002Y-53137908D01*
X463658Y-53091415D01*
X516029Y-53080029D01*
X43374029Y-53089971D01*
G37*
M02*
