%TF.GenerationSoftware,KiCad,Pcbnew,(6.0.6)*%
%TF.CreationDate,2022-09-06T16:34:49-05:00*%
%TF.ProjectId,etl_module_pcb_mockup_v3p3,65746c5f-6d6f-4647-956c-655f7063625f,rev?*%
%TF.SameCoordinates,Original*%
%TF.FileFunction,Copper,L1,Top*%
%TF.FilePolarity,Positive*%
%FSLAX46Y46*%
G04 Gerber Fmt 4.6, Leading zero omitted, Abs format (unit mm)*
G04 Created by KiCad (PCBNEW (6.0.6)) date 2022-09-06 16:34:49*
%MOMM*%
%LPD*%
G01*
G04 APERTURE LIST*
%TA.AperFunction,EtchedComponent*%
%ADD10C,0.070000*%
%TD*%
%TA.AperFunction,SMDPad,CuDef*%
%ADD11R,0.965200X0.254000*%
%TD*%
%TA.AperFunction,SMDPad,CuDef*%
%ADD12R,0.127000X0.254000*%
%TD*%
%TA.AperFunction,SMDPad,CuDef*%
%ADD13R,0.838200X0.254000*%
%TD*%
%TA.AperFunction,SMDPad,CuDef*%
%ADD14R,0.304800X0.254000*%
%TD*%
%TA.AperFunction,SMDPad,CuDef*%
%ADD15R,0.711200X0.254000*%
%TD*%
%TA.AperFunction,SMDPad,CuDef*%
%ADD16R,1.117600X0.254000*%
%TD*%
%TA.AperFunction,SMDPad,CuDef*%
%ADD17R,0.406400X0.254000*%
%TD*%
%TA.AperFunction,SMDPad,CuDef*%
%ADD18R,0.558800X0.254000*%
%TD*%
%TA.AperFunction,SMDPad,CuDef*%
%ADD19R,1.016000X0.254000*%
%TD*%
%TA.AperFunction,SMDPad,CuDef*%
%ADD20R,0.990600X0.254000*%
%TD*%
%TA.AperFunction,SMDPad,CuDef*%
%ADD21R,1.270000X0.254000*%
%TD*%
%TA.AperFunction,SMDPad,CuDef*%
%ADD22R,0.863600X0.254000*%
%TD*%
%TA.AperFunction,SMDPad,CuDef*%
%ADD23R,0.381000X0.254000*%
%TD*%
%TA.AperFunction,SMDPad,CuDef*%
%ADD24R,1.200000X0.500000*%
%TD*%
%TA.AperFunction,SMDPad,CuDef*%
%ADD25R,1.740000X0.840000*%
%TD*%
G04 APERTURE END LIST*
D10*
%TO.C,REF\u002A\u002A*%
X41600000Y-1750000D02*
X41600000Y-2250000D01*
X41850000Y-2000000D02*
X41350000Y-2000000D01*
X41800000Y-2000000D02*
G75*
G03*
X41800000Y-2000000I-200000J0D01*
G01*
X2750000Y-55500000D02*
X2250000Y-55500000D01*
X2500000Y-55250000D02*
X2500000Y-55750000D01*
X2700000Y-55500000D02*
G75*
G03*
X2700000Y-55500000I-200000J0D01*
G01*
X41850000Y-55500000D02*
X41350000Y-55500000D01*
X41600000Y-55250000D02*
X41600000Y-55750000D01*
X41800000Y-55500000D02*
G75*
G03*
X41800000Y-55500000I-200000J0D01*
G01*
X2750000Y-2000000D02*
X2250000Y-2000000D01*
X2500000Y-1750000D02*
X2500000Y-2250000D01*
X2700000Y-2000000D02*
G75*
G03*
X2700000Y-2000000I-200000J0D01*
G01*
%TD*%
D11*
%TO.P,,61*%
%TO.N,N/C*%
X42636135Y-53331873D03*
D12*
%TO.P,,60*%
X42350131Y-54347873D03*
D13*
%TO.P,,59*%
X41696081Y-53720747D03*
D14*
%TO.P,,58*%
X41129915Y-53331873D03*
D15*
%TO.P,,57*%
X40634107Y-53720747D03*
D16*
%TO.P,,56*%
X39713865Y-53331873D03*
D12*
%TO.P,,55*%
X39061085Y-54347873D03*
D17*
%TO.P,,54*%
X38775081Y-53331873D03*
D12*
%TO.P,,53*%
X38489077Y-53966873D03*
%TO.P,,52*%
X38346075Y-54347873D03*
%TO.P,,51*%
X38203073Y-53966873D03*
%TO.P,,50*%
X38060071Y-54347873D03*
%TO.P,,49*%
X37917069Y-53720747D03*
%TO.P,,48*%
X37774067Y-53331873D03*
%TO.P,,47*%
X37631065Y-53966873D03*
%TO.P,,46*%
X37488063Y-54347873D03*
%TO.P,,45*%
X37345061Y-53966873D03*
%TO.P,,44*%
X37202059Y-54347873D03*
D18*
%TO.P,,43*%
X36851539Y-53331873D03*
D19*
%TO.P,,42*%
X36046613Y-53720747D03*
D12*
%TO.P,,41*%
X35486035Y-54347873D03*
%TO.P,,40*%
X35200031Y-54347873D03*
D17*
%TO.P,,39*%
X35200031Y-53331873D03*
D12*
%TO.P,,38*%
X34914027Y-54347873D03*
%TO.P,,37*%
X34628023Y-54347873D03*
D15*
%TO.P,,36*%
X34485021Y-53720747D03*
D12*
%TO.P,,35*%
X34342019Y-54347873D03*
%TO.P,,34*%
X34056015Y-54347873D03*
%TO.P,,33*%
X33770011Y-54347873D03*
D20*
%TO.P,,32*%
X33492643Y-53331873D03*
D12*
%TO.P,,31*%
X33484007Y-54347873D03*
%TO.P,,30*%
X33198003Y-54347873D03*
%TO.P,,29*%
X32911999Y-54347873D03*
D17*
%TO.P,,28*%
X32625995Y-53720747D03*
D12*
%TO.P,,27*%
X32196989Y-54347873D03*
D21*
%TO.P,,26*%
X31777381Y-53331873D03*
D16*
%TO.P,,25*%
X30553609Y-53720747D03*
D22*
%TO.P,,24*%
X29564279Y-53331873D03*
D15*
%TO.P,,23*%
X28765195Y-53720747D03*
D16*
%TO.P,,22*%
X27829967Y-53331873D03*
D13*
%TO.P,,21*%
X26850797Y-53720747D03*
D12*
%TO.P,,20*%
X26334161Y-54094381D03*
D13*
%TO.P,,19*%
X25828955Y-53331873D03*
D23*
%TO.P,,17*%
X25043079Y-53720747D03*
D17*
%TO.P,,16*%
X24919127Y-53331873D03*
D12*
%TO.P,,15*%
X24655983Y-54220873D03*
%TO.P,,14*%
X24526189Y-53847747D03*
%TO.P,,13*%
X24396141Y-54220873D03*
D23*
%TO.P,,12*%
X24129187Y-53720747D03*
%TO.P,,11*%
X24005997Y-53331873D03*
D12*
%TO.P,,10*%
X23746155Y-53720747D03*
%TO.P,,9*%
X23616107Y-53331873D03*
%TO.P,,8*%
X23486059Y-53847747D03*
%TO.P,,7*%
X23356011Y-54220873D03*
%TO.P,,6*%
X23225963Y-53847747D03*
%TO.P,,5*%
X23096169Y-54220873D03*
%TO.P,,4*%
X22966121Y-53847747D03*
%TO.P,,3*%
X22836073Y-54220873D03*
%TO.P,,2*%
X22706025Y-53720747D03*
%TO.P,,1*%
X22575977Y-53331873D03*
%TD*%
D11*
%TO.P,,61*%
%TO.N,N/C*%
X23099471Y-4168127D03*
D12*
%TO.P,,60*%
X23385475Y-3152127D03*
D13*
%TO.P,,59*%
X24039525Y-3779253D03*
D14*
%TO.P,,58*%
X24605691Y-4168127D03*
D15*
%TO.P,,57*%
X25101499Y-3779253D03*
D16*
%TO.P,,56*%
X26021741Y-4168127D03*
D12*
%TO.P,,55*%
X26674521Y-3152127D03*
D17*
%TO.P,,54*%
X26960525Y-4168127D03*
D12*
%TO.P,,53*%
X27246529Y-3533127D03*
%TO.P,,52*%
X27389531Y-3152127D03*
%TO.P,,51*%
X27532533Y-3533127D03*
%TO.P,,50*%
X27675535Y-3152127D03*
%TO.P,,49*%
X27818537Y-3779253D03*
%TO.P,,48*%
X27961539Y-4168127D03*
%TO.P,,47*%
X28104541Y-3533127D03*
%TO.P,,46*%
X28247543Y-3152127D03*
%TO.P,,45*%
X28390545Y-3533127D03*
%TO.P,,44*%
X28533547Y-3152127D03*
D18*
%TO.P,,43*%
X28884067Y-4168127D03*
D19*
%TO.P,,42*%
X29688993Y-3779253D03*
D12*
%TO.P,,41*%
X30249571Y-3152127D03*
%TO.P,,40*%
X30535575Y-3152127D03*
D17*
%TO.P,,39*%
X30535575Y-4168127D03*
D12*
%TO.P,,38*%
X30821579Y-3152127D03*
%TO.P,,37*%
X31107583Y-3152127D03*
D15*
%TO.P,,36*%
X31250585Y-3779253D03*
D12*
%TO.P,,35*%
X31393587Y-3152127D03*
%TO.P,,34*%
X31679591Y-3152127D03*
%TO.P,,33*%
X31965595Y-3152127D03*
D20*
%TO.P,,32*%
X32242963Y-4168127D03*
D12*
%TO.P,,31*%
X32251599Y-3152127D03*
%TO.P,,30*%
X32537603Y-3152127D03*
%TO.P,,29*%
X32823607Y-3152127D03*
D17*
%TO.P,,28*%
X33109611Y-3779253D03*
D12*
%TO.P,,27*%
X33538617Y-3152127D03*
D21*
%TO.P,,26*%
X33958225Y-4168127D03*
D16*
%TO.P,,25*%
X35181997Y-3779253D03*
D22*
%TO.P,,24*%
X36171327Y-4168127D03*
D15*
%TO.P,,23*%
X36970411Y-3779253D03*
D16*
%TO.P,,22*%
X37905639Y-4168127D03*
D13*
%TO.P,,21*%
X38884809Y-3779253D03*
D12*
%TO.P,,20*%
X39401445Y-3405619D03*
D13*
%TO.P,,19*%
X39906651Y-4168127D03*
D23*
%TO.P,,17*%
X40692527Y-3779253D03*
D17*
%TO.P,,16*%
X40816479Y-4168127D03*
D12*
%TO.P,,15*%
X41079623Y-3279127D03*
%TO.P,,14*%
X41209417Y-3652253D03*
%TO.P,,13*%
X41339465Y-3279127D03*
D23*
%TO.P,,12*%
X41606419Y-3779253D03*
%TO.P,,11*%
X41729609Y-4168127D03*
D12*
%TO.P,,10*%
X41989451Y-3779253D03*
%TO.P,,9*%
X42119499Y-4168127D03*
%TO.P,,8*%
X42249547Y-3652253D03*
%TO.P,,7*%
X42379595Y-3279127D03*
%TO.P,,6*%
X42509643Y-3652253D03*
%TO.P,,5*%
X42639437Y-3279127D03*
%TO.P,,4*%
X42769485Y-3652253D03*
%TO.P,,3*%
X42899533Y-3279127D03*
%TO.P,,2*%
X43029581Y-3779253D03*
%TO.P,,1*%
X43159629Y-4168127D03*
%TD*%
%TO.P,,1*%
%TO.N,N/C*%
X925977Y-53331873D03*
%TO.P,,2*%
X1056025Y-53720747D03*
%TO.P,,3*%
X1186073Y-54220873D03*
%TO.P,,4*%
X1316121Y-53847747D03*
%TO.P,,5*%
X1446169Y-54220873D03*
%TO.P,,6*%
X1575963Y-53847747D03*
%TO.P,,7*%
X1706011Y-54220873D03*
%TO.P,,8*%
X1836059Y-53847747D03*
%TO.P,,9*%
X1966107Y-53331873D03*
%TO.P,,10*%
X2096155Y-53720747D03*
D23*
%TO.P,,11*%
X2355997Y-53331873D03*
%TO.P,,12*%
X2479187Y-53720747D03*
D12*
%TO.P,,13*%
X2746141Y-54220873D03*
%TO.P,,14*%
X2876189Y-53847747D03*
%TO.P,,15*%
X3005983Y-54220873D03*
D17*
%TO.P,,16*%
X3269127Y-53331873D03*
D23*
%TO.P,,17*%
X3393079Y-53720747D03*
D13*
%TO.P,,19*%
X4178955Y-53331873D03*
D12*
%TO.P,,20*%
X4684161Y-54094381D03*
D13*
%TO.P,,21*%
X5200797Y-53720747D03*
D16*
%TO.P,,22*%
X6179967Y-53331873D03*
D15*
%TO.P,,23*%
X7115195Y-53720747D03*
D22*
%TO.P,,24*%
X7914279Y-53331873D03*
D16*
%TO.P,,25*%
X8903609Y-53720747D03*
D21*
%TO.P,,26*%
X10127381Y-53331873D03*
D12*
%TO.P,,27*%
X10546989Y-54347873D03*
D17*
%TO.P,,28*%
X10975995Y-53720747D03*
D12*
%TO.P,,29*%
X11261999Y-54347873D03*
%TO.P,,30*%
X11548003Y-54347873D03*
%TO.P,,31*%
X11834007Y-54347873D03*
D20*
%TO.P,,32*%
X11842643Y-53331873D03*
D12*
%TO.P,,33*%
X12120011Y-54347873D03*
%TO.P,,34*%
X12406015Y-54347873D03*
%TO.P,,35*%
X12692019Y-54347873D03*
D15*
%TO.P,,36*%
X12835021Y-53720747D03*
D12*
%TO.P,,37*%
X12978023Y-54347873D03*
%TO.P,,38*%
X13264027Y-54347873D03*
D17*
%TO.P,,39*%
X13550031Y-53331873D03*
D12*
%TO.P,,40*%
X13550031Y-54347873D03*
%TO.P,,41*%
X13836035Y-54347873D03*
D19*
%TO.P,,42*%
X14396613Y-53720747D03*
D18*
%TO.P,,43*%
X15201539Y-53331873D03*
D12*
%TO.P,,44*%
X15552059Y-54347873D03*
%TO.P,,45*%
X15695061Y-53966873D03*
%TO.P,,46*%
X15838063Y-54347873D03*
%TO.P,,47*%
X15981065Y-53966873D03*
%TO.P,,48*%
X16124067Y-53331873D03*
%TO.P,,49*%
X16267069Y-53720747D03*
%TO.P,,50*%
X16410071Y-54347873D03*
%TO.P,,51*%
X16553073Y-53966873D03*
%TO.P,,52*%
X16696075Y-54347873D03*
%TO.P,,53*%
X16839077Y-53966873D03*
D17*
%TO.P,,54*%
X17125081Y-53331873D03*
D12*
%TO.P,,55*%
X17411085Y-54347873D03*
D16*
%TO.P,,56*%
X18063865Y-53331873D03*
D15*
%TO.P,,57*%
X18984107Y-53720747D03*
D14*
%TO.P,,58*%
X19479915Y-53331873D03*
D13*
%TO.P,,59*%
X20046081Y-53720747D03*
D12*
%TO.P,,60*%
X20700131Y-54347873D03*
D11*
%TO.P,,61*%
X20986135Y-53331873D03*
%TD*%
D12*
%TO.P,,1*%
%TO.N,N/C*%
X21509629Y-4168127D03*
%TO.P,,2*%
X21379581Y-3779253D03*
%TO.P,,3*%
X21249533Y-3279127D03*
%TO.P,,4*%
X21119485Y-3652253D03*
%TO.P,,5*%
X20989437Y-3279127D03*
%TO.P,,6*%
X20859643Y-3652253D03*
%TO.P,,7*%
X20729595Y-3279127D03*
%TO.P,,8*%
X20599547Y-3652253D03*
%TO.P,,9*%
X20469499Y-4168127D03*
%TO.P,,10*%
X20339451Y-3779253D03*
D23*
%TO.P,,11*%
X20079609Y-4168127D03*
%TO.P,,12*%
X19956419Y-3779253D03*
D12*
%TO.P,,13*%
X19689465Y-3279127D03*
%TO.P,,14*%
X19559417Y-3652253D03*
%TO.P,,15*%
X19429623Y-3279127D03*
D17*
%TO.P,,16*%
X19166479Y-4168127D03*
D23*
%TO.P,,17*%
X19042527Y-3779253D03*
D13*
%TO.P,,19*%
X18256651Y-4168127D03*
D12*
%TO.P,,20*%
X17751445Y-3405619D03*
D13*
%TO.P,,21*%
X17234809Y-3779253D03*
D16*
%TO.P,,22*%
X16255639Y-4168127D03*
D15*
%TO.P,,23*%
X15320411Y-3779253D03*
D22*
%TO.P,,24*%
X14521327Y-4168127D03*
D16*
%TO.P,,25*%
X13531997Y-3779253D03*
D21*
%TO.P,,26*%
X12308225Y-4168127D03*
D12*
%TO.P,,27*%
X11888617Y-3152127D03*
D17*
%TO.P,,28*%
X11459611Y-3779253D03*
D12*
%TO.P,,29*%
X11173607Y-3152127D03*
%TO.P,,30*%
X10887603Y-3152127D03*
%TO.P,,31*%
X10601599Y-3152127D03*
D20*
%TO.P,,32*%
X10592963Y-4168127D03*
D12*
%TO.P,,33*%
X10315595Y-3152127D03*
%TO.P,,34*%
X10029591Y-3152127D03*
%TO.P,,35*%
X9743587Y-3152127D03*
D15*
%TO.P,,36*%
X9600585Y-3779253D03*
D12*
%TO.P,,37*%
X9457583Y-3152127D03*
%TO.P,,38*%
X9171579Y-3152127D03*
D17*
%TO.P,,39*%
X8885575Y-4168127D03*
D12*
%TO.P,,40*%
X8885575Y-3152127D03*
%TO.P,,41*%
X8599571Y-3152127D03*
D19*
%TO.P,,42*%
X8038993Y-3779253D03*
D18*
%TO.P,,43*%
X7234067Y-4168127D03*
D12*
%TO.P,,44*%
X6883547Y-3152127D03*
%TO.P,,45*%
X6740545Y-3533127D03*
%TO.P,,46*%
X6597543Y-3152127D03*
%TO.P,,47*%
X6454541Y-3533127D03*
%TO.P,,48*%
X6311539Y-4168127D03*
%TO.P,,49*%
X6168537Y-3779253D03*
%TO.P,,50*%
X6025535Y-3152127D03*
%TO.P,,51*%
X5882533Y-3533127D03*
%TO.P,,52*%
X5739531Y-3152127D03*
%TO.P,,53*%
X5596529Y-3533127D03*
D17*
%TO.P,,54*%
X5310525Y-4168127D03*
D12*
%TO.P,,55*%
X5024521Y-3152127D03*
D16*
%TO.P,,56*%
X4371741Y-4168127D03*
D15*
%TO.P,,57*%
X3451499Y-3779253D03*
D14*
%TO.P,,58*%
X2955691Y-4168127D03*
D13*
%TO.P,,59*%
X2389525Y-3779253D03*
D12*
%TO.P,,60*%
X1735475Y-3152127D03*
D11*
%TO.P,,61*%
X1449471Y-4168127D03*
%TD*%
D24*
%TO.P,REF\u002A\u002A,1*%
%TO.N,N/C*%
X8000000Y-55500000D03*
%TD*%
%TO.P,REF\u002A\u002A,1*%
%TO.N,N/C*%
X29610000Y-55500000D03*
%TD*%
%TO.P,REF\u002A\u002A,1*%
%TO.N,N/C*%
X36100000Y-2000000D03*
%TD*%
%TO.P,REF\u002A\u002A,1*%
%TO.N,N/C*%
X14450000Y-2000000D03*
%TD*%
D25*
%TO.P,REF\u002A\u002A,1*%
%TO.N,N/C*%
X17600000Y-56780000D03*
%TD*%
%TO.P,REF\u002A\u002A,1*%
%TO.N,N/C*%
X26500000Y-56780000D03*
%TD*%
%TO.P,REF\u002A\u002A,1*%
%TO.N,N/C*%
X26500000Y-800000D03*
%TD*%
%TO.P,REF\u002A\u002A,1*%
%TO.N,N/C*%
X17600000Y-800000D03*
%TD*%
M02*
