%TF.GenerationSoftware,KiCad,Pcbnew,(6.0.6)*%
%TF.CreationDate,2022-09-06T16:34:49-05:00*%
%TF.ProjectId,etl_module_pcb_mockup_v3p3,65746c5f-6d6f-4647-956c-655f7063625f,rev?*%
%TF.SameCoordinates,Original*%
%TF.FileFunction,Profile,NP*%
%FSLAX46Y46*%
G04 Gerber Fmt 4.6, Leading zero omitted, Abs format (unit mm)*
G04 Created by KiCad (PCBNEW (6.0.6)) date 2022-09-06 16:34:49*
%MOMM*%
%LPD*%
G01*
G04 APERTURE LIST*
%TA.AperFunction,Profile*%
%ADD10C,0.050000*%
%TD*%
G04 APERTURE END LIST*
D10*
X0Y0D02*
X0Y-55500000D01*
X2000000Y-57500000D02*
X0Y-55500000D01*
X15000000Y-56800000D02*
X15000000Y-57500000D01*
X29100000Y-57500000D02*
X15000000Y-57500000D01*
X39600000Y-700000D02*
X29100000Y-700000D01*
X0Y0D02*
X4500000Y0D01*
X4500000Y-57500000D02*
X4500000Y-56800000D01*
X44100000Y-57500000D02*
X39600000Y-57500000D01*
X15000000Y0D02*
X29100000Y0D01*
X39600000Y-56800000D02*
X29100000Y-56800000D01*
X4500000Y-56800000D02*
X15000000Y-56800000D01*
X39600000Y0D02*
X39600000Y-700000D01*
X4500000Y-700000D02*
X15000000Y-700000D01*
X44100000Y0D02*
X44100000Y-57500000D01*
X29100000Y-700000D02*
X29100000Y0D01*
X39600000Y-57500000D02*
X39600000Y-56800000D01*
X15000000Y-700000D02*
X15000000Y0D01*
X29100000Y-56800000D02*
X29100000Y-57500000D01*
X44100000Y0D02*
X39600000Y0D01*
X4500000Y0D02*
X4500000Y-700000D01*
X2000000Y-57500000D02*
X4500000Y-57500000D01*
M02*
