%TF.GenerationSoftware,KiCad,Pcbnew,(6.0.6)*%
%TF.CreationDate,2022-09-06T16:34:49-05:00*%
%TF.ProjectId,etl_module_pcb_mockup_v3p3,65746c5f-6d6f-4647-956c-655f7063625f,rev?*%
%TF.SameCoordinates,Original*%
%TF.FileFunction,Soldermask,Bot*%
%TF.FilePolarity,Negative*%
%FSLAX46Y46*%
G04 Gerber Fmt 4.6, Leading zero omitted, Abs format (unit mm)*
G04 Created by KiCad (PCBNEW (6.0.6)) date 2022-09-06 16:34:49*
%MOMM*%
%LPD*%
G01*
G04 APERTURE LIST*
%ADD10C,2.200000*%
%ADD11R,0.220000X0.500000*%
%ADD12R,0.750000X0.550000*%
%ADD13R,1.740000X0.840000*%
%ADD14C,4.200000*%
G04 APERTURE END LIST*
D10*
%TO.C,REF\u002A\u002A*%
X22050000Y-55900000D03*
%TD*%
%TO.C,REF\u002A\u002A*%
X22050000Y-1600000D03*
%TD*%
D11*
%TO.C,J1*%
X17250000Y-12550000D03*
X17250000Y-14950000D03*
X17650000Y-12550000D03*
X17650000Y-14950000D03*
X18050000Y-12550000D03*
X18050000Y-14950000D03*
X18450000Y-12550000D03*
X18450000Y-14950000D03*
X18850000Y-12550000D03*
X18850000Y-14950000D03*
X19250000Y-12550000D03*
X19250000Y-14950000D03*
X19650000Y-12550000D03*
X19650000Y-14950000D03*
X20050000Y-12550000D03*
X20050000Y-14950000D03*
X20450000Y-12550000D03*
X20450000Y-14950000D03*
X20850000Y-12550000D03*
X20850000Y-14950000D03*
X21250000Y-12550000D03*
X21250000Y-14950000D03*
X21650000Y-12550000D03*
X21650000Y-14950000D03*
X22050000Y-12550000D03*
X22050000Y-14950000D03*
X22450000Y-12550000D03*
X22450000Y-14950000D03*
X22850000Y-12550000D03*
X22850000Y-14950000D03*
X23250000Y-12550000D03*
X23250000Y-14950000D03*
X23650000Y-12550000D03*
X23650000Y-14950000D03*
X24050000Y-12550000D03*
X24050000Y-14950000D03*
X24450000Y-12550000D03*
X24450000Y-14950000D03*
X24850000Y-12550000D03*
X24850000Y-14950000D03*
X25250000Y-12550000D03*
X25250000Y-14950000D03*
X25650000Y-12550000D03*
X25650000Y-14950000D03*
X26050000Y-12550000D03*
X26050000Y-14950000D03*
X26450000Y-12550000D03*
X26450000Y-14950000D03*
X26850000Y-12550000D03*
X26850000Y-14950000D03*
D12*
X16425000Y-12575000D03*
X16425000Y-14925000D03*
X27675000Y-12575000D03*
X27675000Y-14925000D03*
%TD*%
D11*
%TO.C,J2*%
X17250000Y-42550000D03*
X17250000Y-44950000D03*
X17650000Y-42550000D03*
X17650000Y-44950000D03*
X18050000Y-42550000D03*
X18050000Y-44950000D03*
X18450000Y-42550000D03*
X18450000Y-44950000D03*
X18850000Y-42550000D03*
X18850000Y-44950000D03*
X19250000Y-42550000D03*
X19250000Y-44950000D03*
X19650000Y-42550000D03*
X19650000Y-44950000D03*
X20050000Y-42550000D03*
X20050000Y-44950000D03*
X20450000Y-42550000D03*
X20450000Y-44950000D03*
X20850000Y-42550000D03*
X20850000Y-44950000D03*
X21250000Y-42550000D03*
X21250000Y-44950000D03*
X21650000Y-42550000D03*
X21650000Y-44950000D03*
X22050000Y-42550000D03*
X22050000Y-44950000D03*
X22450000Y-42550000D03*
X22450000Y-44950000D03*
X22850000Y-42550000D03*
X22850000Y-44950000D03*
X23250000Y-42550000D03*
X23250000Y-44950000D03*
X23650000Y-42550000D03*
X23650000Y-44950000D03*
X24050000Y-42550000D03*
X24050000Y-44950000D03*
X24450000Y-42550000D03*
X24450000Y-44950000D03*
X24850000Y-42550000D03*
X24850000Y-44950000D03*
X25250000Y-42550000D03*
X25250000Y-44950000D03*
X25650000Y-42550000D03*
X25650000Y-44950000D03*
X26050000Y-42550000D03*
X26050000Y-44950000D03*
X26450000Y-42550000D03*
X26450000Y-44950000D03*
X26850000Y-42550000D03*
X26850000Y-44950000D03*
D12*
X16425000Y-42575000D03*
X16425000Y-44925000D03*
X27675000Y-42575000D03*
X27675000Y-44925000D03*
%TD*%
D13*
%TO.C,REF\u002A\u002A*%
X17600000Y-56780000D03*
%TD*%
%TO.C,REF\u002A\u002A*%
X26500000Y-56780000D03*
%TD*%
%TO.C,REF\u002A\u002A*%
X26500000Y-800000D03*
%TD*%
%TO.C,REF\u002A\u002A*%
X17600000Y-800000D03*
%TD*%
D14*
%TO.C,REF\u002A\u002A*%
X27050000Y-30750000D03*
%TD*%
M02*
