G04 CAM350/DFMSTREAM V12.2 (Build 1155) Date:  Thu Aug 08 15:54:00 2019 *
G04 Database: C:\Users\ptome\Documents\Data - Open Quotes\PURDUE UNIVERSITY\CPC_MOCKUP_HDI_1X2_V2 REV 2.00\CPC_MOCKUP_HDI_1X2_V2 REV 2.00.cam *
G04 Layer 11: Assembly_Array *
%FSLAX44Y44*%
%MOIN*%
%SFA1.000B1.000*%

%MIA0B0*%
%IPPOS*%
%ADD23C,0.00500*%
%ADD25R,0.00394X0.01575*%
%LNAssembly_Array*%
%LPD*%
G54D23*
X0Y0D02*
G01X7480D01*
Y984*
X7283*
Y1378D02*
G75*
G03X7283Y984J-197D01*
Y1378D02*
G01X7894D01*
Y984D02*
G03X7894Y1378I-20J197D01*
Y984D02*
G01X7874D01*
Y0*
X25335*
Y984*
X25315*
Y1378D02*
G03X25315Y984J-197D01*
Y1378D02*
G01X25925D01*
Y984D02*
G03X25925Y1378J197D01*
Y984D02*
G01X25728D01*
Y0*
X33189*
Y6969*
X25728*
Y5984*
X25925*
Y5591D02*
G03X25925Y5984J197D01*
Y5591D02*
G01X25315D01*
Y5984D02*
G03X25315Y5591J-197D01*
Y5984D02*
G01X25335D01*
Y6969*
X7874*
Y5984*
X7894*
Y5591D02*
G03X7894Y5984J197D01*
Y5591D02*
G01X7283D01*
Y5984D02*
G03X7283Y5591J-197D01*
Y5984D02*
G01X7480D01*
Y6969*
X0*
Y0*
X5061Y3484D02*
G03X5061Y3484I-1252D01*
X30652D02*
G03X30652Y3484I-1252D01*
X0Y0D02*
G01X7480D01*
Y984*
X7283*
Y1378D02*
G03X7283Y984J-197D01*
Y1378D02*
G01X7894D01*
Y984D02*
G03X7894Y1378I-20J197D01*
Y984D02*
G01X7874D01*
Y0*
X25335*
Y984*
X25315*
Y1378D02*
G03X25315Y984J-197D01*
Y1378D02*
G01X25925D01*
Y984D02*
G03X25925Y1378J197D01*
Y984D02*
G01X25728D01*
Y0*
X33189*
Y6969*
X25728*
Y5984*
X25925*
Y5591D02*
G03X25925Y5984J197D01*
Y5591D02*
G01X25315D01*
Y5984D02*
G03X25315Y5591J-197D01*
Y5984D02*
G01X25335D01*
Y6969*
X7874*
Y5984*
X7894*
Y5591D02*
G03X7894Y5984J197D01*
Y5591D02*
G01X7283D01*
Y5984D02*
G03X7283Y5591J-197D01*
Y5984D02*
G01X7480D01*
Y6969*
X0*
Y0*
X5061Y3484D02*
G03X5061Y3484I-1252D01*
X30652D02*
G03X30652Y3484I-1252D01*
X0Y7969D02*
G01X7480D01*
Y8953*
X7283*
Y9347D02*
G03X7283Y8953J-197D01*
Y9347D02*
G01X7894D01*
Y8953D02*
G03X7894Y9347I-20J197D01*
Y8953D02*
G01X7874D01*
Y7969*
X25335*
Y8953*
X25315*
Y9347D02*
G03X25315Y8953J-197D01*
Y9347D02*
G01X25925D01*
Y8953D02*
G03X25925Y9347J197D01*
Y8953D02*
G01X25728D01*
Y7969*
X33189*
Y14938*
X25728*
Y13953*
X25925*
Y13560D02*
G03X25925Y13953J197D01*
Y13560D02*
G01X25315D01*
Y13953D02*
G03X25315Y13560J-197D01*
Y13953D02*
G01X25335D01*
Y14938*
X7874*
Y13953*
X7894*
Y13560D02*
G03X7894Y13953J197D01*
Y13560D02*
G01X7283D01*
Y13953D02*
G03X7283Y13560J-197D01*
Y13953D02*
G01X7480D01*
Y14938*
X0*
Y7969*
X5061Y11453D02*
G03X5061Y11453I-1252D01*
X30652D02*
G03X30652Y11453I-1252D01*
X0Y7969D02*
G01X7480D01*
Y8953*
X7283*
Y9347D02*
G03X7283Y8953J-197D01*
Y9347D02*
G01X7894D01*
Y8953D02*
G03X7894Y9347I-20J197D01*
Y8953D02*
G01X7874D01*
Y7969*
X25335*
Y8953*
X25315*
Y9347D02*
G03X25315Y8953J-197D01*
Y9347D02*
G01X25925D01*
Y8953D02*
G03X25925Y9347J197D01*
Y8953D02*
G01X25728D01*
Y7969*
X33189*
Y14938*
X25728*
Y13953*
X25925*
Y13560D02*
G03X25925Y13953J197D01*
Y13560D02*
G01X25315D01*
Y13953D02*
G03X25315Y13560J-197D01*
Y13953D02*
G01X25335D01*
Y14938*
X7874*
Y13953*
X7894*
Y13560D02*
G03X7894Y13953J197D01*
Y13560D02*
G01X7283D01*
Y13953D02*
G03X7283Y13560J-197D01*
Y13953D02*
G01X7480D01*
Y14938*
X0*
Y7969*
X5061Y11453D02*
G03X5061Y11453I-1252D01*
X30652D02*
G03X30652Y11453I-1252D01*
X0Y15938D02*
G01X7480D01*
Y16922*
X7283*
Y17316D02*
G03X7283Y16922J-197D01*
Y17316D02*
G01X7894D01*
Y16922D02*
G03X7894Y17316I-20J197D01*
Y16922D02*
G01X7874D01*
Y15938*
X25335*
Y16922*
X25315*
Y17316D02*
G03X25315Y16922J-197D01*
Y17316D02*
G01X25925D01*
Y16922D02*
G03X25925Y17316J197D01*
Y16922D02*
G01X25728D01*
Y15938*
X33189*
Y22907*
X25728*
Y21922*
X25925*
Y21529D02*
G03X25925Y21922J197D01*
Y21529D02*
G01X25315D01*
Y21922D02*
G03X25315Y21529J-197D01*
Y21922D02*
G01X25335D01*
Y22907*
X7874*
Y21922*
X7894*
Y21529D02*
G03X7894Y21922J197D01*
Y21529D02*
G01X7283D01*
Y21922D02*
G03X7283Y21529J-197D01*
Y21922D02*
G01X7480D01*
Y22907*
X0*
Y15938*
X5061Y19422D02*
G03X5061Y19422I-1252D01*
X30652D02*
G03X30652Y19422I-1252D01*
X0Y15938D02*
G01X7480D01*
Y16922*
X7283*
Y17316D02*
G03X7283Y16922J-197D01*
Y17316D02*
G01X7894D01*
Y16922D02*
G03X7894Y17316I-20J197D01*
Y16922D02*
G01X7874D01*
Y15938*
X25335*
Y16922*
X25315*
Y17316D02*
G03X25315Y16922J-197D01*
Y17316D02*
G01X25925D01*
Y16922D02*
G03X25925Y17316J197D01*
Y16922D02*
G01X25728D01*
Y15938*
X33189*
Y22907*
X25728*
Y21922*
X25925*
Y21529D02*
G03X25925Y21922J197D01*
Y21529D02*
G01X25315D01*
Y21922D02*
G03X25315Y21529J-197D01*
Y21922D02*
G01X25335D01*
Y22907*
X7874*
Y21922*
X7894*
Y21529D02*
G03X7894Y21922J197D01*
Y21529D02*
G01X7283D01*
Y21922D02*
G03X7283Y21529J-197D01*
Y21922D02*
G01X7480D01*
Y22907*
X0*
Y15938*
X5061Y19422D02*
G03X5061Y19422I-1252D01*
X30652D02*
G03X30652Y19422I-1252D01*
X0Y23907D02*
G01X7480D01*
Y24891*
X7283*
Y25285D02*
G03X7283Y24891J-197D01*
Y25285D02*
G01X7894D01*
Y24891D02*
G03X7894Y25285I-20J197D01*
Y24891D02*
G01X7874D01*
Y23907*
X25335*
Y24891*
X25315*
Y25285D02*
G03X25315Y24891J-197D01*
Y25285D02*
G01X25925D01*
Y24891D02*
G03X25925Y25285J197D01*
Y24891D02*
G01X25728D01*
Y23907*
X33189*
Y30876*
X25728*
Y29891*
X25925*
Y29498D02*
G03X25925Y29891J197D01*
Y29498D02*
G01X25315D01*
Y29891D02*
G03X25315Y29498J-197D01*
Y29891D02*
G01X25335D01*
Y30876*
X7874*
Y29891*
X7894*
Y29498D02*
G03X7894Y29891J197D01*
Y29498D02*
G01X7283D01*
Y29891D02*
G03X7283Y29498J-197D01*
Y29891D02*
G01X7480D01*
Y30876*
X0*
Y23907*
X5061Y27391D02*
G03X5061Y27391I-1252D01*
X30652D02*
G03X30652Y27391I-1252D01*
X0Y23907D02*
G01X7480D01*
Y24891*
X7283*
Y25285D02*
G03X7283Y24891J-197D01*
Y25285D02*
G01X7894D01*
Y24891D02*
G03X7894Y25285I-20J197D01*
Y24891D02*
G01X7874D01*
Y23907*
X25335*
Y24891*
X25315*
Y25285D02*
G03X25315Y24891J-197D01*
Y25285D02*
G01X25925D01*
Y24891D02*
G03X25925Y25285J197D01*
Y24891D02*
G01X25728D01*
Y23907*
X33189*
Y30876*
X25728*
Y29891*
X25925*
Y29498D02*
G03X25925Y29891J197D01*
Y29498D02*
G01X25315D01*
Y29891D02*
G03X25315Y29498J-197D01*
Y29891D02*
G01X25335D01*
Y30876*
X7874*
Y29891*
X7894*
Y29498D02*
G03X7894Y29891J197D01*
Y29498D02*
G01X7283D01*
Y29891D02*
G03X7283Y29498J-197D01*
Y29891D02*
G01X7480D01*
Y30876*
X0*
Y23907*
X5061Y27391D02*
G03X5061Y27391I-1252D01*
X30652D02*
G03X30652Y27391I-1252D01*
X0Y31876D02*
G01X7480D01*
Y32860*
X7283*
Y33254D02*
G03X7283Y32860J-197D01*
Y33254D02*
G01X7894D01*
Y32860D02*
G03X7894Y33254I-20J197D01*
Y32860D02*
G01X7874D01*
Y31876*
X25335*
Y32860*
X25315*
Y33254D02*
G03X25315Y32860J-197D01*
Y33254D02*
G01X25925D01*
Y32860D02*
G03X25925Y33254J197D01*
Y32860D02*
G01X25728D01*
Y31876*
X33189*
Y38845*
X25728*
Y37860*
X25925*
Y37467D02*
G03X25925Y37860J197D01*
Y37467D02*
G01X25315D01*
Y37860D02*
G03X25315Y37467J-197D01*
Y37860D02*
G01X25335D01*
Y38845*
X7874*
Y37860*
X7894*
Y37467D02*
G03X7894Y37860J197D01*
Y37467D02*
G01X7283D01*
Y37860D02*
G03X7283Y37467J-197D01*
Y37860D02*
G01X7480D01*
Y38845*
X0*
Y31876*
X5061Y35360D02*
G03X5061Y35360I-1252D01*
X30652D02*
G03X30652Y35360I-1252D01*
X0Y31876D02*
G01X7480D01*
Y32860*
X7283*
Y33254D02*
G03X7283Y32860J-197D01*
Y33254D02*
G01X7894D01*
Y32860D02*
G03X7894Y33254I-20J197D01*
Y32860D02*
G01X7874D01*
Y31876*
X25335*
Y32860*
X25315*
Y33254D02*
G03X25315Y32860J-197D01*
Y33254D02*
G01X25925D01*
Y32860D02*
G03X25925Y33254J197D01*
Y32860D02*
G01X25728D01*
Y31876*
X33189*
Y38845*
X25728*
Y37860*
X25925*
Y37467D02*
G03X25925Y37860J197D01*
Y37467D02*
G01X25315D01*
Y37860D02*
G03X25315Y37467J-197D01*
Y37860D02*
G01X25335D01*
Y38845*
X7874*
Y37860*
X7894*
Y37467D02*
G03X7894Y37860J197D01*
Y37467D02*
G01X7283D01*
Y37860D02*
G03X7283Y37467J-197D01*
Y37860D02*
G01X7480D01*
Y38845*
X0*
Y31876*
X5061Y35360D02*
G03X5061Y35360I-1252D01*
X30652D02*
G03X30652Y35360I-1252D01*
G54D25*
X37189Y42845D02*
G01Y-4000D01*
Y42845D02*
G01Y-4000D01*
Y42845D02*
G01Y-4000D01*
G54D23*
X-4000D02*
G01Y42845D01*
X37189Y-4000D02*
G01Y42845D01*
X-4000Y-4000D02*
G01X37189D01*
X-4000Y42845D02*
G01X37189D01*
M02*
