G04 CAM350/DFMSTREAM V12.2 (Build 1155) Date:  Thu Aug 08 15:54:00 2019 *
G04 Database: C:\Users\ptome\Documents\Data - Open Quotes\PURDUE UNIVERSITY\CPC_MOCKUP_HDI_1X2_V2 REV 2.00\CPC_MOCKUP_HDI_1X2_V2 REV 2.00.cam *
G04 Layer 3: L1 *
%FSLAX44Y44*%
%MOIN*%
%SFA1.000B1.000*%

%MIA0B0*%
%IPPOS*%
%ADD10C,0.03937*%
%ADD13C,0.00394*%
%ADD19R,0.05512X0.05512*%
%ADD70R,0.01181X0.01181*%
%ADD71C,0.00591*%
%ADD20C,0.00295*%
%ADD21C,0.01800*%
%ADD23C,0.00500*%
%ADD25R,0.00394X0.01575*%
%LNL1*%
%LPD*%
G36*
X24618Y374D02*
G01Y571D01*
X24795*
Y374*
X24756Y335*
Y39*
X24657*
Y335*
X24618Y374*
G37*
G36*
X17020Y39D02*
G01Y295D01*
X17059Y335*
Y571*
X17157*
Y335*
X17197Y295*
Y39*
X17020*
G37*
G36*
X16016Y374D02*
G01Y571D01*
X16193*
Y374*
X16154Y335*
Y39*
X16055*
Y335*
X16016Y374*
G37*
G36*
X8417Y39D02*
G01Y295D01*
X8457Y335*
Y571*
X8555*
Y335*
X8594Y295*
Y39*
X8417*
G37*
G36*
X23319D02*
G01Y295D01*
X23358Y335*
Y571*
Y1142*
X23417Y1201*
X23949*
X24008Y1142*
Y571*
Y374*
X23969Y335*
Y39*
X23870*
Y335*
X23831Y374*
Y571*
Y630*
X23791Y669*
X23496*
X23457Y630*
Y571*
Y335*
X23496Y295*
Y39*
X23319*
G37*
G36*
X21587D02*
G01Y295D01*
X21626Y335*
Y571*
Y1142*
X21685Y1201*
X22217*
X22276Y1142*
Y571*
Y374*
X22236Y335*
Y39*
X22138*
Y335*
X22098Y374*
Y571*
Y630*
X22059Y669*
X21764*
X21724Y630*
Y571*
Y335*
X21764Y295*
Y39*
X21587*
G37*
G36*
X19539D02*
G01Y295D01*
X19579Y335*
Y571*
Y1142*
X19638Y1201*
X20169*
X20228Y1142*
Y571*
Y374*
X20189Y335*
Y39*
X20091*
Y335*
X20051Y374*
Y571*
Y630*
X20012Y669*
X19717*
X19677Y630*
Y571*
Y335*
X19717Y295*
Y39*
X19539*
G37*
G36*
X17768Y374D02*
G01Y571D01*
Y1142*
X17827Y1201*
X18358*
X18417Y1142*
Y571*
Y335*
X18457Y295*
Y39*
X18280*
Y295*
X18319Y335*
Y571*
Y630*
X18280Y669*
X17984*
X17945Y630*
Y571*
Y374*
X17906Y335*
Y39*
X17807*
Y335*
X17768Y374*
G37*
G36*
X14717Y39D02*
G01Y295D01*
X14756Y335*
Y571*
Y1142*
X14815Y1201*
X15346*
X15406Y1142*
Y571*
Y374*
X15366Y335*
Y39*
X15268*
Y335*
X15228Y374*
Y571*
Y630*
X15189Y669*
X14894*
X14854Y630*
Y571*
Y335*
X14894Y295*
Y39*
X14717*
G37*
G36*
X12984D02*
G01Y295D01*
X13024Y335*
Y571*
Y1142*
X13083Y1201*
X13614*
X13673Y1142*
Y571*
Y374*
X13634Y335*
Y39*
X13535*
Y335*
X13496Y374*
Y571*
Y630*
X13457Y669*
X13161*
X13122Y630*
Y571*
Y335*
X13161Y295*
Y39*
X12984*
G37*
G36*
X10937D02*
G01Y295D01*
X10976Y335*
Y571*
Y1142*
X11035Y1201*
X11567*
X11626Y1142*
Y571*
Y374*
X11587Y335*
Y39*
X11488*
Y335*
X11449Y374*
Y571*
Y630*
X11409Y669*
X11114*
X11075Y630*
Y571*
Y335*
X11114Y295*
Y39*
X10937*
G37*
G36*
X9165Y374D02*
G01Y571D01*
Y1142*
X9224Y1201*
X9756*
X9815Y1142*
Y571*
Y335*
X9854Y295*
Y39*
X9677*
Y295*
X9717Y335*
Y571*
Y630*
X9677Y669*
X9382*
X9343Y630*
Y571*
Y374*
X9303Y335*
Y39*
X9205*
Y335*
X9165Y374*
G37*
G36*
X23122D02*
G01Y571D01*
Y1496*
X23201Y1575*
X24185*
X24264Y1496*
Y748*
X24165Y650*
Y571*
Y335*
X24205Y295*
Y39*
X24028*
Y295*
X24067Y335*
Y571*
Y1181*
X23988Y1260*
X23378*
X23299Y1181*
Y571*
Y374*
X23260Y335*
Y39*
X23161*
Y335*
X23122Y374*
G37*
G36*
X21390D02*
G01Y571D01*
Y1496*
X21468Y1575*
X22453*
X22531Y1496*
Y748*
X22433Y650*
Y571*
Y335*
X22472Y295*
Y39*
X22295*
Y295*
X22335Y335*
Y571*
Y1181*
X22256Y1260*
X21646*
X21567Y1181*
Y571*
Y374*
X21528Y335*
Y39*
X21429*
Y335*
X21390Y374*
G37*
G36*
X19343D02*
G01Y571D01*
Y1496*
X19421Y1575*
X20406*
X20484Y1496*
Y748*
X20386Y650*
Y571*
Y335*
X20425Y295*
Y39*
X20248*
Y295*
X20287Y335*
Y571*
Y1181*
X20209Y1260*
X19598*
X19520Y1181*
Y571*
Y374*
X19480Y335*
Y39*
X19382*
Y335*
X19343Y374*
G37*
G36*
X14520D02*
G01Y571D01*
Y1496*
X14598Y1575*
X15583*
X15661Y1496*
Y748*
X15563Y650*
Y571*
Y335*
X15602Y295*
Y39*
X15425*
Y295*
X15465Y335*
Y571*
Y1181*
X15386Y1260*
X14776*
X14697Y1181*
Y571*
Y374*
X14657Y335*
Y39*
X14559*
Y335*
X14520Y374*
G37*
G36*
X12787D02*
G01Y571D01*
Y1496*
X12866Y1575*
X13850*
X13929Y1496*
Y748*
X13831Y650*
Y571*
Y335*
X13870Y295*
Y39*
X13693*
Y295*
X13732Y335*
Y571*
Y1181*
X13654Y1260*
X13043*
X12965Y1181*
Y571*
Y374*
X12925Y335*
Y39*
X12827*
Y335*
X12787Y374*
G37*
G36*
X10740D02*
G01Y571D01*
Y1496*
X10819Y1575*
X11803*
X11882Y1496*
Y748*
X11783Y650*
Y571*
Y335*
X11823Y295*
Y39*
X11646*
Y295*
X11685Y335*
Y571*
Y1181*
X11606Y1260*
X10996*
X10917Y1181*
Y571*
Y374*
X10878Y335*
Y39*
X10780*
Y335*
X10740Y374*
G37*
G36*
X17512Y748D02*
G01Y1496D01*
X17591Y1575*
X18575*
X18654Y1496*
Y571*
Y374*
X18614Y335*
Y39*
X18516*
Y335*
X18476Y374*
Y571*
Y1181*
X18398Y1260*
X17787*
X17709Y1181*
Y571*
Y335*
X17748Y295*
Y39*
X17571*
Y295*
X17610Y335*
Y571*
Y650*
X17512Y748*
G37*
G36*
X8909D02*
G01Y1496D01*
X8988Y1575*
X9972*
X10051Y1496*
Y571*
Y374*
X10012Y335*
Y39*
X9913*
Y335*
X9874Y374*
Y571*
Y1181*
X9795Y1260*
X9185*
X9106Y1181*
Y571*
Y335*
X9146Y295*
Y39*
X8969*
Y295*
X9008Y335*
Y571*
Y650*
X8909Y748*
G37*
G36*
X12598Y5138D02*
G01Y6319D01*
X15551*
X15748Y6122*
Y5335*
X15551Y5138*
X12598*
G37*
G36*
X8661Y5335D02*
G01Y6122D01*
X8858Y6319*
X11811*
Y5138*
X8858*
X8661Y5335*
G37*
G54D10*
X1841Y1575D03*
X31368D03*
G54D25*
X9449Y110D03*
X9370D03*
X8740D03*
X8819D03*
X9409Y504D03*
X8858D03*
X8898Y110D03*
X8780Y504D03*
X8701D03*
X8661Y110D03*
X10709D03*
X10394D03*
X10079D03*
X9606D03*
X9528D03*
X10591Y504D03*
X10551Y110D03*
X10512Y504D03*
X10472Y110D03*
X10354Y504D03*
X10433D03*
X10276D03*
X10315Y110D03*
X10197Y504D03*
X10236Y110D03*
X9646Y504D03*
X9567D03*
X9488D03*
X11417Y110D03*
X11339D03*
X11260D03*
X11181D03*
X12087Y504D03*
X12047Y110D03*
X12008Y504D03*
X11969Y110D03*
X11929Y504D03*
X11890Y110D03*
X11378Y504D03*
X11299D03*
X11220D03*
X11142D03*
X13386Y110D03*
X13307D03*
X13228D03*
X12756D03*
X13425Y504D03*
X13346D03*
X13268D03*
X13189D03*
X12638D03*
X12598Y110D03*
X12559Y504D03*
X12520Y110D03*
X12480Y504D03*
X12441Y110D03*
X12402Y504D03*
X12362Y110D03*
X12323Y504D03*
X12283Y110D03*
X12244Y504D03*
X12205Y110D03*
X12165Y504D03*
X12126Y110D03*
X14488D03*
X13465D03*
X14370Y504D03*
X14331Y110D03*
X14291Y504D03*
X14252Y110D03*
X14213Y504D03*
X14173Y110D03*
X14134Y504D03*
X14094Y110D03*
X14055Y504D03*
X14016Y110D03*
X13976Y504D03*
X13937Y110D03*
X15984D03*
X15197D03*
X15118D03*
X15039D03*
X14961D03*
X15866Y504D03*
X15827Y110D03*
X15787Y504D03*
X15748Y110D03*
X15709Y504D03*
X15669Y110D03*
X15157Y504D03*
X15079D03*
X15000D03*
X14921D03*
X17343Y110D03*
X17421D03*
X17382Y504D03*
X17303D03*
X17264Y110D03*
X18681D03*
X18209D03*
X18130D03*
X18051D03*
X17972D03*
X18248Y504D03*
X18169D03*
X18091D03*
X18012D03*
X17461D03*
X17500Y110D03*
X20020D03*
X19941D03*
X19862D03*
X19783D03*
X19311D03*
X18996D03*
X19980Y504D03*
X19902D03*
X19823D03*
X19744D03*
X19193D03*
X19154Y110D03*
X19114Y504D03*
X19075Y110D03*
X18957Y504D03*
X19035D03*
X18878D03*
X18917Y110D03*
X18799Y504D03*
X18839Y110D03*
X21358D03*
X21240Y504D03*
X21201Y110D03*
X21161Y504D03*
X21122Y110D03*
X21083Y504D03*
X21043Y110D03*
X21004Y504D03*
X20965Y110D03*
X20925Y504D03*
X20886Y110D03*
X20846Y504D03*
X20807Y110D03*
X20768Y504D03*
X20728Y110D03*
X20689Y504D03*
X20650Y110D03*
X20610Y504D03*
X20571Y110D03*
X20531Y504D03*
X20492Y110D03*
X22067D03*
X21988D03*
X21909D03*
X21831D03*
X22736Y504D03*
X22697Y110D03*
X22657Y504D03*
X22618Y110D03*
X22579Y504D03*
X22539Y110D03*
X22028Y504D03*
X21949D03*
X21870D03*
X21791D03*
X23799Y110D03*
X23720D03*
X23642D03*
X23563D03*
X23091D03*
X23760Y504D03*
X23681D03*
X23602D03*
X23524D03*
X22972D03*
X22933Y110D03*
X22894Y504D03*
X22854Y110D03*
X22815Y504D03*
X22776Y110D03*
X24587D03*
X24469Y504D03*
X24429Y110D03*
X24390Y504D03*
X24350Y110D03*
X24311Y504D03*
X24272Y110D03*
G54D21*
X9488Y5866D03*
X8898D03*
Y6161D03*
X9488D03*
X9193D03*
Y5866D03*
X8898Y5276D03*
X9193D03*
X9488D03*
X8898Y5571D03*
X9193D03*
X9488D03*
X9961Y807D03*
Y1398D03*
X9016D03*
Y807D03*
G54D70*
X9478Y1348D03*
G54D25*
X9882Y504D03*
X9961D03*
X10039D03*
X9921Y110D03*
X10000D03*
X9016Y504D03*
X9094D03*
X8976Y110D03*
X9055D03*
X9134D03*
G54D21*
X9673Y807D03*
Y1004D03*
X9280Y807D03*
Y1004D03*
G54D70*
X9478Y1112D03*
G54D25*
X9724Y504D03*
X9803D03*
X9685Y110D03*
X9764D03*
X9843D03*
X9173Y504D03*
X9252D03*
X9331D03*
X9213Y110D03*
X9291D03*
G54D21*
X11772Y807D03*
Y1398D03*
X10827D03*
Y807D03*
G54D70*
X11289Y1348D03*
G54D25*
X10827Y504D03*
X10906D03*
X11693D03*
X11772D03*
X10866Y110D03*
X11654D03*
X11732D03*
X11811D03*
X10748Y504D03*
X10787Y110D03*
G54D21*
X11091Y807D03*
X11484D03*
Y1004D03*
X11091D03*
G54D70*
X11289Y1112D03*
G54D25*
X10984Y504D03*
X11063D03*
X11457D03*
X11535D03*
X11614D03*
X10945Y110D03*
X11024D03*
X11102D03*
X11496D03*
X11575D03*
G54D21*
X13138Y807D03*
X13531D03*
Y1004D03*
X13138D03*
G54D70*
X13337Y1112D03*
G54D25*
X13504Y504D03*
X13583D03*
X13661D03*
X13543Y110D03*
X13622D03*
X13031Y504D03*
X13110D03*
X12992Y110D03*
X13071D03*
X13150D03*
G54D21*
X13819Y1398D03*
Y807D03*
X12874Y1398D03*
Y807D03*
G54D70*
X13337Y1348D03*
G54D25*
X13740Y504D03*
X13819D03*
X13701Y110D03*
X13780D03*
X13858D03*
X12795Y504D03*
X12874D03*
X12953D03*
X12835Y110D03*
X12913D03*
G54D21*
X15551Y1398D03*
Y807D03*
X14606Y1398D03*
Y807D03*
G54D70*
X15069Y1348D03*
G54D25*
X15472Y504D03*
X15551D03*
X15433Y110D03*
X15512D03*
X15591D03*
X14528Y504D03*
X14606D03*
X14685D03*
X14567Y110D03*
X14646D03*
G54D21*
X15264Y807D03*
Y1004D03*
X14870Y807D03*
Y1004D03*
G54D70*
X15069Y1112D03*
G54D25*
X14843Y504D03*
X15236D03*
X15315D03*
X15394D03*
X14803Y110D03*
X14882D03*
X15276D03*
X15354D03*
X14764Y504D03*
X14724Y110D03*
G54D21*
X15236Y5866D03*
X14941D03*
Y6161D03*
X15236D03*
X15531D03*
Y5866D03*
X14941Y5276D03*
X15236D03*
X14941Y5571D03*
X15236D03*
X15531D03*
Y5276D03*
X18563Y807D03*
Y1398D03*
X17618D03*
Y807D03*
G54D70*
X18081Y1348D03*
G54D25*
X17618Y504D03*
X17697D03*
X18484D03*
X18563D03*
X18642D03*
X17579Y110D03*
X17657D03*
X17736D03*
X18524D03*
X18602D03*
G54D21*
X17882Y1004D03*
X18276D03*
Y807D03*
X17882D03*
G54D70*
X18081Y1112D03*
G54D25*
X17776Y504D03*
X17854D03*
X17933D03*
X18327D03*
X18406D03*
X17815Y110D03*
X17894D03*
X18287D03*
X18366D03*
X18445D03*
G54D21*
X19693Y1004D03*
X20087D03*
Y807D03*
X19693D03*
G54D70*
X19892Y1112D03*
G54D25*
X20138Y504D03*
X20217D03*
X20098Y110D03*
X20177D03*
X19587Y504D03*
X19665D03*
X20059D03*
X19547Y110D03*
X19626D03*
X19705D03*
G54D21*
X20374Y807D03*
Y1398D03*
X19429D03*
Y807D03*
G54D70*
X19892Y1348D03*
G54D25*
X20295Y504D03*
X20374D03*
X20256Y110D03*
X20335D03*
X20413D03*
X19350Y504D03*
X19429D03*
X19508D03*
X19390Y110D03*
X19469D03*
G54D21*
X22421Y807D03*
Y1398D03*
X21476D03*
Y807D03*
G54D70*
X21939Y1348D03*
G54D25*
X21476Y504D03*
X21555D03*
X22343D03*
X22421D03*
X21437Y110D03*
X21516D03*
X22303D03*
X22382D03*
X22461D03*
X21398Y504D03*
G54D21*
X21740Y1004D03*
X22134D03*
Y807D03*
X21740D03*
G54D70*
X21939Y1112D03*
G54D25*
X21634Y504D03*
X21713D03*
X22106D03*
X22185D03*
X22264D03*
X21594Y110D03*
X21673D03*
X21752D03*
X22146D03*
X22224D03*
G54D21*
X23209Y1398D03*
X24154D03*
Y807D03*
X23209D03*
G54D70*
X23671Y1348D03*
G54D25*
X24075Y504D03*
X24154D03*
X24114Y110D03*
X24193D03*
X23130Y504D03*
X23209D03*
X23287D03*
X23169Y110D03*
X23248D03*
X24035D03*
G54D21*
X23866Y1004D03*
Y807D03*
X23472D03*
Y1004D03*
G54D70*
X23671Y1112D03*
G54D25*
X23366Y504D03*
X23445D03*
X23839D03*
X23917D03*
X23996D03*
X23327Y110D03*
X23406D03*
X23484D03*
X23878D03*
X23957D03*
G54D19*
X9449Y4350D03*
G54D21*
Y3760D03*
G54D19*
Y3169D03*
G54D25*
X8937Y504D03*
G54D19*
X8661Y3169D03*
G54D25*
X8622Y504D03*
G54D19*
X8661Y4350D03*
G54D25*
X8465Y504D03*
X8543D03*
X8425Y110D03*
X8504D03*
X8583D03*
G54D19*
X10236Y3169D03*
G54D25*
X10118Y504D03*
X10157Y110D03*
G54D19*
X10236Y4350D03*
G54D25*
X10669Y504D03*
X10630Y110D03*
G54D19*
X11811Y4350D03*
G54D25*
X12717Y504D03*
X12677Y110D03*
G54D19*
X11811Y3169D03*
G54D25*
X11850Y504D03*
G54D19*
X14193Y3169D03*
G54D25*
X14449Y504D03*
X14409Y110D03*
G54D19*
X14193Y4350D03*
G54D25*
X13898Y504D03*
G54D19*
X15354Y4350D03*
G54D25*
X15630Y504D03*
G54D19*
X16142Y3169D03*
G54D25*
X16181Y504D03*
X16142Y110D03*
X16024Y504D03*
X16102D03*
X16063Y110D03*
G54D19*
X16142Y4350D03*
G54D21*
Y3760D03*
G54D19*
X15354Y3169D03*
G54D25*
X15945Y504D03*
X15906Y110D03*
G54D19*
X17323Y4350D03*
G54D25*
X17067Y504D03*
X17146D03*
X17028Y110D03*
X17106D03*
X17185D03*
G54D19*
X17323Y3169D03*
G54D25*
X17224Y504D03*
G54D19*
X18898Y3169D03*
G54D25*
X18720Y504D03*
X18760Y110D03*
G54D19*
X18110Y4350D03*
G54D21*
Y3760D03*
G54D19*
Y3169D03*
G54D25*
X17539Y504D03*
G54D19*
X18898Y4350D03*
G54D25*
X19272Y504D03*
X19232Y110D03*
G54D19*
X20472Y4350D03*
G54D25*
X21319Y504D03*
X21280Y110D03*
G54D19*
X20472Y3169D03*
G54D25*
X20453Y504D03*
G54D19*
X22953Y4311D03*
G54D25*
X22500Y504D03*
G54D19*
X22972Y3150D03*
G54D25*
X23051Y504D03*
X23012Y110D03*
G54D19*
X24016Y3169D03*
G54D25*
X24547Y504D03*
X24508Y110D03*
G54D19*
X24016Y4350D03*
G54D25*
X24232Y504D03*
G54D19*
X24803Y3169D03*
G54D25*
X24626Y504D03*
X24705D03*
X24783D03*
X24665Y110D03*
X24744D03*
G54D19*
X24803Y4350D03*
G54D21*
Y3760D03*
G54D13*
X8740Y110D02*
G01X8819D01*
X8898D02*
G01Y307D01*
X8858Y346*
Y504*
X8701D02*
G01Y323D01*
X8661Y283*
Y110*
X10591Y504D02*
G01Y355D01*
X10551Y316*
Y110*
X10472D02*
G01Y349D01*
X10512Y388*
Y504*
X10354D02*
G01X10433D01*
X10315Y110D02*
G01Y327D01*
X10276Y366*
Y504*
X10236Y110D02*
G01Y294D01*
X10197Y334*
Y504*
X12087D02*
G01Y360D01*
X12047Y236*
Y110*
X12008Y504D02*
G01Y360D01*
X11969Y236*
Y110*
X11929Y504D02*
G01Y360D01*
X11890Y236*
Y110*
X12638Y504D02*
G01Y360D01*
X12598Y236*
Y110*
X12559Y504D02*
G01Y360D01*
X12520Y236*
Y110*
X12480Y504D02*
G01Y360D01*
X12441Y236*
Y110*
X12402Y504D02*
G01Y360D01*
X12362Y236*
Y110*
X12323Y504D02*
G01Y360D01*
X12283Y236*
Y110*
X12244Y504D02*
G01Y360D01*
X12205Y236*
Y110*
X12165Y504D02*
G01Y360D01*
X12126Y236*
Y110*
X14370Y504D02*
G01Y360D01*
X14331Y236*
Y110*
X14291Y504D02*
G01Y360D01*
X14252Y236*
Y110*
X14213Y504D02*
G01Y360D01*
X14173Y236*
Y110*
X14134Y504D02*
G01Y360D01*
X14094Y236*
Y110*
X14055Y504D02*
G01Y360D01*
X14016Y236*
Y110*
X13976Y504D02*
G01Y360D01*
X13937Y236*
Y110*
X15866Y504D02*
G01Y360D01*
X15827Y236*
Y110*
X15787Y504D02*
G01Y360D01*
X15748Y236*
Y110*
X15709Y504D02*
G01Y360D01*
X15669Y236*
Y110*
X17343D02*
G01X17421D01*
X17303Y504D02*
G01Y323D01*
X17264Y283*
Y110*
X17500D02*
G01Y307D01*
X17461Y346*
Y504*
X19193D02*
G01Y355D01*
X19154Y316*
Y110*
X19075D02*
G01Y349D01*
X19114Y388*
Y504*
G54D20*
X18957D02*
G01X19035D01*
G54D13*
X18917Y110D02*
G01Y327D01*
X18878Y366*
Y504*
X18839Y110D02*
G01Y294D01*
X18799Y334*
Y504*
X21240D02*
G01Y360D01*
X21201Y236*
Y110*
X21161Y504D02*
G01Y360D01*
X21122Y236*
Y110*
X21083Y504D02*
G01Y360D01*
X21043Y236*
Y110*
X21004Y504D02*
G01Y360D01*
X20965Y236*
Y110*
X20925Y504D02*
G01Y360D01*
X20886Y236*
Y110*
X20846Y504D02*
G01Y360D01*
X20807Y236*
Y110*
X20768Y504D02*
G01Y360D01*
X20728Y236*
Y110*
X20689Y504D02*
G01Y360D01*
X20650Y236*
Y110*
X20610Y504D02*
G01Y360D01*
X20571Y236*
Y110*
X20531Y504D02*
G01Y360D01*
X20492Y236*
Y110*
X22736Y504D02*
G01Y360D01*
X22697Y236*
Y110*
X22657Y504D02*
G01Y360D01*
X22618Y236*
Y110*
X22579Y504D02*
G01Y360D01*
X22539Y236*
Y110*
X22972Y504D02*
G01Y360D01*
X22933Y236*
Y110*
X22894Y504D02*
G01Y360D01*
X22854Y236*
Y110*
X22815Y504D02*
G01Y360D01*
X22776Y236*
Y110*
X24469Y504D02*
G01Y360D01*
X24429Y236*
Y110*
X24390Y504D02*
G01Y360D01*
X24350Y236*
Y110*
X24311Y504D02*
G01Y360D01*
X24272Y236*
Y110*
G54D71*
X9449Y4350D02*
G01Y3760D01*
G54D13*
X8937Y504D02*
G01Y610D01*
X8819Y728*
G54D71*
Y728D02*
G01Y2539D01*
X9449Y3169*
G54D13*
X8622Y504D02*
G01Y650D01*
X8661Y689*
G54D71*
Y689D02*
G01Y3169D01*
G54D13*
X8465Y504D02*
G01Y650D01*
G54D71*
Y650D02*
G01X8268Y846D01*
Y3957*
X8661Y4350*
G54D13*
X10157Y110D02*
G01Y261D01*
X10118Y301*
Y504*
Y504D02*
G01Y647D01*
X10236Y766*
G54D71*
Y766D02*
G01Y3169D01*
G54D13*
X10669Y504D02*
G01Y293D01*
X10630Y254*
Y110*
X10669Y504D02*
G01Y650D01*
X10630Y689*
G54D71*
Y689D02*
G01Y3957D01*
X10236Y4350*
G54D13*
X12717Y504D02*
G01Y709D01*
X12638Y787*
X12717Y504D02*
G01Y360D01*
X12677Y236*
Y110*
G54D71*
X12638Y787D02*
G01X12224Y1201D01*
Y3937*
X11811Y4350*
G54D13*
X11850Y504D02*
G01Y610D01*
X12037Y797*
G54D71*
Y797D02*
G01Y2352D01*
X11811Y2579*
Y3169*
G54D13*
X14449Y504D02*
G01Y360D01*
X14409Y236*
Y110*
X14449Y504D02*
G01Y650D01*
X14409Y689*
G54D71*
Y689D02*
G01X14407D01*
X14193Y903*
Y3169*
G54D13*
X13898Y504D02*
G01Y610D01*
X14016Y728*
G54D71*
Y728D02*
G01Y2224D01*
X13799Y2441*
Y3957*
X14193Y4350*
G54D13*
X15630Y504D02*
G01Y610D01*
X15748Y728*
G54D71*
Y728D02*
G01Y1594D01*
X14921Y2421*
Y3917*
X15354Y4350*
G54D13*
X16181Y504D02*
G01Y650D01*
X16142Y689*
G54D71*
Y689D02*
G01Y3169D01*
Y4350D02*
G01Y3760D01*
G54D13*
X15945Y504D02*
G01Y360D01*
X15906Y236*
Y110*
X15945Y504D02*
G01Y647D01*
G54D71*
Y647D02*
G01Y2579D01*
X15354Y3169*
G54D13*
X17067Y504D02*
G01Y650D01*
G54D71*
Y650D02*
G01X16909Y807D01*
Y3937*
X17323Y4350*
G54D13*
X17146Y728D02*
G01X17224Y650D01*
Y504*
G54D71*
X17323Y3169D02*
G01Y2697D01*
X17146Y2520*
Y728*
G54D13*
X18760Y110D02*
G01Y261D01*
X18720Y301*
Y504*
X18898Y825D02*
G01X18720Y647D01*
Y504*
G54D71*
X18898Y3169D02*
G01Y825D01*
X18110Y4350D02*
G01Y3760D01*
G54D13*
X17539Y504D02*
G01Y629D01*
X17382Y786*
G54D71*
Y786D02*
G01Y2441D01*
X18110Y3169*
G54D13*
X19272Y504D02*
G01Y293D01*
X19232Y254*
Y110*
X19272Y504D02*
G01Y650D01*
X19154Y768*
G54D71*
Y768D02*
G01Y2638D01*
X19291Y2776*
Y3957*
X18898Y4350*
G54D13*
X21319Y504D02*
G01Y360D01*
X21280Y236*
Y110*
X21319Y504D02*
G01Y689D01*
X21260Y748*
G54D71*
Y748D02*
G01X20886Y1122D01*
Y3937*
X20472Y4350*
G54D13*
X20453Y504D02*
G01Y610D01*
X20640Y797*
G54D71*
Y797D02*
G01Y2352D01*
X20472Y2520*
Y3169*
G54D13*
X22500Y504D02*
G01Y610D01*
X22657Y768*
G54D71*
Y768D02*
G01Y1575D01*
X22520Y1713*
Y3878*
X22953Y4311*
G54D13*
X23012Y110D02*
G01Y236D01*
X23051Y360*
Y504*
Y504D02*
G01Y647D01*
X22972Y726*
G54D71*
Y726D02*
G01Y3150D01*
G54D13*
X24547Y504D02*
G01Y647D01*
X24587Y687*
X24547Y504D02*
G01Y360D01*
X24508Y236*
Y110*
G54D71*
X24587Y687D02*
G01Y2598D01*
X24016Y3169*
G54D13*
X24232Y504D02*
G01Y610D01*
X24350Y728*
G54D71*
Y728D02*
G01Y1575D01*
X23602Y2323*
Y3937*
X24016Y4350*
G54D13*
X24803Y689D02*
G01X24783Y669D01*
Y504*
G54D71*
X24803Y3169D02*
G01Y689D01*
Y4350D02*
G01Y3760D01*
G54D23*
X0Y0D02*
G01X7480D01*
Y984*
X7283*
Y1378D02*
G75*
G03X7283Y984J-197D01*
Y1378D02*
G01X7894D01*
Y984D02*
G03X7894Y1378I-20J197D01*
Y984D02*
G01X7874D01*
Y0*
X25335*
Y984*
X25315*
Y1378D02*
G03X25315Y984J-197D01*
Y1378D02*
G01X25925D01*
Y984D02*
G03X25925Y1378J197D01*
Y984D02*
G01X25728D01*
Y0*
X33189*
Y6969*
X25728*
Y5984*
X25925*
Y5591D02*
G03X25925Y5984J197D01*
Y5591D02*
G01X25315D01*
Y5984D02*
G03X25315Y5591J-197D01*
Y5984D02*
G01X25335D01*
Y6969*
X7874*
Y5984*
X7894*
Y5591D02*
G03X7894Y5984J197D01*
Y5591D02*
G01X7283D01*
Y5984D02*
G03X7283Y5591J-197D01*
Y5984D02*
G01X7480D01*
Y6969*
X0*
Y0*
X5061Y3484D02*
G03X5061Y3484I-1252D01*
X30652D02*
G03X30652Y3484I-1252D01*
X0Y0D02*
G01X7480D01*
Y984*
X7283*
Y1378D02*
G03X7283Y984J-197D01*
Y1378D02*
G01X7894D01*
Y984D02*
G03X7894Y1378I-20J197D01*
Y984D02*
G01X7874D01*
Y0*
X25335*
Y984*
X25315*
Y1378D02*
G03X25315Y984J-197D01*
Y1378D02*
G01X25925D01*
Y984D02*
G03X25925Y1378J197D01*
Y984D02*
G01X25728D01*
Y0*
X33189*
Y6969*
X25728*
Y5984*
X25925*
Y5591D02*
G03X25925Y5984J197D01*
Y5591D02*
G01X25315D01*
Y5984D02*
G03X25315Y5591J-197D01*
Y5984D02*
G01X25335D01*
Y6969*
X7874*
Y5984*
X7894*
Y5591D02*
G03X7894Y5984J197D01*
Y5591D02*
G01X7283D01*
Y5984D02*
G03X7283Y5591J-197D01*
Y5984D02*
G01X7480D01*
Y6969*
X0*
Y0*
X5061Y3484D02*
G03X5061Y3484I-1252D01*
X30652D02*
G03X30652Y3484I-1252D01*
M02*
