G04 CAM350/DFMSTREAM V12.2 (Build 1155) Date:  Thu Aug 08 15:54:00 2019 *
G04 Database: C:\Users\ptome\Documents\Data - Open Quotes\PURDUE UNIVERSITY\CPC_MOCKUP_HDI_1X2_V2 REV 2.00\CPC_MOCKUP_HDI_1X2_V2 REV 2.00.cam *
G04 Layer 1: L1_Silkscreen *
%FSLAX44Y44*%
%MOIN*%
%SFA1.000B1.000*%

%MIA0B0*%
%IPPOS*%
%ADD13C,0.00394*%
%ADD23C,0.00500*%
%LNL1_Silkscreen*%
%LPD*%
G36*
X24921Y4921D02*
G01X18504D01*
X18494Y4931*
X18484Y4921*
X16575*
X16535Y4961*
Y6654*
X16594Y6713*
X18504*
X24941*
X25000Y6654*
Y5000*
X24921Y4921*
G37*
G54D13*
X7854Y2106D02*
G01Y1319D01*
Y3287D02*
G01Y2500D01*
Y4469D02*
G01Y3681D01*
Y5650D02*
G01Y4862D01*
X9055Y4783D02*
G01X8268D01*
Y2776*
X9055*
Y4783*
X9843D02*
G01X9055D01*
Y2776*
X9843*
Y4783*
Y4783D02*
G01X9055D01*
Y2776*
X9843*
Y4783*
X10630D02*
G01X9843D01*
Y2776*
X10630*
Y4783*
Y4783D02*
G01X9843D01*
Y2776*
X10630*
Y4783*
X12205Y4744D02*
G01X11417D01*
Y2736*
X12205*
Y4744*
Y4744D02*
G01X11417D01*
Y2736*
X12205*
Y4744*
X14587D02*
G01X13799D01*
Y2736*
X14587*
Y4744*
X15709D02*
G01X14921D01*
Y2736*
X15709*
Y4744*
X16535D02*
G01X15748D01*
Y2736*
X16535*
Y4744*
X17717Y4783D02*
G01X16929D01*
Y2776*
X17717*
Y4783*
X18504D02*
G01X17717D01*
Y2776*
X18504*
Y4783*
X19291D02*
G01X18504D01*
Y2776*
X19291*
Y4783*
X20866D02*
G01X20079D01*
Y2776*
X20866*
Y4783*
X23327Y4764D02*
G01X22539D01*
Y2756*
X23327*
Y4764*
X24409Y4744D02*
G01X23622D01*
Y2736*
X24409*
Y4744*
X25197D02*
G01X24409D01*
Y2736*
X25197*
Y4744*
X25354Y2106D02*
G01Y1319D01*
Y3287D02*
G01Y2500D01*
Y4469D02*
G01Y3681D01*
Y5650D02*
G01Y4862D01*
X7275Y1656D02*
G01X7259Y1633D01*
X7249Y1606*
Y1576*
X7265Y1541*
X7290Y1514*
X7321Y1495*
X7373Y1480*
X7420Y1476*
X7466Y1484*
X7497Y1495*
X7528Y1518*
X7549Y1545*
X7559Y1572*
Y1599*
X7549Y1625*
X7533Y1648*
X7513Y1668*
X7249Y1797D02*
G01X7471D01*
X7518Y1813*
X7549Y1843*
X7559Y1882*
X7549Y1920*
X7518Y1951*
X7471Y1966*
X7249*
Y2192D02*
G01X7559D01*
X7249Y2104D02*
G01Y2280D01*
X7275Y3206D02*
G01X7259Y3183D01*
X7249Y3156*
Y3126*
X7265Y3091*
X7290Y3064*
X7321Y3045*
X7373Y3030*
X7420Y3026*
X7466Y3034*
X7497Y3045*
X7528Y3068*
X7549Y3095*
X7559Y3122*
Y3149*
X7549Y3175*
X7533Y3198*
X7513Y3218*
X7249Y3347D02*
G01X7471D01*
X7518Y3363*
X7549Y3393*
X7559Y3432*
X7549Y3470*
X7518Y3501*
X7471Y3516*
X7249*
Y3742D02*
G01X7559D01*
X7249Y3654D02*
G01Y3830D01*
X7275Y4756D02*
G01X7259Y4733D01*
X7249Y4706*
Y4676*
X7265Y4641*
X7290Y4614*
X7321Y4595*
X7373Y4580*
X7420Y4576*
X7466Y4584*
X7497Y4595*
X7528Y4618*
X7549Y4645*
X7559Y4672*
Y4699*
X7549Y4725*
X7533Y4748*
X7513Y4768*
X7249Y4897D02*
G01X7471D01*
X7518Y4913*
X7549Y4943*
X7559Y4982*
X7549Y5020*
X7518Y5051*
X7471Y5066*
X7249*
Y5292D02*
G01X7559D01*
X7249Y5204D02*
G01Y5380D01*
X9518Y994D02*
G01X9596D01*
Y1467*
X9360*
Y994*
X9439*
X8776Y2219D02*
G01Y1909D01*
X8688Y2219D02*
G01X8865D01*
X9014Y1909D02*
G01Y2219D01*
X9159*
X9106Y2070D02*
G01X9014D01*
X9320Y1909D02*
G01Y2219D01*
X9412*
X9442Y2204*
X9465Y2168*
X9473Y2126*
X9465Y2085*
X9446Y2054*
X9412Y2039*
X9320*
X9626Y1909D02*
G01X9787Y2219D01*
X9626D02*
G01X9787Y1909D01*
X10326Y2219D02*
G01Y1909D01*
X10238Y2219D02*
G01X10415D01*
X10556Y1909D02*
G01Y2219D01*
X10717D02*
G01Y1909D01*
Y2064D02*
G01X10556D01*
X11023Y1909D02*
G01X10870D01*
Y2219*
X11023*
X10962Y2070D02*
G01X10870D01*
X11180Y1909D02*
G01Y2219D01*
X11276*
X11306Y2204*
X11325Y2183*
X11333Y2142*
X11325Y2101*
X11302Y2075*
X11276Y2059*
X11180*
X11276D02*
G01X11333Y1909D01*
X11467D02*
G01Y2219D01*
X11566Y1961*
X11666Y2219*
Y1909*
X11781D02*
G01X11876Y2219D01*
X11972Y1909*
X11938Y2018D02*
G01X11815D01*
X12110Y2219D02*
G01Y1909D01*
X12263*
X12707D02*
G01Y2219D01*
X12806Y1961*
X12906Y2219*
Y1909*
X13116D02*
G01X13086Y1915D01*
X13059Y1935*
X13036Y1966*
X13021Y2002*
X13013Y2044*
Y2085*
X13021Y2126*
X13036Y2163*
X13059Y2194*
X13086Y2214*
X13116Y2219*
X13147Y2214*
X13174Y2194*
X13197Y2163*
X13212Y2126*
X13220Y2085*
Y2044*
X13212Y2002*
X13197Y1966*
X13174Y1935*
X13147Y1915*
X13116Y1909*
X13511Y2194D02*
G01X13488Y2209D01*
X13461Y2219*
X13430*
X13396Y2204*
X13369Y2178*
X13350Y2147*
X13334Y2095*
X13331Y2049*
X13338Y2002*
X13350Y1971*
X13373Y1940*
X13400Y1920*
X13426Y1909*
X13453*
X13480Y1920*
X13503Y1935*
X13522Y1956*
X13652Y1909D02*
G01Y2219D01*
X13798D02*
G01X13652Y2028D01*
X13821Y1909D02*
G01X13717Y2116D01*
X13962Y2219D02*
G01Y1997D01*
X13977Y1951*
X14008Y1920*
X14046Y1909*
X14085Y1920*
X14115Y1951*
X14131Y1997*
Y2219*
X14280Y1909D02*
G01Y2219D01*
X14372*
X14402Y2204*
X14425Y2168*
X14433Y2126*
X14425Y2085*
X14406Y2054*
X14372Y2039*
X14280*
X14881Y2219D02*
G01X14976Y1909D01*
X15072Y2219*
X15214Y2168D02*
G01X15237Y2199D01*
X15263Y2214*
X15294Y2219*
X15332Y2209*
X15359Y2183*
X15367Y2152*
X15363Y2121*
X15348Y2095*
X15271Y2044*
X15237Y2008*
X15214Y1956*
X15206Y1909*
X15367*
X15596Y1899D02*
G01X15589Y1904D01*
Y1915*
X15596Y1920*
X15604Y1915*
Y1904*
X15596Y1899*
X15906Y2219D02*
G01X15876Y2209D01*
X15853Y2183*
X15837Y2152*
X15826Y2111*
X15822Y2064*
X15826Y2018*
X15837Y1977*
X15853Y1946*
X15876Y1920*
X15906Y1909*
X15937Y1920*
X15960Y1946*
X15975Y1977*
X15987Y2018*
X15991Y2064*
X15987Y2111*
X15975Y2152*
X15960Y2183*
X15937Y2209*
X15906Y2219*
X16216Y1909D02*
G01Y2219D01*
X16170Y2157*
Y1909D02*
G01X16262D01*
X16760D02*
G01Y2219D01*
X16852*
X16882Y2204*
X16905Y2168*
X16913Y2126*
X16905Y2085*
X16886Y2054*
X16852Y2039*
X16760*
X17062Y2219D02*
G01Y1997D01*
X17077Y1951*
X17108Y1920*
X17146Y1909*
X17185Y1920*
X17215Y1951*
X17231Y1997*
Y2219*
X17380Y1909D02*
G01Y2219D01*
X17476*
X17506Y2204*
X17525Y2183*
X17533Y2142*
X17525Y2101*
X17502Y2075*
X17476Y2059*
X17380*
X17476D02*
G01X17533Y1909D01*
X17682D02*
G01Y2219D01*
X17759*
X17789Y2204*
X17812Y2183*
X17832Y2152*
X17847Y2116*
X17851Y2064*
X17847Y2013*
X17832Y1977*
X17812Y1946*
X17789Y1925*
X17759Y1909*
X17682*
X17992Y2219D02*
G01Y1997D01*
X18007Y1951*
X18038Y1920*
X18076Y1909*
X18115Y1920*
X18145Y1951*
X18161Y1997*
Y2219*
X18463Y1909D02*
G01X18310D01*
Y2219*
X18463*
X18402Y2070D02*
G01X18310D01*
X18926Y1909D02*
G01Y2219D01*
X19087D02*
G01Y1909D01*
Y2064D02*
G01X18926D01*
X19393Y1909D02*
G01X19240D01*
Y2219*
X19393*
X19332Y2070D02*
G01X19240D01*
X19550Y1909D02*
G01Y2219D01*
X19642*
X19672Y2204*
X19695Y2168*
X19703Y2126*
X19695Y2085*
X19676Y2054*
X19642Y2039*
X19550*
X20556Y1909D02*
G01X20583Y1915D01*
X20614Y1930*
X20633Y1956*
X20641Y1992*
X20633Y2028*
X20610Y2059*
X20576Y2075*
X20537*
X20514Y2085*
X20495Y2111*
X20487Y2147*
X20499Y2183*
X20526Y2209*
X20556Y2219*
X20587Y2209*
X20614Y2183*
X20625Y2147*
X20618Y2111*
X20599Y2085*
X20576Y2075*
X20537*
X20503Y2059*
X20480Y2028*
X20472Y1992*
X20480Y1956*
X20499Y1930*
X20530Y1915*
X20556Y1909*
X20817Y2013D02*
G01X20916D01*
X21081Y1909D02*
G01X21176Y2219D01*
X21272Y1909*
X21238Y2018D02*
G01X21115D01*
X21402Y2219D02*
G01Y1997D01*
X21417Y1951*
X21448Y1920*
X21486Y1909*
X21525Y1920*
X21555Y1951*
X21571Y1997*
Y2219*
X21819Y2064D02*
G01X21896D01*
Y1971*
X21873Y1940*
X21846Y1920*
X21808Y1909*
X21770Y1920*
X21743Y1940*
X21720Y1971*
X21704Y2008*
X21697Y2049*
Y2085*
X21704Y2116*
X21720Y2152*
X21743Y2183*
X21766Y2204*
X21796Y2219*
X21823*
X21854Y2209*
X21877Y2188*
X22057Y2013D02*
G01X22156D01*
X22344Y2168D02*
G01X22367Y2199D01*
X22393Y2214*
X22424Y2219*
X22462Y2209*
X22489Y2183*
X22497Y2152*
X22493Y2121*
X22478Y2095*
X22401Y2044*
X22367Y2008*
X22344Y1956*
X22336Y1909*
X22497*
X22726Y2219D02*
G01X22696Y2209D01*
X22673Y2183*
X22657Y2152*
X22646Y2111*
X22642Y2064*
X22646Y2018*
X22657Y1977*
X22673Y1946*
X22696Y1920*
X22726Y1909*
X22757Y1920*
X22780Y1946*
X22795Y1977*
X22807Y2018*
X22811Y2064*
X22807Y2111*
X22795Y2152*
X22780Y2183*
X22757Y2209*
X22726Y2219*
X23036Y1909D02*
G01Y2219D01*
X22990Y2157*
Y1909D02*
G01X23082D01*
X23281Y1946D02*
G01X23308Y1920D01*
X23339Y1909*
X23369Y1920*
X23396Y1951*
X23415Y1997*
X23423Y2044*
Y2101*
X23415Y2147*
X23396Y2188*
X23373Y2209*
X23346Y2219*
X23316Y2209*
X23293Y2188*
X23277Y2157*
X23270Y2116*
X23277Y2080*
X23297Y2044*
X23320Y2023*
X23346Y2018*
X23377Y2028*
X23400Y2054*
X23423Y2101*
X9942Y1194D02*
G01X9926Y1206D01*
X9907Y1215*
X9886*
X9862Y1202*
X9843Y1181*
X9830Y1156*
X9819Y1115*
X9816Y1077*
X9822Y1040*
X9830Y1015*
X9846Y990*
X9864Y973*
X9883Y965*
X9902*
X9920Y973*
X9936Y985*
X9950Y1002*
X10103Y965D02*
G01Y1215D01*
X10071Y1165*
Y965D02*
G01X10135D01*
X11753Y1194D02*
G01X11737Y1206D01*
X11718Y1215*
X11697*
X11673Y1202*
X11654Y1181*
X11641Y1156*
X11630Y1115*
X11628Y1077*
X11633Y1040*
X11641Y1015*
X11657Y990*
X11676Y973*
X11694Y965*
X11713*
X11731Y973*
X11748Y985*
X11761Y1002*
X11864Y1173D02*
G01X11879Y1198D01*
X11898Y1210*
X11919Y1215*
X11946Y1206*
X11965Y1185*
X11970Y1160*
X11968Y1135*
X11957Y1115*
X11904Y1073*
X11879Y1044*
X11864Y1002*
X11858Y965*
X11970*
X11329Y994D02*
G01X11407D01*
Y1467*
X11171*
Y994*
X11250*
X13376D02*
G01X13455D01*
Y1467*
X13219*
Y994*
X13297*
X13800Y1194D02*
G01X13784Y1206D01*
X13765Y1215*
X13744*
X13720Y1202*
X13701Y1181*
X13688Y1156*
X13677Y1115*
X13675Y1077*
X13680Y1040*
X13688Y1015*
X13704Y990*
X13723Y973*
X13741Y965*
X13760*
X13779Y973*
X13795Y985*
X13808Y1002*
X13903Y1015D02*
G01X13919Y985D01*
X13940Y969*
X13964Y965*
X13985Y969*
X14007Y990*
X14020Y1015*
X14023Y1040*
X14017Y1069*
X13999Y1090*
X13980Y1098*
X13956*
X13980D02*
G01X13996Y1110D01*
X14009Y1131*
X14015Y1156*
X14009Y1181*
X13996Y1202*
X13972Y1215*
X13948Y1210*
X13924Y1194*
X15572Y1233D02*
G01X15556Y1246D01*
X15537Y1254*
X15516*
X15492Y1241*
X15473Y1221*
X15460Y1196*
X15449Y1154*
X15446Y1116*
X15452Y1079*
X15460Y1054*
X15476Y1029*
X15494Y1012*
X15513Y1004*
X15532*
X15550Y1012*
X15566Y1025*
X15580Y1041*
X15765Y1004D02*
G01Y1254D01*
X15666Y1075*
X15800*
X15108Y994D02*
G01X15187D01*
Y1467*
X14951*
Y994*
X15030*
X18564Y1194D02*
G01X18548Y1206D01*
X18529Y1215*
X18508*
X18484Y1202*
X18465Y1181*
X18452Y1156*
X18441Y1115*
X18439Y1077*
X18444Y1040*
X18452Y1015*
X18468Y990*
X18487Y973*
X18505Y965*
X18524*
X18543Y973*
X18559Y985*
X18572Y1002*
X18667D02*
G01X18683Y981D01*
X18701Y969*
X18725Y965*
X18749Y973*
X18768Y990*
X18781Y1019*
X18784Y1052*
X18779Y1085*
X18765Y1106*
X18747Y1123*
X18728Y1127*
X18709Y1123*
X18685Y1106*
X18693Y1215*
X18765*
X18120Y994D02*
G01X18199D01*
Y1467*
X17963*
Y994*
X18041*
X19931D02*
G01X20010D01*
Y1467*
X19774*
Y994*
X19852*
X20375Y1194D02*
G01X20359Y1206D01*
X20340Y1215*
X20319*
X20295Y1202*
X20276Y1181*
X20263Y1156*
X20252Y1115*
X20250Y1077*
X20255Y1040*
X20263Y1015*
X20279Y990*
X20298Y973*
X20316Y965*
X20335*
X20354Y973*
X20370Y985*
X20383Y1002*
X20486Y1069D02*
G01X20504Y1098D01*
X20520Y1115*
X20542Y1123*
X20560Y1115*
X20574Y1098*
X20584Y1073*
X20587Y1044*
X20584Y1019*
X20574Y994*
X20558Y973*
X20539Y965*
X20518Y973*
X20499Y998*
X20488Y1035*
X20486Y1077*
X20491Y1131*
X20499Y1160*
X20512Y1190*
X20531Y1210*
X20550Y1215*
X20568Y1206*
X20582Y1185*
X22422Y1194D02*
G01X22406Y1206D01*
X22387Y1215*
X22366*
X22342Y1202*
X22323Y1181*
X22310Y1156*
X22299Y1115*
X22297Y1077*
X22302Y1040*
X22310Y1015*
X22326Y990*
X22345Y973*
X22363Y965*
X22382*
X22401Y973*
X22417Y985*
X22430Y1002*
X22578Y965D02*
G01X22583Y1019D01*
X22591Y1065*
X22602Y1106*
X22615Y1152*
X22637Y1215*
X22530*
X21978Y994D02*
G01X22057D01*
Y1467*
X21821*
Y994*
X21900*
X23711D02*
G01X23789D01*
Y1467*
X23553*
Y994*
X23632*
X24154Y1194D02*
G01X24138Y1206D01*
X24120Y1215*
X24098*
X24074Y1202*
X24056Y1181*
X24042Y1156*
X24032Y1115*
X24029Y1077*
X24034Y1040*
X24042Y1015*
X24058Y990*
X24077Y973*
X24096Y965*
X24114*
X24133Y973*
X24149Y985*
X24162Y1002*
X24316Y965D02*
G01X24334Y969D01*
X24356Y981*
X24369Y1002*
X24374Y1031*
X24369Y1060*
X24353Y1085*
X24329Y1098*
X24302*
X24286Y1106*
X24273Y1127*
X24268Y1156*
X24276Y1185*
X24294Y1206*
X24316Y1215*
X24337Y1206*
X24356Y1185*
X24364Y1156*
X24358Y1127*
X24345Y1106*
X24329Y1098*
X24302*
X24278Y1085*
X24262Y1060*
X24257Y1031*
X24262Y1002*
X24276Y981*
X24297Y969*
X24316Y965*
X25661Y1735D02*
G01X25645Y1712D01*
X25635Y1685*
Y1654*
X25650Y1620*
X25676Y1593*
X25707Y1574*
X25759Y1558*
X25805Y1555*
X25852Y1562*
X25883Y1574*
X25914Y1597*
X25935Y1624*
X25945Y1650*
Y1677*
X25935Y1704*
X25919Y1727*
X25898Y1746*
X25635Y1876D02*
G01X25857D01*
X25904Y1891*
X25935Y1922*
X25945Y1960*
X25935Y1999*
X25904Y2029*
X25857Y2045*
X25635*
Y2270D02*
G01X25945D01*
X25635Y2182D02*
G01Y2359D01*
X25661Y3285D02*
G01X25645Y3262D01*
X25635Y3235*
Y3204*
X25650Y3170*
X25676Y3143*
X25707Y3124*
X25759Y3108*
X25805Y3105*
X25852Y3112*
X25883Y3124*
X25914Y3147*
X25935Y3174*
X25945Y3200*
Y3227*
X25935Y3254*
X25919Y3277*
X25898Y3296*
X25635Y3426D02*
G01X25857D01*
X25904Y3441*
X25935Y3472*
X25945Y3510*
X25935Y3549*
X25904Y3579*
X25857Y3595*
X25635*
Y3820D02*
G01X25945D01*
X25635Y3732D02*
G01Y3909D01*
X25661Y4835D02*
G01X25645Y4812D01*
X25635Y4785*
Y4754*
X25650Y4720*
X25676Y4693*
X25707Y4674*
X25759Y4658*
X25805Y4655*
X25852Y4662*
X25883Y4674*
X25914Y4697*
X25935Y4724*
X25945Y4750*
Y4777*
X25935Y4804*
X25919Y4827*
X25898Y4846*
X25635Y4976D02*
G01X25857D01*
X25904Y4991*
X25935Y5022*
X25945Y5060*
X25935Y5099*
X25904Y5129*
X25857Y5145*
X25635*
Y5370D02*
G01X25945D01*
X25635Y5282D02*
G01Y5459D01*
X30212Y6102D02*
G01Y6412D01*
X30312Y6154*
X30412Y6412*
Y6102*
X30622Y6092D02*
G01X30614Y6097D01*
Y6108*
X30622Y6113*
X30630Y6108*
Y6097*
X30622Y6092*
X31165Y6164D02*
G01X31184Y6133D01*
X31207Y6113*
X31234Y6102*
X31265Y6113*
X31288Y6133*
X31311Y6164*
X31319Y6206*
Y6412*
X31552Y6102D02*
G01X31521Y6108D01*
X31494Y6128*
X31471Y6159*
X31456Y6195*
X31448Y6237*
Y6278*
X31456Y6319*
X31471Y6356*
X31494Y6387*
X31521Y6407*
X31552Y6412*
X31583Y6407*
X31609Y6387*
X31632Y6356*
X31648Y6319*
X31655Y6278*
Y6237*
X31648Y6195*
X31632Y6159*
X31609Y6128*
X31583Y6108*
X31552Y6102*
X31774D02*
G01Y6412D01*
X31950Y6102*
Y6412*
X32249Y6102D02*
G01X32095D01*
Y6412*
X32249*
X32187Y6263D02*
G01X32095D01*
X32401Y6144D02*
G01X32432Y6118D01*
X32467Y6102*
X32497*
X32528Y6118*
X32551Y6144*
X32562Y6180*
X32555Y6216*
X32536Y6247*
X32501Y6268*
X32455Y6278*
X32428Y6299*
X32417Y6335*
X32424Y6371*
X32444Y6397*
X32470Y6412*
X32497*
X32524Y6402*
X32547Y6376*
G54D23*
X0Y0D02*
G01X7480D01*
Y984*
X7283*
Y1378D02*
G75*
G03X7283Y984J-197D01*
Y1378D02*
G01X7894D01*
Y984D02*
G03X7894Y1378I-20J197D01*
Y984D02*
G01X7874D01*
Y0*
X25335*
Y984*
X25315*
Y1378D02*
G03X25315Y984J-197D01*
Y1378D02*
G01X25925D01*
Y984D02*
G03X25925Y1378J197D01*
Y984D02*
G01X25728D01*
Y0*
X33189*
Y6969*
X25728*
Y5984*
X25925*
Y5591D02*
G03X25925Y5984J197D01*
Y5591D02*
G01X25315D01*
Y5984D02*
G03X25315Y5591J-197D01*
Y5984D02*
G01X25335D01*
Y6969*
X7874*
Y5984*
X7894*
Y5591D02*
G03X7894Y5984J197D01*
Y5591D02*
G01X7283D01*
Y5984D02*
G03X7283Y5591J-197D01*
Y5984D02*
G01X7480D01*
Y6969*
X0*
Y0*
X5061Y3484D02*
G03X5061Y3484I-1252D01*
X30652D02*
G03X30652Y3484I-1252D01*
M02*
