G04 CAM350/DFMSTREAM V12.2 (Build 1155) Date:  Thu Aug 08 15:54:00 2019 *
G04 Database: C:\Users\ptome\Documents\Data - Open Quotes\PURDUE UNIVERSITY\CPC_MOCKUP_HDI_1X2_V2 REV 2.00\CPC_MOCKUP_HDI_1X2_V2 REV 2.00.cam *
G04 Layer 4: L2 *
%FSLAX44Y44*%
%MOIN*%
%SFA1.000B1.000*%

%MIA0B0*%
%IPPOS*%
%ADD10C,0.03937*%
%ADD21C,0.01800*%
%ADD23C,0.00500*%
%LNL2*%
%LPD*%
G36*
X7992Y98D02*
G01Y728D01*
X8228Y965*
Y6043*
X7992Y6280*
Y6890*
X25256*
Y6299*
X25000Y6043*
Y945*
X25256Y689*
Y98*
X7992*
G37*
%LPC*%
G36*
X9006Y1269D02*
G75*
G03X9145Y1398I10J129D01*
X9026Y1527I-129J0*
X8886Y1398I-11J-129*
X9006Y1269I129J0*
G37*
G36*
X9439Y3631D02*
G03X9578Y3760I10J129D01*
X9459Y3889I-129J0*
X9319Y3760I-11J-129*
X9439Y3631I129J0*
G37*
G36*
X9951Y678D02*
G03X10090Y807I10J129D01*
X9971Y936I-129J0*
X9831Y807I-11J-129*
X9951Y678I129J0*
G37*
G36*
Y1269D02*
G03X10090Y1398I10J129D01*
X9971Y1527I-129J0*
X9831Y1398I-11J-129*
X9951Y1269I129J0*
G37*
G36*
X10817Y678D02*
G03X10956Y807I10J129D01*
X10837Y936I-129J0*
X10697Y807I-11J-129*
X10817Y678I129J0*
G37*
G36*
Y1269D02*
G03X10956Y1398I10J129D01*
X10837Y1527I-129J0*
X10697Y1398I-11J-129*
X10817Y1269I129J0*
G37*
G36*
X11762Y678D02*
G03X11901Y807I10J129D01*
X11782Y936I-129J0*
X11642Y807I-11J-129*
X11762Y678I129J0*
G37*
G36*
Y1269D02*
G03X11901Y1398I10J129D01*
X11782Y1527I-129J0*
X11642Y1398I-11J-129*
X11762Y1269I129J0*
G37*
G36*
X12864Y678D02*
G03X13003Y807I10J129D01*
X12884Y936I-129J0*
X12745Y807I-10J-129*
X12864Y678I129J0*
G37*
G36*
Y1269D02*
G03X13003Y1398I10J129D01*
X12884Y1527I-129J0*
X12745Y1398I-10J-129*
X12864Y1269I129J0*
G37*
G36*
X13809Y678D02*
G03X13948Y807I10J129D01*
X13829Y936I-129J0*
X13689Y807I-11J-129*
X13809Y678I129J0*
G37*
G36*
Y1269D02*
G03X13948Y1398I10J129D01*
X13829Y1527I-129J0*
X13689Y1398I-11J-129*
X13809Y1269I129J0*
G37*
G36*
X14596Y678D02*
G03X14736Y807I11J129D01*
X14616Y936I-129J0*
X14477Y807I-10J-129*
X14596Y678I129J0*
G37*
G36*
Y1269D02*
G03X14736Y1398I11J129D01*
X14616Y1527I-129J0*
X14477Y1398I-10J-129*
X14596Y1269I129J0*
G37*
G36*
X14850Y5183D02*
G03X15054Y5212I91J92D01*
G02X15123I35J-20*
G03X15349I113J63*
G02X15419I35J-19*
G03X15624Y5185I113J64*
X15661Y5276I-92J91*
X15595Y5388I-129J-1*
G02X15575Y5423I20J35*
X15595Y5458I40J0*
G03X15661Y5571I-63J113*
X15595Y5684I-129J0*
G02X15575Y5719I20J35*
X15595Y5753I40J-1*
G03X15661Y5866I-63J113*
X15595Y5979I-129J0*
G02X15575Y6014I20J35*
X15595Y6049I40J0*
G03X15661Y6161I-63J113*
X15622Y6254I-129J0*
X15419Y6225I-90J-93*
G02X15349I-35J19*
G03X15123I-113J-63*
G02X15054I-34J20*
G03X14848Y6252I-113J-63*
X14811Y6161I92J-91*
X14877Y6049I129J1*
G02X14898Y6014I-19J-35*
X14877Y5979I-40J0*
G03X14811Y5866I63J-113*
X14877Y5753I129J0*
G02X14898Y5719I-19J-35*
X14877Y5684I-40J0*
G03X14811Y5571I63J-113*
X14877Y5458I129J0*
G02X14898Y5423I-19J-35*
X14877Y5388I-40J0*
G03X14811Y5276I63J-113*
X14850Y5183I129J0*
G37*
G36*
X15541Y678D02*
G03X15681Y807I11J129D01*
X15561Y936I-129J0*
X15422Y807I-10J-129*
X15541Y678I129J0*
G37*
G36*
Y1269D02*
G03X15681Y1398I11J129D01*
X15561Y1527I-129J0*
X15422Y1398I-10J-129*
X15541Y1269I129J0*
G37*
G36*
X16132Y3631D02*
G03X16271Y3760I10J129D01*
X16152Y3889I-129J0*
X16012Y3760I-11J-129*
X16132Y3631I129J0*
G37*
G36*
X17608Y678D02*
G03X17748Y807I11J129D01*
X17628Y936I-129J0*
X17489Y807I-10J-129*
X17608Y678I129J0*
G37*
G36*
Y1269D02*
G03X17748Y1398I11J129D01*
X17628Y1527I-129J0*
X17489Y1398I-10J-129*
X17608Y1269I129J0*
G37*
G36*
X18100Y3631D02*
G03X18240Y3760I11J129D01*
X18120Y3889I-129J0*
X17981Y3760I-10J-129*
X18100Y3631I129J0*
G37*
G36*
X18553Y678D02*
G03X18692Y807I10J129D01*
X18573Y936I-129J0*
X18434Y807I-10J-129*
X18553Y678I129J0*
G37*
G36*
Y1269D02*
G03X18692Y1398I10J129D01*
X18573Y1527I-129J0*
X18434Y1398I-10J-129*
X18553Y1269I129J0*
G37*
G36*
X19419Y678D02*
G03X19559Y807I11J129D01*
X19439Y936I-129J0*
X19300Y807I-10J-129*
X19419Y678I129J0*
G37*
G36*
Y1269D02*
G03X19559Y1398I11J129D01*
X19439Y1527I-129J0*
X19300Y1398I-10J-129*
X19419Y1269I129J0*
G37*
G36*
X20364Y678D02*
G03X20503Y807I10J129D01*
X20384Y936I-129J0*
X20245Y807I-10J-129*
X20364Y678I129J0*
G37*
G36*
Y1269D02*
G03X20503Y1398I10J129D01*
X20384Y1527I-129J0*
X20245Y1398I-10J-129*
X20364Y1269I129J0*
G37*
G36*
X21466Y678D02*
G03X21606Y807I11J129D01*
X21486Y936I-129J0*
X21347Y807I-10J-129*
X21466Y678I129J0*
G37*
G36*
Y1269D02*
G03X21606Y1398I11J129D01*
X21486Y1527I-129J0*
X21347Y1398I-10J-129*
X21466Y1269I129J0*
G37*
G36*
X22411Y678D02*
G03X22551Y807I11J129D01*
X22431Y936I-129J0*
X22292Y807I-10J-129*
X22411Y678I129J0*
G37*
G36*
Y1269D02*
G03X22551Y1398I11J129D01*
X22431Y1527I-129J0*
X22292Y1398I-10J-129*
X22411Y1269I129J0*
G37*
G36*
X23199Y678D02*
G03X23338Y807I10J129D01*
X23219Y936I-129J0*
X23079Y807I-11J-129*
X23199Y678I129J0*
G37*
G36*
Y1269D02*
G03X23338Y1398I10J129D01*
X23219Y1527I-129J0*
X23079Y1398I-11J-129*
X23199Y1269I129J0*
G37*
G36*
X24143Y678D02*
G03X24283Y807I11J129D01*
X24164Y936I-129J0*
X24024Y807I-11J-129*
X24143Y678I129J0*
G37*
G36*
Y1269D02*
G03X24283Y1398I11J129D01*
X24164Y1527I-129J0*
X24024Y1398I-11J-129*
X24143Y1269I129J0*
G37*
G36*
X24793Y3631D02*
G03X24933Y3760I11J129D01*
X24813Y3889I-129J0*
X24674Y3760I-10J-129*
X24793Y3631I129J0*
G37*
G36*
X9006Y678D02*
G03X9145Y807I10J129D01*
X9026Y936I-129J0*
X8886Y807I-11J-129*
X9006Y678I129J0*
G37*
%LPD*%
G36*
X14984Y5719D02*
G02X15004Y5753I40J-1D01*
G03X15054Y5803I-63J113*
G02X15123I35J-20*
G03X15173Y5753I113J63*
G02X15193Y5719I-20J-35*
X15173Y5684I-40J0*
G03X15123Y5634I63J-113*
G02X15054I-34J20*
G03X15004Y5684I-113J-63*
G02X14984Y5719I20J35*
G37*
G36*
Y6014D02*
G02X15004Y6049I40J0D01*
G03X15054Y6098I-62J114*
G02X15123I35J-20*
G03X15173Y6049I112J65*
G02X15193Y6014I-20J-35*
X15173Y5979I-40J0*
G03X15123Y5930I62J-114*
G02X15054I-34J20*
G03X15004Y5979I-112J-65*
G02X14984Y6014I20J35*
G37*
G36*
X15279Y5423D02*
G02X15300Y5458I40J0D01*
G03X15349Y5507I-64J113*
G02X15419I35J-19*
G03X15468Y5458I113J64*
G02X15488Y5423I-20J-35*
X15468Y5388I-40J0*
G03X15419Y5339I64J-113*
G02X15349I-35J19*
G03X15300Y5388I-113J-64*
G02X15279Y5423I19J35*
G37*
G36*
Y5719D02*
G02X15300Y5753I40J-1D01*
G03X15349Y5803I-65J112*
G02X15419I35J-19*
G03X15468Y5753I114J62*
G02X15488Y5719I-20J-35*
X15468Y5684I-40J0*
G03X15419Y5634I65J-112*
G02X15349I-35J19*
G03X15300Y5684I-114J-62*
G02X15279Y5719I19J35*
G37*
G36*
Y6014D02*
G02X15300Y6049I40J0D01*
G03X15349Y6098I-64J113*
G02X15419I35J-19*
G03X15468Y6049I113J64*
G02X15488Y6014I-20J-35*
X15468Y5979I-40J0*
G03X15419Y5930I64J-113*
G02X15349I-35J19*
G03X15300Y5979I-113J-64*
G02X15279Y6014I19J35*
G37*
G36*
X14984Y5423D02*
G02X15004Y5458I40J0D01*
G03X15054Y5507I-62J114*
G02X15123I35J-20*
G03X15173Y5458I112J65*
G02X15193Y5423I-20J-35*
X15173Y5388I-40J0*
G03X15123Y5339I62J-114*
G02X15054I-34J20*
G03X15004Y5388I-112J-65*
G02X14984Y5423I20J35*
G37*
G54D10*
X1841Y1575D03*
X31368D03*
G54D21*
X9016Y807D03*
Y1398D03*
X9280Y1004D03*
Y807D03*
X9449Y3760D03*
X9488Y5571D03*
X9193D03*
X8898D03*
X9488Y5276D03*
X9193D03*
X8898D03*
X9193Y5866D03*
Y6161D03*
X9488D03*
X8898D03*
Y5866D03*
X9488D03*
X10827Y807D03*
Y1398D03*
X9961D03*
Y807D03*
X9673Y1004D03*
Y807D03*
X11772Y1398D03*
Y807D03*
X11091Y1004D03*
X11484D03*
Y807D03*
X11091D03*
X12874D03*
Y1398D03*
X13138Y1004D03*
X13531D03*
Y807D03*
X13138D03*
X14606D03*
Y1398D03*
X13819Y807D03*
Y1398D03*
X14870Y1004D03*
Y807D03*
X15551D03*
Y1398D03*
X15264Y1004D03*
Y807D03*
X16142Y3760D03*
X15531Y5276D03*
Y5571D03*
X15236D03*
X14941D03*
X15236Y5276D03*
X14941D03*
X15531Y5866D03*
Y6161D03*
X15236D03*
X14941D03*
Y5866D03*
X15236D03*
X17618Y807D03*
Y1398D03*
X18563D03*
Y807D03*
X17882D03*
X18276D03*
Y1004D03*
X17882D03*
X18110Y3760D03*
X19429Y807D03*
Y1398D03*
X19693Y807D03*
X20087D03*
Y1004D03*
X19693D03*
X20374Y1398D03*
Y807D03*
X21476D03*
Y1398D03*
X22421D03*
Y807D03*
X21740D03*
X22134D03*
Y1004D03*
X21740D03*
X23209Y807D03*
X24154D03*
Y1398D03*
X23209D03*
X23472Y1004D03*
Y807D03*
X23866D03*
Y1004D03*
X24803Y3760D03*
G54D23*
X0Y0D02*
G01X7480D01*
Y984*
X7283*
Y1378D02*
G03X7283Y984J-197D01*
Y1378D02*
G01X7894D01*
Y984D02*
G03X7894Y1378I-20J197D01*
Y984D02*
G01X7874D01*
Y0*
X25335*
Y984*
X25315*
Y1378D02*
G03X25315Y984J-197D01*
Y1378D02*
G01X25925D01*
Y984D02*
G03X25925Y1378J197D01*
Y984D02*
G01X25728D01*
Y0*
X33189*
Y6969*
X25728*
Y5984*
X25925*
Y5591D02*
G03X25925Y5984J197D01*
Y5591D02*
G01X25315D01*
Y5984D02*
G03X25315Y5591J-197D01*
Y5984D02*
G01X25335D01*
Y6969*
X7874*
Y5984*
X7894*
Y5591D02*
G03X7894Y5984J197D01*
Y5591D02*
G01X7283D01*
Y5984D02*
G03X7283Y5591J-197D01*
Y5984D02*
G01X7480D01*
Y6969*
X0*
Y0*
X5061Y3484D02*
G03X5061Y3484I-1252D01*
X30652D02*
G03X30652Y3484I-1252D01*
M02*
